STARTFONT 2.3
FONT -FontForge-Source Sans Pro-Bold-R-Normal-SansPro--12-120-72-72-P-63-ISO10646-1
SIZE 12 72 72  2
FONTBOUNDINGBOX 32 18 -6 -4
COMMENT "Generated by fontforge, http://fontforge.sourceforge.net"
COMMENT "Copyright 2010, 2012, 2014 Adobe Systems Incorporated (http://www.adobe.com/), with Reserved Font Name `Source'."
STARTPROPERTIES 41
FOUNDRY "FontForge"
FAMILY_NAME "Source Sans Pro"
WEIGHT_NAME "Bold"
SLANT "R"
SETWIDTH_NAME "Normal"
ADD_STYLE_NAME "SansPro"
PIXEL_SIZE 12
POINT_SIZE 120
RESOLUTION_X 72
RESOLUTION_Y 72
SPACING "P"
AVERAGE_WIDTH 63
CHARSET_REGISTRY "ISO10646"
CHARSET_ENCODING "1"
FONTNAME_REGISTRY ""
CHARSET_COLLECTIONS "ISO8859-2 ISO8859-5 ISO8859-7 ISO8859-9 ISO8859-4 ISO10646-1"
BITS_PER_PIXEL 2
FONT_NAME "SourceSansPro-Bold"
FACE_NAME "Source Sans Pro Bold"
COPYRIGHT "Copyright 2010, 2012, 2014 Adobe Systems Incorporated (http://www.adobe.com/), with Reserved Font Name `Source'."
FONT_VERSION "2.021;PS 2.000;hotconv 1.0.86;makeotf.lib2.5.63406"
FONT_ASCENT 9
FONT_DESCENT 3
UNDERLINE_POSITION -1
UNDERLINE_THICKNESS 1
X_HEIGHT 5
CAP_HEIGHT 7
RAW_ASCENT 750
RAW_DESCENT 250
NORM_SPACE 2
RELATIVE_WEIGHT 70
RELATIVE_SETWIDTH 50
SUPERSCRIPT_X 0
SUPERSCRIPT_Y 4
SUPERSCRIPT_SIZE 7
SUBSCRIPT_X 0
SUBSCRIPT_Y 0
SUBSCRIPT_SIZE 7
FIGURE_WIDTH 6
AVG_LOWERCASE_WIDTH 64
AVG_UPPERCASE_WIDTH 76
ENDPROPERTIES
CHARS 1896
STARTCHAR space
ENCODING 32
SWIDTH 200 0
DWIDTH 2 0
BBX 1 1 0 0
BITMAP
00
ENDCHAR
STARTCHAR exclam
ENCODING 33
SWIDTH 340 0
DWIDTH 4 0
BBX 2 9 1 0
BITMAP
50
B0
B0
A0
A0
A0
00
B0
B0
ENDCHAR
STARTCHAR quotedbl
ENCODING 34
SWIDTH 536 0
DWIDTH 6 0
BBX 5 4 1 4
BITMAP
E740
E740
D340
9340
ENDCHAR
STARTCHAR numbersign
ENCODING 35
SWIDTH 528 0
DWIDTH 6 0
BBX 6 8 0 0
BITMAP
0C90
18C0
7FF0
19C0
2580
BFE0
2680
3240
ENDCHAR
STARTCHAR dollar
ENCODING 36
SWIDTH 528 0
DWIDTH 6 0
BBX 6 11 0 -2
BITMAP
0600
1F90
3840
7800
2E40
07D0
01E0
11D0
6F80
0600
0600
ENDCHAR
STARTCHAR percent
ENCODING 37
SWIDTH 857 0
DWIDTH 10 0
BBX 10 8 0 0
BITMAP
2D0A00
A70C00
A36400
A777D0
2D9960
00CD70
024960
0607D0
ENDCHAR
STARTCHAR ampersand
ENCODING 38
SWIDTH 667 0
DWIDTH 8 0
BBX 8 8 0 0
BITMAP
0B80
2DD0
29C0
1F4D
7F5D
B6F8
B5FE
2F99
ENDCHAR
STARTCHAR quotesingle
ENCODING 39
SWIDTH 300 0
DWIDTH 4 0
BBX 2 4 1 4
BITMAP
E0
E0
D0
90
ENDCHAR
STARTCHAR parenleft
ENCODING 40
SWIDTH 344 0
DWIDTH 4 0
BBX 3 11 1 -2
BITMAP
24
70
A0
D0
D0
D0
D0
D0
A0
70
24
ENDCHAR
STARTCHAR parenright
ENCODING 41
SWIDTH 344 0
DWIDTH 4 0
BBX 4 11 0 -2
BITMAP
60
34
28
1C
1D
1D
1D
1C
28
34
60
ENDCHAR
STARTCHAR asterisk
ENCODING 42
SWIDTH 457 0
DWIDTH 5 0
BBX 5 4 0 5
BITMAP
0900
6E80
2F40
2B40
ENDCHAR
STARTCHAR plus
ENCODING 43
SWIDTH 528 0
DWIDTH 6 0
BBX 6 7 0 0
BITMAP
0100
0600
0600
BFF0
0600
0600
0100
ENDCHAR
STARTCHAR comma
ENCODING 44
SWIDTH 300 0
DWIDTH 4 0
BBX 3 4 0 -2
BITMAP
38
3C
1C
74
ENDCHAR
STARTCHAR hyphen
ENCODING 45
SWIDTH 332 0
DWIDTH 4 0
BBX 4 1 0 3
BITMAP
7D
ENDCHAR
STARTCHAR period
ENCODING 46
SWIDTH 300 0
DWIDTH 4 0
BBX 2 2 1 0
BITMAP
E0
E0
ENDCHAR
STARTCHAR slash
ENCODING 47
SWIDTH 339 0
DWIDTH 4 0
BBX 4 10 0 -1
BITMAP
0A
09
0C
1C
28
24
30
70
60
90
ENDCHAR
STARTCHAR zero
ENCODING 48
SWIDTH 528 0
DWIDTH 6 0
BBX 6 8 0 0
BITMAP
1F80
39D0
74E0
B0B0
B0A0
74E0
39D0
1F80
ENDCHAR
STARTCHAR one
ENCODING 49
SWIDTH 528 0
DWIDTH 6 0
BBX 5 8 1 0
BITMAP
2D00
FD00
2D00
2D00
2D00
2D00
2D00
FF80
ENDCHAR
STARTCHAR two
ENCODING 50
SWIDTH 528 0
DWIDTH 6 0
BBX 6 8 0 0
BITMAP
6F40
22C0
01D0
02D0
07C0
1F40
3D00
BFE0
ENDCHAR
STARTCHAR three
ENCODING 51
SWIDTH 528 0
DWIDTH 6 0
BBX 6 8 0 0
BITMAP
6F40
12D0
01D0
02D0
0F80
01E0
51E0
6F80
ENDCHAR
STARTCHAR four
ENCODING 52
SWIDTH 528 0
DWIDTH 6 0
BBX 6 8 0 0
BITMAP
07D0
0BD0
1ED0
39D0
75D0
BFF0
01D0
01D0
ENDCHAR
STARTCHAR five
ENCODING 53
SWIDTH 528 0
DWIDTH 6 0
BBX 6 8 0 0
BITMAP
3FD0
3800
3800
3F80
11E0
00E0
51D0
6F80
ENDCHAR
STARTCHAR six
ENCODING 54
SWIDTH 528 0
DWIDTH 6 0
BBX 6 8 0 0
BITMAP
0BD0
3840
7400
7B90
78E0
74B0
38E0
1B80
ENDCHAR
STARTCHAR seven
ENCODING 55
SWIDTH 528 0
DWIDTH 6 0
BBX 6 8 0 0
BITMAP
7FE0
01D0
03C0
0740
0B00
0B00
0E00
0E00
ENDCHAR
STARTCHAR eight
ENCODING 56
SWIDTH 528 0
DWIDTH 6 0
BBX 6 8 0 0
BITMAP
1F80
38D0
34D0
2E80
2BD0
70E0
74E0
2F80
ENDCHAR
STARTCHAR nine
ENCODING 57
SWIDTH 528 0
DWIDTH 6 0
BBX 6 8 0 0
BITMAP
2F40
75D0
B0E0
75E0
2EE0
00E0
11D0
2F40
ENDCHAR
STARTCHAR colon
ENCODING 58
SWIDTH 300 0
DWIDTH 4 0
BBX 2 6 1 0
BITMAP
E0
E0
00
00
E0
E0
ENDCHAR
STARTCHAR semicolon
ENCODING 59
SWIDTH 300 0
DWIDTH 4 0
BBX 3 8 0 -2
BITMAP
38
38
00
00
38
3C
1C
74
ENDCHAR
STARTCHAR less
ENCODING 60
SWIDTH 528 0
DWIDTH 6 0
BBX 6 5 0 1
BITMAP
00A0
1B90
B800
1B90
00A0
ENDCHAR
STARTCHAR equal
ENCODING 61
SWIDTH 528 0
DWIDTH 6 0
BBX 6 3 0 2
BITMAP
BFF0
0000
BFF0
ENDCHAR
STARTCHAR greater
ENCODING 62
SWIDTH 528 0
DWIDTH 6 0
BBX 6 5 0 1
BITMAP
A400
6F90
02F0
6F90
A400
ENDCHAR
STARTCHAR question
ENCODING 63
SWIDTH 463 0
DWIDTH 6 0
BBX 4 8 1 0
BITMAP
BD
4B
0F
2D
34
00
74
74
ENDCHAR
STARTCHAR at
ENCODING 64
SWIDTH 903 0
DWIDTH 11 0
BBX 11 10 0 -2
BITMAP
01BE40
0A41D0
2C0070
34BA34
728D30
639C70
71EBD0
340000
1D0400
06F900
ENDCHAR
STARTCHAR A
ENCODING 65
SWIDTH 573 0
DWIDTH 7 0
BBX 7 8 0 0
BITMAP
0B80
0FC0
1DD0
2CE0
38F0
7FF4
B074
F038
ENDCHAR
STARTCHAR B
ENCODING 66
SWIDTH 605 0
DWIDTH 7 0
BBX 6 8 1 0
BITMAP
FF80
FFD0
E1D0
E1C0
FFD0
E0E0
FFE0
FF80
ENDCHAR
STARTCHAR C
ENCODING 67
SWIDTH 582 0
DWIDTH 7 0
BBX 7 8 0 0
BITMAP
07E0
2FF4
7D10
7400
7400
7D10
2FF8
0BE0
ENDCHAR
STARTCHAR D
ENCODING 68
SWIDTH 635 0
DWIDTH 8 0
BBX 6 8 1 0
BITMAP
FE40
FFD0
E1F0
E0F0
E0F0
E1F0
FFD0
FE40
ENDCHAR
STARTCHAR E
ENCODING 69
SWIDTH 548 0
DWIDTH 7 0
BBX 5 8 1 0
BITMAP
FF80
FF80
E000
E000
FF40
E000
FFC0
FFC0
ENDCHAR
STARTCHAR F
ENCODING 70
SWIDTH 524 0
DWIDTH 6 0
BBX 5 8 1 0
BITMAP
FFC0
FFC0
E000
E000
FF40
E000
E000
E000
ENDCHAR
STARTCHAR G
ENCODING 71
SWIDTH 638 0
DWIDTH 8 0
BBX 7 8 0 0
BITMAP
07E0
2FF8
7D10
7400
74FC
7D2C
2FFC
0BE4
ENDCHAR
STARTCHAR H
ENCODING 72
SWIDTH 674 0
DWIDTH 8 0
BBX 6 8 1 0
BITMAP
E0B0
E0B0
E0B0
FFF0
FFF0
E0B0
E0B0
E0B0
ENDCHAR
STARTCHAR I
ENCODING 73
SWIDTH 301 0
DWIDTH 4 0
BBX 2 8 1 0
BITMAP
E0
E0
E0
E0
E0
E0
E0
E0
ENDCHAR
STARTCHAR J
ENCODING 74
SWIDTH 509 0
DWIDTH 6 0
BBX 6 8 0 0
BITMAP
02D0
02D0
02D0
02D0
02D0
22D0
BFC0
2F40
ENDCHAR
STARTCHAR K
ENCODING 75
SWIDTH 614 0
DWIDTH 7 0
BBX 6 8 1 0
BITMAP
E1E0
E3C0
EB40
FF00
FF40
F3C0
E1E0
E0B0
ENDCHAR
STARTCHAR L
ENCODING 76
SWIDTH 518 0
DWIDTH 6 0
BBX 5 8 1 0
BITMAP
E000
E000
E000
E000
E000
E000
FF80
FF80
ENDCHAR
STARTCHAR M
ENCODING 77
SWIDTH 762 0
DWIDTH 9 0
BBX 8 8 1 0
BITMAP
F03D
F47D
F8BD
ECED
EEDD
EB9D
E75D
E11D
ENDCHAR
STARTCHAR N
ENCODING 78
SWIDTH 665 0
DWIDTH 8 0
BBX 6 8 1 0
BITMAP
F0B0
F8B0
FCB0
EEB0
EBB0
E3F0
E2F0
E0F0
ENDCHAR
STARTCHAR O
ENCODING 79
SWIDTH 684 0
DWIDTH 8 0
BBX 8 8 0 0
BITMAP
0BE0
2FFC
7C2D
741E
741E
7C2D
2FFC
0BE0
ENDCHAR
STARTCHAR P
ENCODING 80
SWIDTH 596 0
DWIDTH 7 0
BBX 6 8 1 0
BITMAP
FF80
FFD0
E1E0
E1D0
FF80
E000
E000
E000
ENDCHAR
STARTCHAR Q
ENCODING 81
SWIDTH 684 0
DWIDTH 8 0
BBX 8 11 0 -3
BITMAP
0BE0
2FFC
7C2D
741E
741E
7C2D
2FFC
0BE4
01E0
00FF
002F
ENDCHAR
STARTCHAR R
ENCODING 82
SWIDTH 613 0
DWIDTH 7 0
BBX 6 8 1 0
BITMAP
FF80
FFE0
E1E0
E1E0
FF80
E380
E2D0
E0F0
ENDCHAR
STARTCHAR S
ENCODING 83
SWIDTH 556 0
DWIDTH 7 0
BBX 7 8 0 0
BITMAP
1B90
3FE0
7850
2F80
07F0
24B4
7FF0
1F90
ENDCHAR
STARTCHAR T
ENCODING 84
SWIDTH 556 0
DWIDTH 7 0
BBX 7 8 0 0
BITMAP
BFF4
BFF4
0B40
0B40
0B40
0B40
0B40
0B40
ENDCHAR
STARTCHAR U
ENCODING 85
SWIDTH 665 0
DWIDTH 8 0
BBX 6 8 1 0
BITMAP
E0B0
E0B0
E0B0
E0B0
E0B0
F0F0
BFE0
2F80
ENDCHAR
STARTCHAR V
ENCODING 86
SWIDTH 556 0
DWIDTH 7 0
BBX 7 8 0 0
BITMAP
F078
B074
74B0
38E0
2CD0
1EC0
0FC0
0F80
ENDCHAR
STARTCHAR W
ENCODING 87
SWIDTH 813 0
DWIDTH 10 0
BBX 10 8 0 0
BITMAP
B0E0E0
B4F1D0
75F5C0
76B6C0
3AAA80
2B6F80
2F1F40
1F0F40
ENDCHAR
STARTCHAR X
ENCODING 88
SWIDTH 567 0
DWIDTH 7 0
BBX 7 8 0 0
BITMAP
74B4
3CE0
1ED0
0F80
0F80
2ED0
38F0
B4B4
ENDCHAR
STARTCHAR Y
ENCODING 89
SWIDTH 525 0
DWIDTH 6 0
BBX 6 8 0 0
BITMAP
F0B0
74E0
39D0
1F80
0F40
0B00
0B00
0B00
ENDCHAR
STARTCHAR Z
ENCODING 90
SWIDTH 541 0
DWIDTH 6 0
BBX 6 8 0 0
BITMAP
7FF0
7FF0
02E0
0780
1F00
7C00
BFF0
BFF0
ENDCHAR
STARTCHAR bracketleft
ENCODING 91
SWIDTH 344 0
DWIDTH 4 0
BBX 3 11 1 -2
BITMAP
F8
D0
D0
D0
D0
D0
D0
D0
D0
D0
F8
ENDCHAR
STARTCHAR backslash
ENCODING 92
SWIDTH 339 0
DWIDTH 4 0
BBX 4 10 0 -1
BITMAP
A0
70
30
24
28
18
0C
0D
0A
06
ENDCHAR
STARTCHAR bracketright
ENCODING 93
SWIDTH 344 0
DWIDTH 4 0
BBX 3 11 0 -2
BITMAP
7C
1C
1C
1C
1C
1C
1C
1C
1C
1C
7C
ENDCHAR
STARTCHAR asciicircum
ENCODING 94
SWIDTH 528 0
DWIDTH 6 0
BBX 6 5 0 3
BITMAP
0B00
0F40
1E80
39D0
74E0
ENDCHAR
STARTCHAR underscore
ENCODING 95
SWIDTH 500 0
DWIDTH 6 0
BBX 6 1 0 -2
BITMAP
FFF0
ENDCHAR
STARTCHAR grave
ENCODING 96
SWIDTH 555 0
DWIDTH 7 0
BBX 3 3 1 7
BITMAP
60
B8
18
ENDCHAR
STARTCHAR a
ENCODING 97
SWIDTH 527 0
DWIDTH 6 0
BBX 6 6 0 0
BITMAP
2F80
11D0
1BE0
79E0
75E0
2EE0
ENDCHAR
STARTCHAR b
ENCODING 98
SWIDTH 573 0
DWIDTH 7 0
BBX 7 9 0 0
BITMAP
7800
7800
7800
7BD0
78B0
7874
7874
78B0
7BD0
ENDCHAR
STARTCHAR c
ENCODING 99
SWIDTH 467 0
DWIDTH 6 0
BBX 5 6 0 0
BITMAP
1B80
3800
7400
7400
7840
1F80
ENDCHAR
STARTCHAR d
ENCODING 100
SWIDTH 573 0
DWIDTH 7 0
BBX 6 9 0 0
BITMAP
00B0
00B0
00B0
1FB0
78B0
74B0
74B0
78F0
1FB0
ENDCHAR
STARTCHAR e
ENCODING 101
SWIDTH 518 0
DWIDTH 6 0
BBX 6 6 0 0
BITMAP
1F80
74E0
7FE0
7400
7840
1BD0
ENDCHAR
STARTCHAR f
ENCODING 102
SWIDTH 341 0
DWIDTH 4 0
BBX 5 9 0 0
BITMAP
1B40
2C00
3C00
BF00
3C00
3C00
3C00
3C00
3C00
ENDCHAR
STARTCHAR g
ENCODING 103
SWIDTH 534 0
DWIDTH 6 0
BBX 6 8 0 -2
BITMAP
2FF0
75D0
75D0
3F80
7400
3FE0
70B0
6F90
ENDCHAR
STARTCHAR h
ENCODING 104
SWIDTH 571 0
DWIDTH 7 0
BBX 6 9 0 0
BITMAP
7800
7800
7800
7AD0
78B0
78B0
78B0
78B0
78B0
ENDCHAR
STARTCHAR i
ENCODING 105
SWIDTH 276 0
DWIDTH 3 0
BBX 3 9 0 0
BITMAP
24
74
00
78
78
78
78
78
78
ENDCHAR
STARTCHAR j
ENCODING 106
SWIDTH 278 0
DWIDTH 3 0
BBX 4 11 -1 -2
BITMAP
09
1D
00
1E
1E
1E
1E
1E
1E
1D
78
ENDCHAR
STARTCHAR k
ENCODING 107
SWIDTH 548 0
DWIDTH 7 0
BBX 7 9 0 0
BITMAP
7800
7800
7800
78F0
7AC0
7F40
7FC0
79E0
78B4
ENDCHAR
STARTCHAR l
ENCODING 108
SWIDTH 286 0
DWIDTH 3 0
BBX 4 9 0 0
BITMAP
78
78
78
78
78
78
78
38
2D
ENDCHAR
STARTCHAR m
ENCODING 109
SWIDTH 857 0
DWIDTH 10 0
BBX 10 6 0 0
BITMAP
7BDB80
78F5D0
78B1E0
78B1E0
78B1E0
78B1E0
ENDCHAR
STARTCHAR n
ENCODING 110
SWIDTH 572 0
DWIDTH 7 0
BBX 6 6 0 0
BITMAP
7AD0
78B0
78B0
78B0
78B0
78B0
ENDCHAR
STARTCHAR o
ENCODING 111
SWIDTH 555 0
DWIDTH 7 0
BBX 6 6 0 0
BITMAP
1B80
78E0
74B0
74B0
78E0
1F80
ENDCHAR
STARTCHAR p
ENCODING 112
SWIDTH 573 0
DWIDTH 7 0
BBX 7 8 0 -2
BITMAP
7BD0
78B0
7874
7874
78B0
7BD0
7800
7800
ENDCHAR
STARTCHAR q
ENCODING 113
SWIDTH 573 0
DWIDTH 7 0
BBX 6 8 0 -2
BITMAP
1FB0
78F0
74B0
74B0
78B0
1FB0
00B0
00B0
ENDCHAR
STARTCHAR r
ENCODING 114
SWIDTH 398 0
DWIDTH 5 0
BBX 5 6 0 0
BITMAP
7780
7F80
7800
7800
7800
7800
ENDCHAR
STARTCHAR s
ENCODING 115
SWIDTH 443 0
DWIDTH 5 0
BBX 5 6 0 0
BITMAP
2F80
7540
7E00
1B80
12C0
7F40
ENDCHAR
STARTCHAR t
ENCODING 116
SWIDTH 383 0
DWIDTH 5 0
BBX 5 8 0 0
BITMAP
2800
3800
BF40
3800
3800
3800
3C00
1F40
ENDCHAR
STARTCHAR u
ENCODING 117
SWIDTH 568 0
DWIDTH 7 0
BBX 6 6 0 0
BITMAP
74B0
74B0
74B0
74B0
38F0
2EB0
ENDCHAR
STARTCHAR v
ENCODING 118
SWIDTH 523 0
DWIDTH 6 0
BBX 6 6 0 0
BITMAP
B0B0
74E0
39D0
2EC0
1F80
0F40
ENDCHAR
STARTCHAR w
ENCODING 119
SWIDTH 776 0
DWIDTH 9 0
BBX 9 6 0 0
BITMAP
B1E2C0
75E380
3AB740
3B7B40
2F2F00
1F2E00
ENDCHAR
STARTCHAR x
ENCODING 120
SWIDTH 514 0
DWIDTH 6 0
BBX 6 6 0 0
BITMAP
74E0
2EC0
1F40
1F40
3AC0
B5E0
ENDCHAR
STARTCHAR y
ENCODING 121
SWIDTH 521 0
DWIDTH 6 0
BBX 6 8 0 -2
BITMAP
B0B0
74E0
39D0
1EC0
0F80
0B00
0E00
7800
ENDCHAR
STARTCHAR z
ENCODING 122
SWIDTH 460 0
DWIDTH 6 0
BBX 6 6 0 0
BITMAP
7FC0
0780
0F40
2E00
7C00
BFD0
ENDCHAR
STARTCHAR braceleft
ENCODING 123
SWIDTH 344 0
DWIDTH 4 0
BBX 4 11 0 -2
BITMAP
1E
28
28
28
28
B4
28
28
28
28
1E
ENDCHAR
STARTCHAR bar
ENCODING 124
SWIDTH 268 0
DWIDTH 3 0
BBX 2 12 1 -3
BITMAP
D0
D0
D0
D0
D0
D0
D0
D0
D0
D0
D0
D0
ENDCHAR
STARTCHAR braceright
ENCODING 125
SWIDTH 344 0
DWIDTH 4 0
BBX 4 11 0 -2
BITMAP
74
28
28
28
2C
0E
2C
28
28
28
74
ENDCHAR
STARTCHAR asciitilde
ENCODING 126
SWIDTH 528 0
DWIDTH 6 0
BBX 6 2 0 3
BITMAP
2D60
66D0
ENDCHAR
STARTCHAR uni00A0
ENCODING 160
SWIDTH 208 0
DWIDTH 3 0
BBX 1 1 0 0
BITMAP
00
ENDCHAR
STARTCHAR exclamdown
ENCODING 161
SWIDTH 340 0
DWIDTH 4 0
BBX 2 9 1 -3
BITMAP
B0
B0
00
A0
A0
A0
B0
B0
50
ENDCHAR
STARTCHAR cent
ENCODING 162
SWIDTH 528 0
DWIDTH 6 0
BBX 6 7 0 0
BITMAP
0240
1BD0
3A40
7640
3A40
1BD0
0240
ENDCHAR
STARTCHAR sterling
ENCODING 163
SWIDTH 528 0
DWIDTH 6 0
BBX 6 8 0 0
BITMAP
0BE0
1D40
2C00
2D40
6E80
2D00
7FF0
7FF0
ENDCHAR
STARTCHAR currency
ENCODING 164
SWIDTH 528 0
DWIDTH 6 0
BBX 6 6 0 1
BITMAP
1010
7FE0
74E0
74E0
7FE0
1010
ENDCHAR
STARTCHAR yen
ENCODING 165
SWIDTH 528 0
DWIDTH 6 0
BBX 6 8 0 0
BITMAP
B0B0
74E0
2DC0
1F80
BFF0
5B50
6F90
0B00
ENDCHAR
STARTCHAR brokenbar
ENCODING 166
SWIDTH 268 0
DWIDTH 3 0
BBX 2 12 1 -3
BITMAP
D0
D0
D0
D0
D0
40
40
D0
D0
D0
D0
D0
ENDCHAR
STARTCHAR section
ENCODING 167
SWIDTH 528 0
DWIDTH 6 0
BBX 6 9 0 -1
BITMAP
1F80
3840
2E40
76D0
74A0
7EE0
0BC0
12C0
2F40
ENDCHAR
STARTCHAR dieresis
ENCODING 168
SWIDTH 555 0
DWIDTH 7 0
BBX 5 2 1 7
BITMAP
A340
A340
ENDCHAR
STARTCHAR copyright
ENCODING 169
SWIDTH 750 0
DWIDTH 9 0
BBX 9 8 0 0
BITMAP
07F400
291A00
62E240
5A1140
5A1140
62E200
291A00
07F400
ENDCHAR
STARTCHAR ordfeminine
ENCODING 170
SWIDTH 359 0
DWIDTH 4 0
BBX 4 5 0 4
BITMAP
7D
0A
2F
AB
7A
ENDCHAR
STARTCHAR guillemotleft
ENCODING 171
SWIDTH 480 0
DWIDTH 6 0
BBX 5 5 0 1
BITMAP
1880
3640
6300
3640
1880
ENDCHAR
STARTCHAR logicalnot
ENCODING 172
SWIDTH 528 0
DWIDTH 6 0
BBX 6 4 0 0
BITMAP
BFF0
0070
0070
0010
ENDCHAR
STARTCHAR uni00AD
ENCODING 173
SWIDTH 332 0
DWIDTH 4 0
BBX 4 1 0 3
BITMAP
7D
ENDCHAR
STARTCHAR registered
ENCODING 174
SWIDTH 462 0
DWIDTH 6 0
BBX 5 6 0 3
BITMAP
1E00
6180
9E80
9A80
6180
1E00
ENDCHAR
STARTCHAR macron
ENCODING 175
SWIDTH 555 0
DWIDTH 7 0
BBX 4 1 1 7
BITMAP
7F
ENDCHAR
STARTCHAR degree
ENCODING 176
SWIDTH 365 0
DWIDTH 4 0
BBX 4 3 0 5
BITMAP
3D
67
3D
ENDCHAR
STARTCHAR plusminus
ENCODING 177
SWIDTH 528 0
DWIDTH 6 0
BBX 6 7 0 0
BITMAP
0600
0600
BFF0
0600
0600
0000
BFF0
ENDCHAR
STARTCHAR two.sups
ENCODING 178
SWIDTH 376 0
DWIDTH 5 0
BBX 4 5 0 5
BITMAP
7D
1A
0A
2C
7F
ENDCHAR
STARTCHAR three.sups
ENCODING 179
SWIDTH 376 0
DWIDTH 5 0
BBX 4 5 0 5
BITMAP
2D
1A
1E
17
6E
ENDCHAR
STARTCHAR acute
ENCODING 180
SWIDTH 555 0
DWIDTH 7 0
BBX 3 3 3 7
BITMAP
20
B4
90
ENDCHAR
STARTCHAR uni00B5
ENCODING 181
SWIDTH 594 0
DWIDTH 7 0
BBX 7 8 0 -2
BITMAP
78B0
78B0
78B0
78B0
78F0
7F7C
7400
7800
ENDCHAR
STARTCHAR paragraph
ENCODING 182
SWIDTH 636 0
DWIDTH 8 0
BBX 7 9 0 -1
BITMAP
1F74
7F74
BF74
7F74
2F74
0574
0074
0074
0064
ENDCHAR
STARTCHAR periodcentered
ENCODING 183
SWIDTH 300 0
DWIDTH 4 0
BBX 2 2 1 3
BITMAP
E0
E0
ENDCHAR
STARTCHAR cedilla
ENCODING 184
SWIDTH 555 0
DWIDTH 7 0
BBX 3 4 2 -3
BITMAP
60
B4
34
E0
ENDCHAR
STARTCHAR one.sups
ENCODING 185
SWIDTH 376 0
DWIDTH 5 0
BBX 3 5 1 5
BITMAP
B4
34
34
34
34
ENDCHAR
STARTCHAR ordmasculine
ENCODING 186
SWIDTH 373 0
DWIDTH 4 0
BBX 4 5 0 4
BITMAP
2D
A7
A3
A7
2D
ENDCHAR
STARTCHAR guillemotright
ENCODING 187
SWIDTH 480 0
DWIDTH 6 0
BBX 5 5 1 1
BITMAP
8800
A600
7340
A600
8800
ENDCHAR
STARTCHAR onequarter
ENCODING 188
SWIDTH 809 0
DWIDTH 10 0
BBX 10 8 0 0
BITMAP
6C0900
1C1800
1C3000
1C63C0
1CCAC0
018DC0
031FE0
0901C0
ENDCHAR
STARTCHAR onehalf
ENCODING 189
SWIDTH 846 0
DWIDTH 10 0
BBX 10 8 0 0
BITMAP
6C0C00
1C2400
1C3000
1C9B80
1CC4D0
0241D0
060780
090BE0
ENDCHAR
STARTCHAR threequarters
ENCODING 190
SWIDTH 818 0
DWIDTH 10 0
BBX 10 8 0 0
BITMAP
6D0900
1A0C00
1D2400
5733C0
7D96C0
018DC0
025FE0
0600C0
ENDCHAR
STARTCHAR questiondown
ENCODING 191
SWIDTH 463 0
DWIDTH 6 0
BBX 5 8 0 -2
BITMAP
0E00
0E00
0000
0E00
2D00
7800
7540
2F80
ENDCHAR
STARTCHAR Agrave
ENCODING 192
SWIDTH 573 0
DWIDTH 7 0
BBX 7 11 0 0
BITMAP
0800
1E00
0600
0B80
0FC0
1DD0
2CE0
38F0
7FF4
B074
F038
ENDCHAR
STARTCHAR Aacute
ENCODING 193
SWIDTH 573 0
DWIDTH 7 0
BBX 7 11 0 0
BITMAP
0080
03D0
0200
0B80
0FC0
1DD0
2CE0
38F0
7FF4
B074
F038
ENDCHAR
STARTCHAR Acircumflex
ENCODING 194
SWIDTH 573 0
DWIDTH 7 0
BBX 7 10 0 0
BITMAP
0F80
1890
0B80
0FC0
1DD0
2CE0
38F0
7FF4
B074
F038
ENDCHAR
STARTCHAR Atilde
ENCODING 195
SWIDTH 573 0
DWIDTH 7 0
BBX 7 11 0 0
BITMAP
0050
1EA0
3540
0B80
0FC0
1DD0
2CE0
38F0
7FF4
B074
F038
ENDCHAR
STARTCHAR Adieresis
ENCODING 196
SWIDTH 573 0
DWIDTH 7 0
BBX 7 10 0 0
BITMAP
28D0
28D0
0B80
0FC0
1DD0
2CE0
38F0
7FF4
B074
F038
ENDCHAR
STARTCHAR Aring
ENCODING 197
SWIDTH 573 0
DWIDTH 7 0
BBX 7 11 0 0
BITMAP
0B40
0D80
0B40
0B80
0FC0
1DD0
2CE0
38F0
7FF4
B074
F038
ENDCHAR
STARTCHAR AE
ENCODING 198
SWIDTH 845 0
DWIDTH 10 0
BBX 10 8 0 0
BITMAP
02FFD0
03FFD0
0BB400
0E7400
2D7FC0
3FF400
747FE0
F07FE0
ENDCHAR
STARTCHAR Ccedilla
ENCODING 199
SWIDTH 582 0
DWIDTH 7 0
BBX 7 11 0 -3
BITMAP
07E0
2FF4
7D10
7400
7400
7D10
2FF8
0BE0
02C0
01D0
0380
ENDCHAR
STARTCHAR Egrave
ENCODING 200
SWIDTH 548 0
DWIDTH 7 0
BBX 5 11 1 0
BITMAP
2000
7800
1800
FF80
FF80
E000
E000
FF40
E000
FFC0
FFC0
ENDCHAR
STARTCHAR Eacute
ENCODING 201
SWIDTH 548 0
DWIDTH 7 0
BBX 5 11 1 0
BITMAP
0200
0F40
0800
FF80
FF80
E000
E000
FF40
E000
FFC0
FFC0
ENDCHAR
STARTCHAR Ecircumflex
ENCODING 202
SWIDTH 548 0
DWIDTH 7 0
BBX 5 10 1 0
BITMAP
2E00
6240
FF80
FF80
E000
E000
FF40
E000
FFC0
FFC0
ENDCHAR
STARTCHAR Edieresis
ENCODING 203
SWIDTH 548 0
DWIDTH 7 0
BBX 5 10 1 0
BITMAP
A340
A340
FF80
FF80
E000
E000
FF40
E000
FFC0
FFC0
ENDCHAR
STARTCHAR Igrave
ENCODING 204
SWIDTH 301 0
DWIDTH 4 0
BBX 3 11 0 0
BITMAP
90
F4
24
38
38
38
38
38
38
38
38
ENDCHAR
STARTCHAR Iacute
ENCODING 205
SWIDTH 301 0
DWIDTH 4 0
BBX 3 11 1 0
BITMAP
24
B8
90
E0
E0
E0
E0
E0
E0
E0
E0
ENDCHAR
STARTCHAR Icircumflex
ENCODING 206
SWIDTH 301 0
DWIDTH 4 0
BBX 4 10 0 0
BITMAP
BC
96
38
38
38
38
38
38
38
38
ENDCHAR
STARTCHAR Idieresis
ENCODING 207
SWIDTH 301 0
DWIDTH 4 0
BBX 5 10 -1 0
BITMAP
7280
7280
0E00
0E00
0E00
0E00
0E00
0E00
0E00
0E00
ENDCHAR
STARTCHAR Eth
ENCODING 208
SWIDTH 660 0
DWIDTH 8 0
BBX 8 8 0 0
BITMAP
2FD0
2FF8
2C7C
BF6D
2C2D
2C7C
2FF8
2FE0
ENDCHAR
STARTCHAR Ntilde
ENCODING 209
SWIDTH 665 0
DWIDTH 8 0
BBX 6 11 1 0
BITMAP
0040
2EC0
7140
F0B0
F8B0
FCB0
EEB0
EBB0
E3F0
E2F0
E0F0
ENDCHAR
STARTCHAR Ograve
ENCODING 210
SWIDTH 684 0
DWIDTH 8 0
BBX 8 11 0 0
BITMAP
0500
0B80
0180
0BE0
2FFC
7C2D
741E
741E
7C2D
2FFC
0BE0
ENDCHAR
STARTCHAR Oacute
ENCODING 211
SWIDTH 684 0
DWIDTH 8 0
BBX 8 11 0 0
BITMAP
0060
01E0
0180
0BE0
2FFC
7C2D
741E
741E
7C2D
2FFC
0BE0
ENDCHAR
STARTCHAR Ocircumflex
ENCODING 212
SWIDTH 684 0
DWIDTH 8 0
BBX 8 10 0 0
BITMAP
07D0
0960
0BE0
2FFC
7C2D
741E
741E
7C2D
2FFC
0BE0
ENDCHAR
STARTCHAR Otilde
ENCODING 213
SWIDTH 684 0
DWIDTH 8 0
BBX 8 11 0 0
BITMAP
0014
0BB4
1C50
0BE0
2FFC
7C2D
741E
741E
7C2D
2FFC
0BE0
ENDCHAR
STARTCHAR Odieresis
ENCODING 214
SWIDTH 684 0
DWIDTH 8 0
BBX 8 10 0 0
BITMAP
0D70
0D70
0BE0
2FFC
7C2D
741E
741E
7C2D
2FFC
0BE0
ENDCHAR
STARTCHAR multiply
ENCODING 215
SWIDTH 528 0
DWIDTH 6 0
BBX 5 5 1 1
BITMAP
8240
BB40
3D00
BB40
8240
ENDCHAR
STARTCHAR Oslash
ENCODING 216
SWIDTH 684 0
DWIDTH 8 0
BBX 8 8 0 0
BITMAP
0BEA
2FFD
78BD
76FE
7FDE
3F6D
3FFC
7BE0
ENDCHAR
STARTCHAR Ugrave
ENCODING 217
SWIDTH 665 0
DWIDTH 8 0
BBX 6 11 1 0
BITMAP
1400
2D00
0900
E0B0
E0B0
E0B0
E0B0
E0B0
F0F0
BFE0
2F80
ENDCHAR
STARTCHAR Uacute
ENCODING 218
SWIDTH 665 0
DWIDTH 8 0
BBX 6 11 1 0
BITMAP
0140
0780
0A00
E0B0
E0B0
E0B0
E0B0
E0B0
F0F0
BFE0
2F80
ENDCHAR
STARTCHAR Ucircumflex
ENCODING 219
SWIDTH 665 0
DWIDTH 8 0
BBX 6 10 1 0
BITMAP
1F40
2580
E0B0
E0B0
E0B0
E0B0
E0B0
F0F0
BFE0
2F80
ENDCHAR
STARTCHAR Udieresis
ENCODING 220
SWIDTH 665 0
DWIDTH 8 0
BBX 6 10 1 0
BITMAP
35C0
35C0
E0B0
E0B0
E0B0
E0B0
E0B0
F0F0
BFE0
2F80
ENDCHAR
STARTCHAR Yacute
ENCODING 221
SWIDTH 525 0
DWIDTH 6 0
BBX 6 11 0 0
BITMAP
0180
0780
0600
F0B0
74E0
39D0
1F80
0F40
0B00
0B00
0B00
ENDCHAR
STARTCHAR Thorn
ENCODING 222
SWIDTH 617 0
DWIDTH 7 0
BBX 6 8 1 0
BITMAP
E000
FF80
FFE0
E0E0
E1E0
FFD0
FF80
E000
ENDCHAR
STARTCHAR germandbls
ENCODING 223
SWIDTH 632 0
DWIDTH 8 0
BBX 8 9 0 0
BITMAP
1BD0
38B0
38B0
79E0
79D0
78F8
782D
782C
79F4
ENDCHAR
STARTCHAR agrave
ENCODING 224
SWIDTH 527 0
DWIDTH 6 0
BBX 6 10 0 0
BITMAP
1800
2D00
0600
0000
2F80
11D0
1BE0
79E0
75E0
2EE0
ENDCHAR
STARTCHAR aacute
ENCODING 225
SWIDTH 527 0
DWIDTH 6 0
BBX 6 10 0 0
BITMAP
0080
02D0
0200
0000
2F80
11D0
1BE0
79E0
75E0
2EE0
ENDCHAR
STARTCHAR acircumflex
ENCODING 226
SWIDTH 527 0
DWIDTH 6 0
BBX 6 9 0 0
BITMAP
0F80
2990
0000
2F80
11D0
1BE0
79E0
75E0
2EE0
ENDCHAR
STARTCHAR atilde
ENCODING 227
SWIDTH 527 0
DWIDTH 6 0
BBX 6 10 0 0
BITMAP
0050
1ED0
3540
0000
2F80
11D0
1BE0
79E0
75E0
2EE0
ENDCHAR
STARTCHAR adieresis
ENCODING 228
SWIDTH 527 0
DWIDTH 6 0
BBX 6 9 0 0
BITMAP
28D0
28D0
0000
2F80
11D0
1BE0
79E0
75E0
2EE0
ENDCHAR
STARTCHAR aring
ENCODING 229
SWIDTH 527 0
DWIDTH 6 0
BBX 6 9 0 0
BITMAP
0F80
0F80
0000
2F80
11D0
1BE0
79E0
75E0
2EE0
ENDCHAR
STARTCHAR ae
ENCODING 230
SWIDTH 786 0
DWIDTH 9 0
BBX 9 6 0 0
BITMAP
2F6E40
11E280
1BFFC0
79E000
75F000
2E6F40
ENDCHAR
STARTCHAR ccedilla
ENCODING 231
SWIDTH 467 0
DWIDTH 6 0
BBX 5 9 0 -3
BITMAP
1B80
3800
7400
7400
7840
1F80
0740
0340
0E00
ENDCHAR
STARTCHAR egrave
ENCODING 232
SWIDTH 518 0
DWIDTH 6 0
BBX 6 10 0 0
BITMAP
1800
2D00
0600
0000
1F80
74E0
7FE0
7400
7840
1BD0
ENDCHAR
STARTCHAR eacute
ENCODING 233
SWIDTH 518 0
DWIDTH 6 0
BBX 6 10 0 0
BITMAP
0080
03D0
0600
0000
1F80
74E0
7FE0
7400
7840
1BD0
ENDCHAR
STARTCHAR ecircumflex
ENCODING 234
SWIDTH 518 0
DWIDTH 6 0
BBX 6 9 0 0
BITMAP
1F80
2590
0000
1F80
74E0
7FE0
7400
7840
1BD0
ENDCHAR
STARTCHAR edieresis
ENCODING 235
SWIDTH 518 0
DWIDTH 6 0
BBX 6 9 0 0
BITMAP
28D0
28D0
0000
1F80
74E0
7FE0
7400
7840
1BD0
ENDCHAR
STARTCHAR igrave
ENCODING 236
SWIDTH 276 0
DWIDTH 3 0
BBX 4 10 -1 0
BITMAP
20
78
18
00
1E
1E
1E
1E
1E
1E
ENDCHAR
STARTCHAR iacute
ENCODING 237
SWIDTH 276 0
DWIDTH 3 0
BBX 4 10 0 0
BITMAP
09
2E
24
00
78
78
78
78
78
78
ENDCHAR
STARTCHAR icircumflex
ENCODING 238
SWIDTH 276 0
DWIDTH 3 0
BBX 5 9 -1 0
BITMAP
2F00
6280
0000
1E00
1E00
1E00
1E00
1E00
1E00
ENDCHAR
STARTCHAR idieresis
ENCODING 239
SWIDTH 276 0
DWIDTH 3 0
BBX 5 9 -1 0
BITMAP
7280
7280
0000
1E00
1E00
1E00
1E00
1E00
1E00
ENDCHAR
STARTCHAR eth
ENCODING 240
SWIDTH 560 0
DWIDTH 7 0
BBX 6 9 0 0
BITMAP
1960
0FD0
2F80
15E0
2FF0
74B0
70B0
74E0
1F80
ENDCHAR
STARTCHAR ntilde
ENCODING 241
SWIDTH 572 0
DWIDTH 7 0
BBX 6 10 0 0
BITMAP
0010
1FA0
1980
0000
7AD0
78B0
78B0
78B0
78B0
78B0
ENDCHAR
STARTCHAR ograve
ENCODING 242
SWIDTH 555 0
DWIDTH 7 0
BBX 6 10 0 0
BITMAP
1800
2E00
0600
0000
1B80
78E0
74B0
74B0
78E0
1F80
ENDCHAR
STARTCHAR oacute
ENCODING 243
SWIDTH 555 0
DWIDTH 7 0
BBX 6 10 0 0
BITMAP
0080
02D0
0200
0000
1B80
78E0
74B0
74B0
78E0
1F80
ENDCHAR
STARTCHAR ocircumflex
ENCODING 244
SWIDTH 555 0
DWIDTH 7 0
BBX 6 9 0 0
BITMAP
0F80
2890
0000
1B80
78E0
74B0
74B0
78E0
1F80
ENDCHAR
STARTCHAR otilde
ENCODING 245
SWIDTH 555 0
DWIDTH 7 0
BBX 6 10 0 0
BITMAP
0050
1E90
3540
0000
1B80
78E0
74B0
74B0
78E0
1F80
ENDCHAR
STARTCHAR odieresis
ENCODING 246
SWIDTH 555 0
DWIDTH 7 0
BBX 6 9 0 0
BITMAP
28D0
28D0
0000
1B80
78E0
74B0
74B0
78E0
1F80
ENDCHAR
STARTCHAR divide
ENCODING 247
SWIDTH 528 0
DWIDTH 6 0
BBX 6 6 0 1
BITMAP
0B00
0600
6AA0
6AA0
0600
0B00
ENDCHAR
STARTCHAR oslash
ENCODING 248
SWIDTH 555 0
DWIDTH 7 0
BBX 6 6 0 0
BITMAP
1BA0
79E0
76B0
79B0
7CA0
6F80
ENDCHAR
STARTCHAR ugrave
ENCODING 249
SWIDTH 568 0
DWIDTH 7 0
BBX 6 10 0 0
BITMAP
1800
1E00
0600
0000
74B0
74B0
74B0
74B0
38F0
2EB0
ENDCHAR
STARTCHAR uacute
ENCODING 250
SWIDTH 568 0
DWIDTH 7 0
BBX 6 10 0 0
BITMAP
0080
02D0
0240
0000
74B0
74B0
74B0
74B0
38F0
2EB0
ENDCHAR
STARTCHAR ucircumflex
ENCODING 251
SWIDTH 568 0
DWIDTH 7 0
BBX 6 9 0 0
BITMAP
0F80
2890
0000
74B0
74B0
74B0
74B0
38F0
2EB0
ENDCHAR
STARTCHAR udieresis
ENCODING 252
SWIDTH 568 0
DWIDTH 7 0
BBX 6 9 0 0
BITMAP
28D0
28D0
0000
74B0
74B0
74B0
74B0
38F0
2EB0
ENDCHAR
STARTCHAR yacute
ENCODING 253
SWIDTH 521 0
DWIDTH 6 0
BBX 6 12 0 -2
BITMAP
0180
03C0
0600
0000
B0B0
74E0
39D0
1EC0
0F80
0B00
0E00
7800
ENDCHAR
STARTCHAR thorn
ENCODING 254
SWIDTH 573 0
DWIDTH 7 0
BBX 7 11 0 -2
BITMAP
7800
7800
7800
7BD0
78B0
7874
7874
78B0
7BD0
7800
7800
ENDCHAR
STARTCHAR ydieresis
ENCODING 255
SWIDTH 521 0
DWIDTH 6 0
BBX 6 11 0 -2
BITMAP
29D0
29D0
0000
B0B0
74E0
39D0
1EC0
0F80
0B00
0E00
7800
ENDCHAR
STARTCHAR Amacron
ENCODING 256
SWIDTH 573 0
DWIDTH 7 0
BBX 7 10 0 0
BITMAP
1FD0
0000
0B80
0FC0
1DD0
2CE0
38F0
7FF4
B074
F038
ENDCHAR
STARTCHAR amacron
ENCODING 257
SWIDTH 527 0
DWIDTH 6 0
BBX 6 8 0 0
BITMAP
1FC0
0000
2F80
11D0
1BE0
79E0
75E0
2EE0
ENDCHAR
STARTCHAR Abreve
ENCODING 258
SWIDTH 573 0
DWIDTH 7 0
BBX 7 10 0 0
BITMAP
1890
0B80
0B80
0FC0
1DD0
2CE0
38F0
7FF4
B074
F038
ENDCHAR
STARTCHAR abreve
ENCODING 259
SWIDTH 527 0
DWIDTH 6 0
BBX 6 9 0 0
BITMAP
28D0
0B80
0000
2F80
11D0
1BE0
79E0
75E0
2EE0
ENDCHAR
STARTCHAR Aogonek
ENCODING 260
SWIDTH 573 0
DWIDTH 7 0
BBX 7 11 0 -3
BITMAP
0B80
0FC0
1DD0
2CE0
38F0
7FF4
B074
F038
0034
0070
003C
ENDCHAR
STARTCHAR aogonek
ENCODING 261
SWIDTH 527 0
DWIDTH 6 0
BBX 6 8 0 -2
BITMAP
2F80
11D0
1BE0
79E0
75E0
2EE0
0180
01E0
ENDCHAR
STARTCHAR Cacute
ENCODING 262
SWIDTH 582 0
DWIDTH 7 0
BBX 7 11 0 0
BITMAP
0060
01E0
0180
07E0
2FF4
7D10
7400
7400
7D10
2FF8
0BE0
ENDCHAR
STARTCHAR cacute
ENCODING 263
SWIDTH 467 0
DWIDTH 6 0
BBX 6 10 0 0
BITMAP
0090
02D0
0240
0000
1B80
3800
7400
7400
7840
1F80
ENDCHAR
STARTCHAR Ccircumflex
ENCODING 264
SWIDTH 582 0
DWIDTH 7 0
BBX 7 10 0 0
BITMAP
07D0
0960
07E0
2FF4
7D10
7400
7400
7D10
2FF8
0BE0
ENDCHAR
STARTCHAR ccircumflex
ENCODING 265
SWIDTH 467 0
DWIDTH 6 0
BBX 6 9 0 0
BITMAP
0B80
1890
0000
1B80
3800
7400
7400
7840
1F80
ENDCHAR
STARTCHAR Cdotaccent
ENCODING 266
SWIDTH 582 0
DWIDTH 7 0
BBX 7 10 0 0
BITMAP
02C0
02C0
07E0
2FF4
7D10
7400
7400
7D10
2FF8
0BE0
ENDCHAR
STARTCHAR cdotaccent
ENCODING 267
SWIDTH 467 0
DWIDTH 6 0
BBX 5 9 0 0
BITMAP
0740
0740
0000
1B80
3800
7400
7400
7840
1F80
ENDCHAR
STARTCHAR Ccaron
ENCODING 268
SWIDTH 582 0
DWIDTH 7 0
BBX 7 10 0 0
BITMAP
0960
07D0
07E0
2FF4
7D10
7400
7400
7D10
2FF8
0BE0
ENDCHAR
STARTCHAR ccaron
ENCODING 269
SWIDTH 467 0
DWIDTH 6 0
BBX 6 9 0 0
BITMAP
1890
0B80
0000
1B80
3800
7400
7400
7840
1F80
ENDCHAR
STARTCHAR Dcaron
ENCODING 270
SWIDTH 635 0
DWIDTH 8 0
BBX 6 10 1 0
BITMAP
2580
2F40
FE40
FFD0
E1F0
E0F0
E0F0
E1F0
FFD0
FE40
ENDCHAR
STARTCHAR dcaron
ENCODING 271
SWIDTH 614 0
DWIDTH 7 0
BBX 8 9 0 0
BITMAP
00BA
00B5
00B0
1FB0
78B0
74B0
74B0
78F0
1FB0
ENDCHAR
STARTCHAR Dcroat
ENCODING 272
SWIDTH 660 0
DWIDTH 8 0
BBX 8 8 0 0
BITMAP
2FD0
2FF8
2C7C
BF6D
2C2D
2C7C
2FF8
2FE0
ENDCHAR
STARTCHAR dcroat
ENCODING 273
SWIDTH 573 0
DWIDTH 7 0
BBX 7 9 0 0
BITMAP
00B0
07FC
00B0
1FB0
78F0
74B0
74B0
78F0
1FB0
ENDCHAR
STARTCHAR Emacron
ENCODING 274
SWIDTH 548 0
DWIDTH 7 0
BBX 5 10 1 0
BITMAP
7F40
0000
FF80
FF80
E000
E000
FF40
E000
FFC0
FFC0
ENDCHAR
STARTCHAR emacron
ENCODING 275
SWIDTH 518 0
DWIDTH 6 0
BBX 6 8 0 0
BITMAP
2FC0
0000
1F80
74E0
7FE0
7400
7840
1BD0
ENDCHAR
STARTCHAR Ebreve
ENCODING 276
SWIDTH 548 0
DWIDTH 7 0
BBX 5 10 1 0
BITMAP
6240
2E00
FF80
FF80
E000
E000
FF40
E000
FFC0
FFC0
ENDCHAR
STARTCHAR ebreve
ENCODING 277
SWIDTH 518 0
DWIDTH 6 0
BBX 6 9 0 0
BITMAP
28C0
1F80
0000
1F80
74E0
7FE0
7400
7840
1BD0
ENDCHAR
STARTCHAR Edotaccent
ENCODING 278
SWIDTH 548 0
DWIDTH 7 0
BBX 5 10 1 0
BITMAP
1D00
1D00
FF80
FF80
E000
E000
FF40
E000
FFC0
FFC0
ENDCHAR
STARTCHAR edotaccent
ENCODING 279
SWIDTH 518 0
DWIDTH 6 0
BBX 6 9 0 0
BITMAP
0B00
0B00
0000
1F80
74E0
7FE0
7400
7840
1BD0
ENDCHAR
STARTCHAR Eogonek
ENCODING 280
SWIDTH 548 0
DWIDTH 7 0
BBX 5 11 1 -3
BITMAP
FF80
FF80
E000
E000
FF40
E000
FFC0
FFC0
0340
0700
07C0
ENDCHAR
STARTCHAR eogonek
ENCODING 281
SWIDTH 518 0
DWIDTH 6 0
BBX 6 8 0 -2
BITMAP
1F80
74E0
7FE0
7400
7840
1BD0
0240
02D0
ENDCHAR
STARTCHAR Ecaron
ENCODING 282
SWIDTH 548 0
DWIDTH 7 0
BBX 5 10 1 0
BITMAP
6240
3E00
FF80
FF80
E000
E000
FF40
E000
FFC0
FFC0
ENDCHAR
STARTCHAR ecaron
ENCODING 283
SWIDTH 518 0
DWIDTH 6 0
BBX 6 9 0 0
BITMAP
2590
1F80
0000
1F80
74E0
7FE0
7400
7840
1BD0
ENDCHAR
STARTCHAR Gcircumflex
ENCODING 284
SWIDTH 638 0
DWIDTH 8 0
BBX 7 10 0 0
BITMAP
03E0
0624
07E0
2FF8
7D10
7400
74FC
7D2C
2FFC
0BE4
ENDCHAR
STARTCHAR gcircumflex
ENCODING 285
SWIDTH 534 0
DWIDTH 6 0
BBX 6 11 0 -2
BITMAP
0F80
2890
0000
2FF0
75D0
75D0
3F80
7400
3FE0
70B0
6F90
ENDCHAR
STARTCHAR Gbreve
ENCODING 286
SWIDTH 638 0
DWIDTH 8 0
BBX 7 10 0 0
BITMAP
0624
02E0
07E0
2FF8
7D10
7400
74FC
7D2C
2FFC
0BE4
ENDCHAR
STARTCHAR gbreve
ENCODING 287
SWIDTH 534 0
DWIDTH 6 0
BBX 6 11 0 -2
BITMAP
28D0
0B80
0000
2FF0
75D0
75D0
3F80
7400
3FE0
70B0
6F90
ENDCHAR
STARTCHAR Gdotaccent
ENCODING 288
SWIDTH 638 0
DWIDTH 8 0
BBX 7 10 0 0
BITMAP
01D0
01D0
07E0
2FF8
7D10
7400
74FC
7D2C
2FFC
0BE4
ENDCHAR
STARTCHAR gdotaccent
ENCODING 289
SWIDTH 534 0
DWIDTH 6 0
BBX 6 11 0 -2
BITMAP
0700
0700
0000
2FF0
75D0
75D0
3F80
7400
3FE0
70B0
6F90
ENDCHAR
STARTCHAR uni0122
ENCODING 290
SWIDTH 638 0
DWIDTH 8 0
BBX 7 11 0 -3
BITMAP
07E0
2FF8
7D10
7400
74FC
7D2C
2FFC
0BE4
01D0
00D0
0380
ENDCHAR
STARTCHAR uni0123
ENCODING 291
SWIDTH 534 0
DWIDTH 6 0
BBX 6 12 0 -2
BITMAP
0680
0A00
0700
0000
2FF0
75D0
75D0
3F80
7400
3FE0
70B0
6F90
ENDCHAR
STARTCHAR Hcircumflex
ENCODING 292
SWIDTH 674 0
DWIDTH 8 0
BBX 6 10 1 0
BITMAP
1F40
2580
E0B0
E0B0
E0B0
FFF0
FFF0
E0B0
E0B0
E0B0
ENDCHAR
STARTCHAR hcircumflex
ENCODING 293
SWIDTH 571 0
DWIDTH 7 0
BBX 7 11 -1 0
BITMAP
2F00
6240
1E00
1E00
1E00
1EB4
1E2C
1E2C
1E2C
1E2C
1E2C
ENDCHAR
STARTCHAR Hbar
ENCODING 294
SWIDTH 712 0
DWIDTH 9 0
BBX 9 8 0 0
BITMAP
3C1D00
BFFF40
3C1D00
3FFD00
3C1D00
3C1D00
3C1D00
3C1D00
ENDCHAR
STARTCHAR hbar
ENCODING 295
SWIDTH 571 0
DWIDTH 7 0
BBX 6 9 0 0
BITMAP
7800
FF80
7800
7A90
7DB0
78B0
78B0
78B0
78B0
ENDCHAR
STARTCHAR Itilde
ENCODING 296
SWIDTH 301 0
DWIDTH 4 0
BBX 5 11 -1 0
BITMAP
0040
3EC0
6540
0E00
0E00
0E00
0E00
0E00
0E00
0E00
0E00
ENDCHAR
STARTCHAR itilde
ENCODING 297
SWIDTH 276 0
DWIDTH 3 0
BBX 5 10 -1 0
BITMAP
0040
7A80
A600
0000
1E00
1E00
1E00
1E00
1E00
1E00
ENDCHAR
STARTCHAR Imacron
ENCODING 298
SWIDTH 301 0
DWIDTH 4 0
BBX 4 10 0 0
BITMAP
FE
00
38
38
38
38
38
38
38
38
ENDCHAR
STARTCHAR imacron
ENCODING 299
SWIDTH 276 0
DWIDTH 3 0
BBX 4 8 0 0
BITMAP
FD
00
78
78
78
78
78
78
ENDCHAR
STARTCHAR uni012C
ENCODING 300
SWIDTH 301 0
DWIDTH 4 0
BBX 4 10 0 0
BITMAP
C6
BD
38
38
38
38
38
38
38
38
ENDCHAR
STARTCHAR uni012D
ENCODING 301
SWIDTH 276 0
DWIDTH 3 0
BBX 5 9 -1 0
BITMAP
7280
2E00
0000
1E00
1E00
1E00
1E00
1E00
1E00
ENDCHAR
STARTCHAR Iogonek
ENCODING 302
SWIDTH 301 0
DWIDTH 4 0
BBX 3 11 0 -3
BITMAP
38
38
38
38
38
38
38
38
34
70
7C
ENDCHAR
STARTCHAR iogonek
ENCODING 303
SWIDTH 276 0
DWIDTH 3 0
BBX 3 11 0 -2
BITMAP
74
74
00
78
78
78
78
78
78
60
78
ENDCHAR
STARTCHAR Idotaccent
ENCODING 304
SWIDTH 301 0
DWIDTH 4 0
BBX 2 10 1 0
BITMAP
E0
E0
E0
E0
E0
E0
E0
E0
E0
E0
ENDCHAR
STARTCHAR dotlessi
ENCODING 305
SWIDTH 276 0
DWIDTH 3 0
BBX 3 6 0 0
BITMAP
78
78
78
78
78
78
ENDCHAR
STARTCHAR uni0132
ENCODING 306
SWIDTH 602 0
DWIDTH 7 0
BBX 6 10 1 -2
BITMAP
E1D0
E1D0
E1D0
E1D0
E1D0
E1D0
E1D0
E2D0
0BD0
0B80
ENDCHAR
STARTCHAR uni0133
ENCODING 307
SWIDTH 554 0
DWIDTH 7 0
BBX 6 11 0 -2
BITMAP
2490
78F0
0000
78F0
78F0
78F0
78F0
78F0
78F0
00E0
03D0
ENDCHAR
STARTCHAR Jcircumflex
ENCODING 308
SWIDTH 509 0
DWIDTH 6 0
BBX 6 10 0 0
BITMAP
03E0
0620
02D0
02D0
02D0
02D0
02D0
22D0
BFC0
2F40
ENDCHAR
STARTCHAR jcircumflex
ENCODING 309
SWIDTH 278 0
DWIDTH 3 0
BBX 5 11 -1 -2
BITMAP
2F00
6680
0000
1E00
1E00
1E00
1E00
1E00
1E00
1D00
7800
ENDCHAR
STARTCHAR uni0136
ENCODING 310
SWIDTH 614 0
DWIDTH 7 0
BBX 6 11 1 -3
BITMAP
E1E0
E3C0
EB40
FF00
FF40
F3C0
E1E0
E0B0
0A00
0700
1D00
ENDCHAR
STARTCHAR uni0137
ENCODING 311
SWIDTH 548 0
DWIDTH 7 0
BBX 7 12 0 -3
BITMAP
7800
7800
7800
78F0
7AC0
7F40
7FC0
79E0
78B4
0740
0280
0A40
ENDCHAR
STARTCHAR kgreenlandic
ENCODING 312
SWIDTH 548 0
DWIDTH 7 0
BBX 7 6 0 0
BITMAP
78F0
7AC0
7F40
7FC0
79E0
78B4
ENDCHAR
STARTCHAR Lacute
ENCODING 313
SWIDTH 518 0
DWIDTH 6 0
BBX 5 11 1 0
BITMAP
2400
B800
9000
E000
E000
E000
E000
E000
E000
FF80
FF80
ENDCHAR
STARTCHAR lacute
ENCODING 314
SWIDTH 286 0
DWIDTH 3 0
BBX 4 12 0 0
BITMAP
09
2D
24
78
78
78
78
78
78
78
38
2D
ENDCHAR
STARTCHAR uni013B
ENCODING 315
SWIDTH 518 0
DWIDTH 6 0
BBX 5 11 1 -3
BITMAP
E000
E000
E000
E000
E000
E000
FF80
FF80
1D00
0A00
2800
ENDCHAR
STARTCHAR uni013C
ENCODING 316
SWIDTH 286 0
DWIDTH 3 0
BBX 4 12 0 -3
BITMAP
78
78
78
78
78
78
78
38
2D
18
0D
38
ENDCHAR
STARTCHAR Lcaron
ENCODING 317
SWIDTH 518 0
DWIDTH 6 0
BBX 5 9 1 0
BITMAP
0240
E200
E000
E000
E000
E000
E000
FF80
FF80
ENDCHAR
STARTCHAR lcaron
ENCODING 318
SWIDTH 319 0
DWIDTH 4 0
BBX 4 9 0 0
BITMAP
7B
7B
78
78
78
78
78
38
2D
ENDCHAR
STARTCHAR Ldot
ENCODING 319
SWIDTH 518 0
DWIDTH 6 0
BBX 5 8 1 0
BITMAP
E000
E000
E000
E380
E380
E000
FF80
FF80
ENDCHAR
STARTCHAR ldot
ENCODING 320
SWIDTH 453 0
DWIDTH 5 0
BBX 6 9 0 0
BITMAP
7800
7800
7800
7800
79D0
79D0
7800
3800
2D00
ENDCHAR
STARTCHAR Lslash
ENCODING 321
SWIDTH 524 0
DWIDTH 6 0
BBX 6 8 0 0
BITMAP
3800
3800
3980
3F80
B800
7800
3FF0
3FF0
ENDCHAR
STARTCHAR lslash
ENCODING 322
SWIDTH 303 0
DWIDTH 4 0
BBX 4 9 0 0
BITMAP
38
38
38
3E
B8
78
38
38
2D
ENDCHAR
STARTCHAR Nacute
ENCODING 323
SWIDTH 665 0
DWIDTH 8 0
BBX 6 11 1 0
BITMAP
0140
0780
0600
F0B0
F8B0
FCB0
EEB0
EBB0
E3F0
E2F0
E0F0
ENDCHAR
STARTCHAR nacute
ENCODING 324
SWIDTH 572 0
DWIDTH 7 0
BBX 6 10 0 0
BITMAP
0090
01E0
0240
0000
7AD0
78B0
78B0
78B0
78B0
78B0
ENDCHAR
STARTCHAR uni0145
ENCODING 325
SWIDTH 665 0
DWIDTH 8 0
BBX 6 11 1 -3
BITMAP
F0B0
F8B0
FCB0
EEB0
EBB0
E3F0
E2F0
E0F0
0A00
0740
1E00
ENDCHAR
STARTCHAR uni0146
ENCODING 326
SWIDTH 572 0
DWIDTH 7 0
BBX 6 9 0 -3
BITMAP
7AD0
78B0
78B0
78B0
78B0
78B0
0740
0280
0A00
ENDCHAR
STARTCHAR Ncaron
ENCODING 327
SWIDTH 665 0
DWIDTH 8 0
BBX 6 10 1 0
BITMAP
2580
1F40
F0B0
F8B0
FCB0
EEB0
EBB0
E3F0
E2F0
E0F0
ENDCHAR
STARTCHAR ncaron
ENCODING 328
SWIDTH 572 0
DWIDTH 7 0
BBX 6 9 0 0
BITMAP
19A0
0BC0
0000
7AD0
78B0
78B0
78B0
78B0
78B0
ENDCHAR
STARTCHAR napostrophe
ENCODING 329
SWIDTH 852 0
DWIDTH 10 0
BBX 9 8 1 0
BITMAP
E00000
F00000
63AE00
93D740
03C740
03C740
03C740
03C740
ENDCHAR
STARTCHAR uni014A
ENCODING 330
SWIDTH 666 0
DWIDTH 8 0
BBX 7 8 1 0
BITMAP
EBD0
FFF0
E0B4
E074
E074
E0B4
E3F0
E3D0
ENDCHAR
STARTCHAR uni014B
ENCODING 331
SWIDTH 572 0
DWIDTH 7 0
BBX 6 8 0 -2
BITMAP
76E0
78B0
78B0
78B0
78B0
78B0
00B0
03D0
ENDCHAR
STARTCHAR Omacron
ENCODING 332
SWIDTH 684 0
DWIDTH 8 0
BBX 8 10 0 0
BITMAP
0BF0
0000
0BE0
2FFC
7C2D
741E
741E
7C2D
2FFC
0BE0
ENDCHAR
STARTCHAR omacron
ENCODING 333
SWIDTH 555 0
DWIDTH 7 0
BBX 6 8 0 0
BITMAP
1FC0
0000
1B80
78E0
74B0
74B0
78E0
1F80
ENDCHAR
STARTCHAR uni014E
ENCODING 334
SWIDTH 684 0
DWIDTH 8 0
BBX 8 10 0 0
BITMAP
0970
07D0
0BE0
2FFC
7C2D
741E
741E
7C2D
2FFC
0BE0
ENDCHAR
STARTCHAR uni014F
ENCODING 335
SWIDTH 555 0
DWIDTH 7 0
BBX 6 9 0 0
BITMAP
28D0
0B80
0000
1B80
78E0
74B0
74B0
78E0
1F80
ENDCHAR
STARTCHAR Ohungarumlaut
ENCODING 336
SWIDTH 684 0
DWIDTH 8 0
BBX 8 10 0 0
BITMAP
0258
0624
0BE0
2FFC
7C2D
741E
741E
7C2D
2FFC
0BE0
ENDCHAR
STARTCHAR ohungarumlaut
ENCODING 337
SWIDTH 555 0
DWIDTH 7 0
BBX 6 9 0 0
BITMAP
0670
09D0
0000
1B80
78E0
74B0
74B0
78E0
1F80
ENDCHAR
STARTCHAR OE
ENCODING 338
SWIDTH 871 0
DWIDTH 10 0
BBX 10 8 0 0
BITMAP
0BFFE0
2FFFE0
7D3800
743800
743FD0
7D3800
2FFFE0
0BFFE0
ENDCHAR
STARTCHAR oe
ENCODING 339
SWIDTH 822 0
DWIDTH 10 0
BBX 10 6 0 0
BITMAP
1F9F80
78F1D0
74BFD0
74B000
78F440
1F9F80
ENDCHAR
STARTCHAR Racute
ENCODING 340
SWIDTH 613 0
DWIDTH 7 0
BBX 6 11 1 0
BITMAP
0240
0B40
0900
FF80
FFE0
E1E0
E1E0
FF80
E380
E2D0
E0F0
ENDCHAR
STARTCHAR racute
ENCODING 341
SWIDTH 398 0
DWIDTH 5 0
BBX 5 10 0 0
BITMAP
0180
0780
0600
0000
7780
7F80
7800
7800
7800
7800
ENDCHAR
STARTCHAR uni0156
ENCODING 342
SWIDTH 613 0
DWIDTH 7 0
BBX 6 11 1 -3
BITMAP
FF80
FFE0
E1E0
E1E0
FF80
E380
E2D0
E0F0
0A00
0700
1D00
ENDCHAR
STARTCHAR uni0157
ENCODING 343
SWIDTH 398 0
DWIDTH 5 0
BBX 5 9 0 -3
BITMAP
7780
7F80
7800
7800
7800
7800
3400
2800
A400
ENDCHAR
STARTCHAR Rcaron
ENCODING 344
SWIDTH 613 0
DWIDTH 7 0
BBX 6 10 1 0
BITMAP
2240
2F00
FF80
FFE0
E1E0
E1E0
FF80
E380
E2D0
E0F0
ENDCHAR
STARTCHAR rcaron
ENCODING 345
SWIDTH 398 0
DWIDTH 5 0
BBX 5 9 0 0
BITMAP
2580
1F40
0000
7780
7F80
7800
7800
7800
7800
ENDCHAR
STARTCHAR Sacute
ENCODING 346
SWIDTH 556 0
DWIDTH 7 0
BBX 7 11 0 0
BITMAP
0080
03D0
0240
1B90
3FE0
7850
2F80
07F0
24B4
7FF0
1F90
ENDCHAR
STARTCHAR sacute
ENCODING 347
SWIDTH 443 0
DWIDTH 5 0
BBX 5 10 0 0
BITMAP
0240
0780
0A00
0000
2F80
7540
7E00
1B80
12C0
7F40
ENDCHAR
STARTCHAR Scircumflex
ENCODING 348
SWIDTH 556 0
DWIDTH 7 0
BBX 7 10 0 0
BITMAP
0B80
1890
1B90
3FE0
7850
2F80
07F0
24B4
7FF0
1F90
ENDCHAR
STARTCHAR scircumflex
ENCODING 349
SWIDTH 443 0
DWIDTH 5 0
BBX 5 9 0 0
BITMAP
2F40
2580
0000
2F80
7540
7E00
1B80
12C0
7F40
ENDCHAR
STARTCHAR uni015E
ENCODING 350
SWIDTH 556 0
DWIDTH 7 0
BBX 7 11 0 -3
BITMAP
1B90
3FE0
7850
2F80
07F0
24B4
7FF0
1F90
0B40
0340
0E00
ENDCHAR
STARTCHAR uni015F
ENCODING 351
SWIDTH 443 0
DWIDTH 5 0
BBX 5 9 0 -3
BITMAP
2F80
7540
7E00
1B80
12C0
7F40
0E00
0B00
1D00
ENDCHAR
STARTCHAR Scaron
ENCODING 352
SWIDTH 556 0
DWIDTH 7 0
BBX 7 10 0 0
BITMAP
1890
0B80
1B90
3FE0
7850
2F80
07F0
24B4
7FF0
1F90
ENDCHAR
STARTCHAR scaron
ENCODING 353
SWIDTH 443 0
DWIDTH 5 0
BBX 5 9 0 0
BITMAP
2580
2F40
0000
2F80
7540
7E00
1B80
12C0
7F40
ENDCHAR
STARTCHAR uni0162
ENCODING 354
SWIDTH 556 0
DWIDTH 7 0
BBX 7 11 0 -3
BITMAP
BFF4
BFF4
0B40
0B40
0B40
0B40
0B40
0B40
0B40
0340
0E00
ENDCHAR
STARTCHAR uni0163
ENCODING 355
SWIDTH 383 0
DWIDTH 5 0
BBX 5 11 0 -3
BITMAP
2800
3800
BF40
3800
3800
3800
3C00
1F40
0E00
0700
1D00
ENDCHAR
STARTCHAR Tcaron
ENCODING 356
SWIDTH 556 0
DWIDTH 7 0
BBX 7 10 0 0
BITMAP
1880
0F80
BFF4
BFF4
0B40
0B40
0B40
0B40
0B40
0B40
ENDCHAR
STARTCHAR tcaron
ENCODING 357
SWIDTH 383 0
DWIDTH 5 0
BBX 5 9 0 0
BITMAP
0240
2A40
3800
BF40
3800
3800
3800
3C00
1F40
ENDCHAR
STARTCHAR uni0166
ENCODING 358
SWIDTH 556 0
DWIDTH 7 0
BBX 7 8 0 0
BITMAP
BFF4
6FF4
0B40
0B40
3FE0
0B40
0B40
0B40
ENDCHAR
STARTCHAR uni0167
ENCODING 359
SWIDTH 383 0
DWIDTH 5 0
BBX 5 8 0 0
BITMAP
2800
3800
BF40
3800
BF40
3800
3C00
1F40
ENDCHAR
STARTCHAR Utilde
ENCODING 360
SWIDTH 665 0
DWIDTH 8 0
BBX 6 11 1 0
BITMAP
0040
2EC0
6140
E0B0
E0B0
E0B0
E0B0
E0B0
F0F0
BFE0
2F80
ENDCHAR
STARTCHAR utilde
ENCODING 361
SWIDTH 568 0
DWIDTH 7 0
BBX 6 10 0 0
BITMAP
0050
1EA0
2540
0000
74B0
74B0
74B0
74B0
38F0
2EB0
ENDCHAR
STARTCHAR Umacron
ENCODING 362
SWIDTH 665 0
DWIDTH 8 0
BBX 6 10 1 0
BITMAP
2F80
0000
E0B0
E0B0
E0B0
E0B0
E0B0
F0F0
BFE0
2F80
ENDCHAR
STARTCHAR umacron
ENCODING 363
SWIDTH 568 0
DWIDTH 7 0
BBX 6 8 0 0
BITMAP
1FD0
0000
74B0
74B0
74B0
74B0
38F0
2EB0
ENDCHAR
STARTCHAR Ubreve
ENCODING 364
SWIDTH 665 0
DWIDTH 8 0
BBX 6 10 1 0
BITMAP
2580
1F40
E0B0
E0B0
E0B0
E0B0
E0B0
F0F0
BFE0
2F80
ENDCHAR
STARTCHAR ubreve
ENCODING 365
SWIDTH 568 0
DWIDTH 7 0
BBX 6 9 0 0
BITMAP
2890
0B80
0000
74B0
74B0
74B0
74B0
38F0
2EB0
ENDCHAR
STARTCHAR Uring
ENCODING 366
SWIDTH 665 0
DWIDTH 8 0
BBX 6 11 1 0
BITMAP
0F00
1A40
0F00
E0B0
E0B0
E0B0
E0B0
E0B0
F0F0
BFE0
2F80
ENDCHAR
STARTCHAR uring
ENCODING 367
SWIDTH 568 0
DWIDTH 7 0
BBX 6 9 0 0
BITMAP
0B80
0B80
0000
74B0
74B0
74B0
74B0
38F0
2EB0
ENDCHAR
STARTCHAR Uhungarumlaut
ENCODING 368
SWIDTH 665 0
DWIDTH 8 0
BBX 6 10 1 0
BITMAP
09A0
1880
E0B0
E0B0
E0B0
E0B0
E0B0
F0F0
BFE0
2F80
ENDCHAR
STARTCHAR uhungarumlaut
ENCODING 369
SWIDTH 568 0
DWIDTH 7 0
BBX 6 10 0 0
BITMAP
0010
0670
0990
0000
74B0
74B0
74B0
74B0
38F0
2EB0
ENDCHAR
STARTCHAR Uogonek
ENCODING 370
SWIDTH 665 0
DWIDTH 8 0
BBX 6 11 1 -3
BITMAP
E0B0
E0B0
E0B0
E0B0
E0B0
F0F0
BFE0
2F80
0A00
0D00
0B40
ENDCHAR
STARTCHAR uogonek
ENCODING 371
SWIDTH 568 0
DWIDTH 7 0
BBX 6 8 0 -2
BITMAP
74B0
74B0
74B0
74B0
38F0
2EB0
00D0
00F0
ENDCHAR
STARTCHAR Wcircumflex
ENCODING 372
SWIDTH 813 0
DWIDTH 10 0
BBX 10 10 0 0
BITMAP
01F400
025800
B0E0E0
B4F1D0
75F5C0
76B6C0
3AAA80
2B6F80
2F1F40
1F0F40
ENDCHAR
STARTCHAR wcircumflex
ENCODING 373
SWIDTH 776 0
DWIDTH 9 0
BBX 9 9 0 0
BITMAP
02F000
062800
000000
B1E2C0
75E380
3AB740
3B7B40
2F2F00
1F2E00
ENDCHAR
STARTCHAR Ycircumflex
ENCODING 374
SWIDTH 525 0
DWIDTH 6 0
BBX 6 10 0 0
BITMAP
1F40
2580
F0B0
74E0
39D0
1F80
0F40
0B00
0B00
0B00
ENDCHAR
STARTCHAR ycircumflex
ENCODING 375
SWIDTH 521 0
DWIDTH 6 0
BBX 6 11 0 -2
BITMAP
1F80
2580
0000
B0B0
74E0
39D0
1EC0
0F80
0B00
0E00
7800
ENDCHAR
STARTCHAR Ydieresis
ENCODING 376
SWIDTH 525 0
DWIDTH 6 0
BBX 6 10 0 0
BITMAP
25C0
25C0
F0B0
74E0
39D0
1F80
0F40
0B00
0B00
0B00
ENDCHAR
STARTCHAR Zacute
ENCODING 377
SWIDTH 541 0
DWIDTH 6 0
BBX 6 11 0 0
BITMAP
0080
03D0
0200
7FF0
7FF0
02E0
0780
1F00
7C00
BFF0
BFF0
ENDCHAR
STARTCHAR zacute
ENCODING 378
SWIDTH 460 0
DWIDTH 6 0
BBX 6 10 0 0
BITMAP
0180
0780
0600
0000
7FC0
0780
0F40
2E00
7C00
BFD0
ENDCHAR
STARTCHAR Zdotaccent
ENCODING 379
SWIDTH 541 0
DWIDTH 6 0
BBX 6 10 0 0
BITMAP
0740
0740
7FF0
7FF0
02E0
0780
1F00
7C00
BFF0
BFF0
ENDCHAR
STARTCHAR zdotaccent
ENCODING 380
SWIDTH 460 0
DWIDTH 6 0
BBX 6 9 0 0
BITMAP
0A00
0A00
0000
7FC0
0780
0F40
2E00
7C00
BFD0
ENDCHAR
STARTCHAR Zcaron
ENCODING 381
SWIDTH 541 0
DWIDTH 6 0
BBX 6 10 0 0
BITMAP
1890
0F80
7FF0
7FF0
02E0
0780
1F00
7C00
BFF0
BFF0
ENDCHAR
STARTCHAR zcaron
ENCODING 382
SWIDTH 460 0
DWIDTH 6 0
BBX 6 9 0 0
BITMAP
2580
1F40
0000
7FC0
0780
0F40
2E00
7C00
BFD0
ENDCHAR
STARTCHAR uni0180
ENCODING 384
SWIDTH 571 0
DWIDTH 7 0
BBX 7 9 0 0
BITMAP
7800
FF80
7800
7BD0
78B0
7874
7874
78B0
7BD0
ENDCHAR
STARTCHAR uni018F
ENCODING 399
SWIDTH 675 0
DWIDTH 8 0
BBX 8 8 0 0
BITMAP
0BE0
1FFC
042D
001D
7FFD
782D
2FFC
0BE0
ENDCHAR
STARTCHAR uni0192
ENCODING 402
SWIDTH 528 0
DWIDTH 6 0
BBX 6 9 0 -1
BITMAP
02E0
0740
0B00
2FD0
0B00
0E00
0E00
1D00
B800
ENDCHAR
STARTCHAR uni0193
ENCODING 403
SWIDTH 638 0
DWIDTH 8 0
BBX 8 10 0 0
BITMAP
001E
0038
07F8
2FF8
7D10
7400
74FC
7D2C
2FFC
0BE4
ENDCHAR
STARTCHAR Ohorn
ENCODING 416
SWIDTH 684 0
DWIDTH 8 0
BBX 8 10 0 0
BITMAP
0001
000B
0BEA
2FFC
7C2D
741E
741E
7C2D
2FFC
0BE0
ENDCHAR
STARTCHAR ohorn
ENCODING 417
SWIDTH 555 0
DWIDTH 7 0
BBX 7 8 0 0
BITMAP
0028
0028
1BE0
78F0
74B0
74B0
78E0
1F80
ENDCHAR
STARTCHAR Uhorn
ENCODING 431
SWIDTH 683 0
DWIDTH 8 0
BBX 8 10 1 0
BITMAP
000A
000E
E0B8
E0B0
E0B0
E0B0
E0B0
F0F0
BFE0
2F80
ENDCHAR
STARTCHAR uhorn
ENCODING 432
SWIDTH 568 0
DWIDTH 7 0
BBX 8 8 0 0
BITMAP
001D
001C
74B8
74B0
74B0
74B0
38F0
2EB0
ENDCHAR
STARTCHAR uni01C2
ENCODING 450
SWIDTH 330 0
DWIDTH 4 0
BBX 4 12 0 -3
BITMAP
28
28
28
28
FF
28
FF
28
28
28
28
14
ENDCHAR
STARTCHAR uni01CD
ENCODING 461
SWIDTH 573 0
DWIDTH 7 0
BBX 7 10 0 0
BITMAP
1890
0F80
0B80
0FC0
1DD0
2CE0
38F0
7FF4
B074
F038
ENDCHAR
STARTCHAR uni01CE
ENCODING 462
SWIDTH 527 0
DWIDTH 6 0
BBX 6 9 0 0
BITMAP
2990
0F80
0000
2F80
11D0
1BE0
79E0
75E0
2EE0
ENDCHAR
STARTCHAR uni01CF
ENCODING 463
SWIDTH 301 0
DWIDTH 4 0
BBX 4 10 0 0
BITMAP
96
BC
38
38
38
38
38
38
38
38
ENDCHAR
STARTCHAR uni01D0
ENCODING 464
SWIDTH 276 0
DWIDTH 3 0
BBX 5 9 -1 0
BITMAP
6280
2F00
0000
1E00
1E00
1E00
1E00
1E00
1E00
ENDCHAR
STARTCHAR uni01D1
ENCODING 465
SWIDTH 684 0
DWIDTH 8 0
BBX 8 10 0 0
BITMAP
0960
07D0
0BE0
2FFC
7C2D
741E
741E
7C2D
2FFC
0BE0
ENDCHAR
STARTCHAR uni01D2
ENCODING 466
SWIDTH 555 0
DWIDTH 7 0
BBX 6 9 0 0
BITMAP
2890
0F80
0000
1B80
78E0
74B0
74B0
78E0
1F80
ENDCHAR
STARTCHAR uni01D3
ENCODING 467
SWIDTH 665 0
DWIDTH 8 0
BBX 6 10 1 0
BITMAP
2580
1F40
E0B0
E0B0
E0B0
E0B0
E0B0
F0F0
BFE0
2F80
ENDCHAR
STARTCHAR uni01D4
ENCODING 468
SWIDTH 568 0
DWIDTH 7 0
BBX 6 9 0 0
BITMAP
2890
0F80
0000
74B0
74B0
74B0
74B0
38F0
2EB0
ENDCHAR
STARTCHAR uni01D5
ENCODING 469
SWIDTH 665 0
DWIDTH 8 0
BBX 6 12 1 0
BITMAP
2F80
0000
2580
0000
E0B0
E0B0
E0B0
E0B0
E0B0
F0F0
BFE0
2F80
ENDCHAR
STARTCHAR uni01D6
ENCODING 470
SWIDTH 568 0
DWIDTH 7 0
BBX 6 10 0 0
BITMAP
1FD0
0000
1890
0000
74B0
74B0
74B0
74B0
38F0
2EB0
ENDCHAR
STARTCHAR uni01D7
ENCODING 471
SWIDTH 665 0
DWIDTH 8 0
BBX 6 12 1 0
BITMAP
0240
0600
2580
0000
E0B0
E0B0
E0B0
E0B0
E0B0
F0F0
BFE0
2F80
ENDCHAR
STARTCHAR uni01D8
ENCODING 472
SWIDTH 568 0
DWIDTH 7 0
BBX 6 11 0 0
BITMAP
0100
0340
0100
1890
0000
74B0
74B0
74B0
74B0
38F0
2EB0
ENDCHAR
STARTCHAR uni01D9
ENCODING 473
SWIDTH 665 0
DWIDTH 8 0
BBX 6 14 1 0
BITMAP
1040
2A80
0F00
0000
2580
0000
E0B0
E0B0
E0B0
E0B0
E0B0
F0F0
BFE0
2F80
ENDCHAR
STARTCHAR uni01DA
ENCODING 474
SWIDTH 568 0
DWIDTH 7 0
BBX 6 12 0 0
BITMAP
0440
0DC0
0B40
0000
1890
0000
74B0
74B0
74B0
74B0
38F0
2EB0
ENDCHAR
STARTCHAR uni01DB
ENCODING 475
SWIDTH 665 0
DWIDTH 8 0
BBX 6 12 1 0
BITMAP
1800
0900
2580
0000
E0B0
E0B0
E0B0
E0B0
E0B0
F0F0
BFE0
2F80
ENDCHAR
STARTCHAR uni01DC
ENCODING 476
SWIDTH 568 0
DWIDTH 7 0
BBX 6 11 0 0
BITMAP
0900
0200
0000
1890
0000
74B0
74B0
74B0
74B0
38F0
2EB0
ENDCHAR
STARTCHAR uni01E2
ENCODING 482
SWIDTH 845 0
DWIDTH 10 0
BBX 10 10 0 0
BITMAP
007F40
000000
02FFD0
03FFD0
0BB400
0E7400
2D7FC0
3FF400
747FE0
F07FE0
ENDCHAR
STARTCHAR uni01E3
ENCODING 483
SWIDTH 786 0
DWIDTH 9 0
BBX 9 8 0 0
BITMAP
03F800
000000
2F6E40
11E280
1BFFC0
79E000
75F000
2E6F40
ENDCHAR
STARTCHAR Gcaron
ENCODING 486
SWIDTH 638 0
DWIDTH 8 0
BBX 7 10 0 0
BITMAP
0624
03E0
07E0
2FF8
7D10
7400
74FC
7D2C
2FFC
0BE4
ENDCHAR
STARTCHAR gcaron
ENCODING 487
SWIDTH 534 0
DWIDTH 6 0
BBX 6 11 0 -2
BITMAP
2890
0F80
0000
2FF0
75D0
75D0
3F80
7400
3FE0
70B0
6F90
ENDCHAR
STARTCHAR uni01EA
ENCODING 490
SWIDTH 684 0
DWIDTH 8 0
BBX 8 11 0 -3
BITMAP
0BE0
2FFC
7C2D
741E
741E
7C2D
2FFC
0BE0
0280
0340
02D0
ENDCHAR
STARTCHAR uni01EB
ENCODING 491
SWIDTH 555 0
DWIDTH 7 0
BBX 6 8 0 -2
BITMAP
1B80
78E0
74B0
74B0
78E0
1F80
0600
0780
ENDCHAR
STARTCHAR uni01F4
ENCODING 500
SWIDTH 638 0
DWIDTH 8 0
BBX 7 11 0 0
BITMAP
0020
00F4
0080
07E0
2FF8
7D10
7400
74FC
7D2C
2FFC
0BE4
ENDCHAR
STARTCHAR uni01F5
ENCODING 501
SWIDTH 534 0
DWIDTH 6 0
BBX 6 12 0 -2
BITMAP
0080
02D0
0240
0000
2FF0
75D0
75D0
3F80
7400
3FE0
70B0
6F90
ENDCHAR
STARTCHAR uni01F8
ENCODING 504
SWIDTH 665 0
DWIDTH 8 0
BBX 6 11 1 0
BITMAP
1400
2D00
0900
F0B0
F8B0
FCB0
EEB0
EBB0
E3F0
E2F0
E0F0
ENDCHAR
STARTCHAR uni01F9
ENCODING 505
SWIDTH 572 0
DWIDTH 7 0
BBX 6 10 0 0
BITMAP
0800
1E00
0200
0000
7AD0
78B0
78B0
78B0
78B0
78B0
ENDCHAR
STARTCHAR uni01FC
ENCODING 508
SWIDTH 845 0
DWIDTH 10 0
BBX 10 11 0 0
BITMAP
000200
000F40
000800
02FFD0
03FFD0
0BB400
0E7400
2D7FC0
3FF400
747FE0
F07FE0
ENDCHAR
STARTCHAR uni01FD
ENCODING 509
SWIDTH 786 0
DWIDTH 9 0
BBX 9 10 0 0
BITMAP
001800
007800
006000
000000
2F6E40
11E280
1BFFC0
79E000
75F000
2E6F40
ENDCHAR
STARTCHAR uni0218
ENCODING 536
SWIDTH 556 0
DWIDTH 7 0
BBX 7 11 0 -3
BITMAP
1B90
3FE0
7850
2F80
07F0
24B4
7FF0
1F90
0740
0340
0E00
ENDCHAR
STARTCHAR uni0219
ENCODING 537
SWIDTH 443 0
DWIDTH 5 0
BBX 5 9 0 -3
BITMAP
2F80
7540
7E00
1B80
12C0
7F40
0D00
0B00
1D00
ENDCHAR
STARTCHAR uni021A
ENCODING 538
SWIDTH 556 0
DWIDTH 7 0
BBX 7 11 0 -3
BITMAP
BFF4
BFF4
0B40
0B40
0B40
0B40
0B40
0B40
0640
0340
0E00
ENDCHAR
STARTCHAR uni021B
ENCODING 539
SWIDTH 383 0
DWIDTH 5 0
BBX 5 11 0 -3
BITMAP
2800
3800
BF40
3800
3800
3800
3C00
1F40
0E00
0B00
1D00
ENDCHAR
STARTCHAR uni0237
ENCODING 567
SWIDTH 278 0
DWIDTH 3 0
BBX 4 8 -1 -2
BITMAP
1E
1E
1E
1E
1E
1E
1D
78
ENDCHAR
STARTCHAR uni0243
ENCODING 579
SWIDTH 628 0
DWIDTH 8 0
BBX 7 8 0 0
BITMAP
2FE0
2C78
2C38
2EB4
2EB8
7E6C
2C6C
2FE4
ENDCHAR
STARTCHAR uni0250
ENCODING 592
SWIDTH 534 0
DWIDTH 6 0
BBX 6 6 0 0
BITMAP
7BD0
78E0
75E0
7E40
3840
1FD0
ENDCHAR
STARTCHAR uni0251
ENCODING 593
SWIDTH 573 0
DWIDTH 7 0
BBX 6 6 0 0
BITMAP
1FB0
38F0
74B0
74B0
78F0
1FB0
ENDCHAR
STARTCHAR uni0252
ENCODING 594
SWIDTH 573 0
DWIDTH 7 0
BBX 7 6 0 0
BITMAP
7BD0
78B0
7874
7874
78B0
7BD0
ENDCHAR
STARTCHAR uni0253
ENCODING 595
SWIDTH 573 0
DWIDTH 7 0
BBX 7 9 0 0
BITMAP
1F40
3800
7800
7BD0
78B0
7874
7874
78B0
77D0
ENDCHAR
STARTCHAR uni0254
ENCODING 596
SWIDTH 467 0
DWIDTH 6 0
BBX 5 6 0 0
BITMAP
7E00
0380
02C0
02C0
0780
7E00
ENDCHAR
STARTCHAR uni0255
ENCODING 597
SWIDTH 467 0
DWIDTH 6 0
BBX 6 7 0 -1
BITMAP
1B80
3800
7400
BBD0
7DD0
7F80
6000
ENDCHAR
STARTCHAR uni0256
ENCODING 598
SWIDTH 573 0
DWIDTH 7 0
BBX 7 11 0 -2
BITMAP
00B0
00B0
00B0
1FB0
78B0
74B0
74B0
78B0
1FB0
00B4
002C
ENDCHAR
STARTCHAR uni0257
ENCODING 599
SWIDTH 573 0
DWIDTH 7 0
BBX 7 9 0 0
BITMAP
002C
0074
00B0
1FB0
78B0
74B0
74B0
78F0
1FB0
ENDCHAR
STARTCHAR uni0258
ENCODING 600
SWIDTH 518 0
DWIDTH 6 0
BBX 6 6 0 0
BITMAP
2F80
75D0
BFE0
00E0
12D0
2F40
ENDCHAR
STARTCHAR uni0259
ENCODING 601
SWIDTH 518 0
DWIDTH 6 0
BBX 6 6 0 0
BITMAP
2F80
11D0
BFE0
70E0
75D0
1F40
ENDCHAR
STARTCHAR uni025A
ENCODING 602
SWIDTH 707 0
DWIDTH 8 0
BBX 9 6 0 0
BITMAP
2F8400
11FD00
07E780
79E000
75D000
1F4000
ENDCHAR
STARTCHAR uni025B
ENCODING 603
SWIDTH 462 0
DWIDTH 6 0
BBX 5 6 0 0
BITMAP
2F80
3800
2F40
7400
7840
2F80
ENDCHAR
STARTCHAR uni025C
ENCODING 604
SWIDTH 476 0
DWIDTH 6 0
BBX 5 6 0 0
BITMAP
7F40
1380
1F40
02C0
12C0
7F40
ENDCHAR
STARTCHAR uni025E
ENCODING 606
SWIDTH 566 0
DWIDTH 7 0
BBX 7 6 0 0
BITMAP
2F90
38B0
2E74
7474
74B0
2F90
ENDCHAR
STARTCHAR uni025F
ENCODING 607
SWIDTH 321 0
DWIDTH 4 0
BBX 5 8 -1 -2
BITMAP
0E00
0E00
3F80
0E00
0E00
0E00
0E00
7900
ENDCHAR
STARTCHAR uni0260
ENCODING 608
SWIDTH 583 0
DWIDTH 7 0
BBX 8 10 0 -2
BITMAP
002D
0074
1FB0
38B0
74B0
74B0
38B0
1FB0
10B0
2F90
ENDCHAR
STARTCHAR uni0261
ENCODING 609
SWIDTH 583 0
DWIDTH 7 0
BBX 6 8 0 -2
BITMAP
1FB0
38B0
74B0
74B0
38B0
1FB0
10B0
2F90
ENDCHAR
STARTCHAR uni0262
ENCODING 610
SWIDTH 517 0
DWIDTH 6 0
BBX 6 6 0 0
BITMAP
1BD0
3840
7400
76E0
78A0
1FD0
ENDCHAR
STARTCHAR uni0263
ENCODING 611
SWIDTH 523 0
DWIDTH 6 0
BBX 6 8 0 -2
BITMAP
B0B0
74E0
39C0
1E80
0F40
1E80
29C0
1F40
ENDCHAR
STARTCHAR uni0264
ENCODING 612
SWIDTH 569 0
DWIDTH 7 0
BBX 7 6 0 0
BITMAP
B9B4
0F80
1FD0
3CE0
2CE0
1F80
ENDCHAR
STARTCHAR uni0265
ENCODING 613
SWIDTH 572 0
DWIDTH 7 0
BBX 6 8 0 -2
BITMAP
74B0
74B0
74B0
74B0
38F0
2EB0
00B0
00B0
ENDCHAR
STARTCHAR uni0266
ENCODING 614
SWIDTH 571 0
DWIDTH 7 0
BBX 6 9 0 0
BITMAP
1F40
3800
7800
7BD0
78B0
78B0
78B0
78B0
78B0
ENDCHAR
STARTCHAR uni0267
ENCODING 615
SWIDTH 571 0
DWIDTH 7 0
BBX 6 11 0 -2
BITMAP
1F40
3800
7800
7BD0
78B0
78B0
78B0
78B0
78B0
00B0
03D0
ENDCHAR
STARTCHAR uni0268
ENCODING 616
SWIDTH 321 0
DWIDTH 4 0
BBX 4 9 0 0
BITMAP
38
38
00
38
38
BE
38
38
38
ENDCHAR
STARTCHAR uni026A
ENCODING 618
SWIDTH 395 0
DWIDTH 5 0
BBX 4 6 0 0
BITMAP
7F
2D
2D
2D
2D
7F
ENDCHAR
STARTCHAR uni026C
ENCODING 620
SWIDTH 377 0
DWIDTH 5 0
BBX 5 9 0 0
BITMAP
1E00
1E00
1E00
AE00
EE00
BF40
1E00
1E00
0B00
ENDCHAR
STARTCHAR uni026D
ENCODING 621
SWIDTH 286 0
DWIDTH 3 0
BBX 4 11 0 -2
BITMAP
78
78
78
78
78
78
78
78
78
38
2E
ENDCHAR
STARTCHAR uni026E
ENCODING 622
SWIDTH 640 0
DWIDTH 8 0
BBX 8 11 0 -2
BITMAP
7800
7800
7800
7FFC
7878
78F0
7AF4
786D
781D
052C
06F4
ENDCHAR
STARTCHAR uni026F
ENCODING 623
SWIDTH 857 0
DWIDTH 10 0
BBX 10 6 0 0
BITMAP
78B1E0
78B1E0
78B1E0
78B1E0
39F6E0
2E7DE0
ENDCHAR
STARTCHAR uni0270
ENCODING 624
SWIDTH 857 0
DWIDTH 10 0
BBX 10 8 0 -2
BITMAP
78B1E0
78B1E0
78B1E0
78B1E0
39F6E0
2E7EE0
0001E0
0001E0
ENDCHAR
STARTCHAR uni0271
ENCODING 625
SWIDTH 857 0
DWIDTH 10 0
BBX 10 8 0 -2
BITMAP
7BDB80
78F5D0
78B1E0
78B1E0
78B1E0
78B1E0
0001D0
000780
ENDCHAR
STARTCHAR uni0272
ENCODING 626
SWIDTH 572 0
DWIDTH 7 0
BBX 7 8 -1 -2
BITMAP
1DB4
1E2C
1E2C
1E2C
1E2C
1E2C
1D00
7800
ENDCHAR
STARTCHAR uni0273
ENCODING 627
SWIDTH 572 0
DWIDTH 7 0
BBX 7 8 0 -2
BITMAP
76D0
78B0
78B0
78B0
78B0
78B0
00B4
002C
ENDCHAR
STARTCHAR uni0274
ENCODING 628
SWIDTH 561 0
DWIDTH 7 0
BBX 6 6 0 0
BITMAP
78B0
7DB0
7EB0
77F0
76F0
74F0
ENDCHAR
STARTCHAR uni0275
ENCODING 629
SWIDTH 555 0
DWIDTH 7 0
BBX 6 6 0 0
BITMAP
1F80
74A0
7FF0
74B0
78E0
1F80
ENDCHAR
STARTCHAR uni0276
ENCODING 630
SWIDTH 726 0
DWIDTH 9 0
BBX 9 6 0 0
BITMAP
1BFF40
78E000
74FF00
74E000
78E000
1BFF40
ENDCHAR
STARTCHAR uni0278
ENCODING 632
SWIDTH 738 0
DWIDTH 9 0
BBX 9 11 0 -2
BITMAP
01D000
01D000
01D000
1BF800
39DB00
75D740
75D740
39DB00
1BF800
01D000
01D000
ENDCHAR
STARTCHAR uni0279
ENCODING 633
SWIDTH 398 0
DWIDTH 5 0
BBX 4 6 0 0
BITMAP
0B
0B
0B
1F
BF
EB
ENDCHAR
STARTCHAR uni027A
ENCODING 634
SWIDTH 398 0
DWIDTH 5 0
BBX 4 9 0 0
BITMAP
0B
0B
0B
0B
0B
0B
1F
BF
EB
ENDCHAR
STARTCHAR uni027B
ENCODING 635
SWIDTH 398 0
DWIDTH 5 0
BBX 5 8 0 -2
BITMAP
0B00
0B00
0B00
1F00
BF00
EB00
0B00
02C0
ENDCHAR
STARTCHAR uni027D
ENCODING 637
SWIDTH 398 0
DWIDTH 5 0
BBX 5 8 0 -2
BITMAP
7780
7F80
7C00
7800
7800
7800
3800
2E00
ENDCHAR
STARTCHAR uni027E
ENCODING 638
SWIDTH 380 0
DWIDTH 5 0
BBX 5 6 0 0
BITMAP
1F40
3800
7800
7800
7800
7800
ENDCHAR
STARTCHAR uni0280
ENCODING 640
SWIDTH 532 0
DWIDTH 6 0
BBX 6 6 0 0
BITMAP
7980
78E0
79E0
7FC0
7AD0
78F0
ENDCHAR
STARTCHAR uni0281
ENCODING 641
SWIDTH 532 0
DWIDTH 6 0
BBX 6 6 0 0
BITMAP
74E0
3DE0
2FE0
79E0
79E0
2FE0
ENDCHAR
STARTCHAR uni0282
ENCODING 642
SWIDTH 443 0
DWIDTH 5 0
BBX 5 8 0 -2
BITMAP
2F80
7540
7E00
1B80
12C0
BF40
B000
7C00
ENDCHAR
STARTCHAR uni0283
ENCODING 643
SWIDTH 278 0
DWIDTH 3 0
BBX 5 11 -1 -2
BITMAP
0780
0E00
1E00
1E00
1E00
1E00
1E00
1E00
1E00
1D00
7800
ENDCHAR
STARTCHAR uni0284
ENCODING 644
SWIDTH 321 0
DWIDTH 4 0
BBX 5 11 -1 -2
BITMAP
07C0
0B00
0E00
0E00
0E00
3F80
0E00
0E00
0E00
0E00
7900
ENDCHAR
STARTCHAR uni0288
ENCODING 648
SWIDTH 383 0
DWIDTH 5 0
BBX 5 10 0 -2
BITMAP
1400
2800
BF40
3800
3800
3800
3800
3800
3C00
1F40
ENDCHAR
STARTCHAR uni0289
ENCODING 649
SWIDTH 617 0
DWIDTH 7 0
BBX 8 6 0 0
BITMAP
3874
3874
BFFD
3874
3CB4
1F74
ENDCHAR
STARTCHAR uni028A
ENCODING 650
SWIDTH 558 0
DWIDTH 7 0
BBX 7 6 0 0
BITMAP
BDF4
38E0
74B0
74B0
78F0
1F80
ENDCHAR
STARTCHAR uni028B
ENCODING 651
SWIDTH 552 0
DWIDTH 7 0
BBX 6 6 0 0
BITMAP
76D0
74B0
74B0
74B0
38E0
1F80
ENDCHAR
STARTCHAR uni028C
ENCODING 652
SWIDTH 523 0
DWIDTH 6 0
BBX 6 6 0 0
BITMAP
0F40
1F80
2AC0
39D0
74E0
B0B0
ENDCHAR
STARTCHAR uni028D
ENCODING 653
SWIDTH 776 0
DWIDTH 9 0
BBX 9 6 0 0
BITMAP
1F2E00
2F2F00
3B7B00
36B740
76E380
B1D3C0
ENDCHAR
STARTCHAR uni028E
ENCODING 654
SWIDTH 521 0
DWIDTH 6 0
BBX 6 9 0 0
BITMAP
01E0
0740
0B00
0F00
1F40
2A80
39C0
74E0
B0B0
ENDCHAR
STARTCHAR uni028F
ENCODING 655
SWIDTH 466 0
DWIDTH 6 0
BBX 6 6 0 0
BITMAP
F1D0
76C0
3B40
1F00
0E00
0E00
ENDCHAR
STARTCHAR uni0290
ENCODING 656
SWIDTH 460 0
DWIDTH 6 0
BBX 6 8 0 -2
BITMAP
7FC0
0780
0F00
1D00
3C00
7FC0
02D0
00B0
ENDCHAR
STARTCHAR uni0291
ENCODING 657
SWIDTH 503 0
DWIDTH 6 0
BBX 6 7 0 -1
BITMAP
7FC0
0780
0F00
2EA0
7A70
BFE0
0600
ENDCHAR
STARTCHAR uni0292
ENCODING 658
SWIDTH 460 0
DWIDTH 6 0
BBX 6 8 0 -2
BITMAP
BFC0
0780
1E00
2E40
17C0
02D0
52C0
7E40
ENDCHAR
STARTCHAR uni0294
ENCODING 660
SWIDTH 448 0
DWIDTH 5 0
BBX 5 9 0 0
BITMAP
BE40
52C0
02C0
03C0
1F40
1E00
1D00
1D00
1D00
ENDCHAR
STARTCHAR uni0295
ENCODING 661
SWIDTH 506 0
DWIDTH 6 0
BBX 6 9 0 0
BITMAP
1F90
7840
7400
7800
2E00
0B00
0B00
0B00
0B00
ENDCHAR
STARTCHAR uni0298
ENCODING 664
SWIDTH 556 0
DWIDTH 7 0
BBX 6 9 0 0
BITMAP
1B80
38E0
74B0
74B0
77B0
77B0
74B0
38E0
1B80
ENDCHAR
STARTCHAR uni0299
ENCODING 665
SWIDTH 528 0
DWIDTH 6 0
BBX 6 6 0 0
BITMAP
7FD0
79E0
7FD0
78E0
78E0
7F90
ENDCHAR
STARTCHAR uni029C
ENCODING 668
SWIDTH 582 0
DWIDTH 7 0
BBX 7 6 0 0
BITMAP
78B4
78B4
7FF4
7FF4
78B4
78B4
ENDCHAR
STARTCHAR uni029D
ENCODING 669
SWIDTH 360 0
DWIDTH 4 0
BBX 6 12 -1 -3
BITMAP
0740
0740
0000
0780
0780
0780
0780
0780
7F80
A780
7EE0
0050
ENDCHAR
STARTCHAR uni029F
ENCODING 671
SWIDTH 432 0
DWIDTH 5 0
BBX 5 6 0 0
BITMAP
7800
7800
7800
7800
7800
7FC0
ENDCHAR
STARTCHAR uni02A1
ENCODING 673
SWIDTH 476 0
DWIDTH 6 0
BBX 6 9 0 0
BITMAP
7F40
52C0
01D0
02C0
0B40
FFE0
1D00
1D00
1D00
ENDCHAR
STARTCHAR uni02A2
ENCODING 674
SWIDTH 476 0
DWIDTH 6 0
BBX 6 9 0 0
BITMAP
1F90
7440
B000
7400
2D00
BFE0
0B00
0B00
0B00
ENDCHAR
STARTCHAR h.sups
ENCODING 688
SWIDTH 384 0
DWIDTH 5 0
BBX 4 5 0 5
BITMAP
A0
BE
A7
A3
A3
ENDCHAR
STARTCHAR j.sups
ENCODING 690
SWIDTH 190 0
DWIDTH 2 0
BBX 3 7 -1 3
BITMAP
18
00
18
18
18
28
74
ENDCHAR
STARTCHAR r.sups
ENCODING 691
SWIDTH 272 0
DWIDTH 3 0
BBX 3 4 0 5
BITMAP
6C
B0
A0
A0
ENDCHAR
STARTCHAR w.sups
ENCODING 695
SWIDTH 523 0
DWIDTH 6 0
BBX 6 4 0 5
BITMAP
A630
6B60
7E90
39D0
ENDCHAR
STARTCHAR y.sups
ENCODING 696
SWIDTH 353 0
DWIDTH 4 0
BBX 4 6 0 3
BITMAP
97
66
39
2C
28
74
ENDCHAR
STARTCHAR uni02B9
ENCODING 697
SWIDTH 300 0
DWIDTH 4 0
BBX 2 4 1 4
BITMAP
B0
E0
E0
D0
ENDCHAR
STARTCHAR uni02BB
ENCODING 699
SWIDTH 300 0
DWIDTH 4 0
BBX 3 4 0 4
BITMAP
24
60
78
38
ENDCHAR
STARTCHAR uni02BC
ENCODING 700
SWIDTH 300 0
DWIDTH 4 0
BBX 2 4 1 4
BITMAP
E0
F0
60
90
ENDCHAR
STARTCHAR uni02BE
ENCODING 702
SWIDTH 176 0
DWIDTH 2 0
BBX 2 3 0 7
BITMAP
A0
30
A0
ENDCHAR
STARTCHAR uni02BF
ENCODING 703
SWIDTH 176 0
DWIDTH 2 0
BBX 2 3 0 7
BITMAP
60
90
60
ENDCHAR
STARTCHAR uni02C1
ENCODING 705
SWIDTH 343 0
DWIDTH 4 0
BBX 4 6 0 4
BITMAP
7D
A1
70
28
18
18
ENDCHAR
STARTCHAR circumflex
ENCODING 710
SWIDTH 555 0
DWIDTH 7 0
BBX 5 2 1 7
BITMAP
3E00
A240
ENDCHAR
STARTCHAR caron
ENCODING 711
SWIDTH 555 0
DWIDTH 7 0
BBX 5 2 1 7
BITMAP
A240
3E00
ENDCHAR
STARTCHAR uni02C8
ENCODING 712
SWIDTH 147 0
DWIDTH 2 0
BBX 2 2 0 7
BITMAP
A0
A0
ENDCHAR
STARTCHAR uni02C9
ENCODING 713
SWIDTH 308 0
DWIDTH 4 0
BBX 4 1 0 7
BITMAP
FE
ENDCHAR
STARTCHAR uni02CA
ENCODING 714
SWIDTH 236 0
DWIDTH 3 0
BBX 3 3 1 7
BITMAP
20
B4
90
ENDCHAR
STARTCHAR uni02CB
ENCODING 715
SWIDTH 236 0
DWIDTH 3 0
BBX 3 3 -1 7
BITMAP
60
78
18
ENDCHAR
STARTCHAR uni02CC
ENCODING 716
SWIDTH 147 0
DWIDTH 2 0
BBX 2 2 0 -3
BITMAP
A0
A0
ENDCHAR
STARTCHAR uni02D0
ENCODING 720
SWIDTH 300 0
DWIDTH 4 0
BBX 3 6 0 0
BITMAP
78
24
00
00
24
78
ENDCHAR
STARTCHAR uni02D1
ENCODING 721
SWIDTH 300 0
DWIDTH 4 0
BBX 3 2 0 4
BITMAP
78
24
ENDCHAR
STARTCHAR breve
ENCODING 728
SWIDTH 555 0
DWIDTH 7 0
BBX 5 2 1 7
BITMAP
A340
2E00
ENDCHAR
STARTCHAR dotaccent
ENCODING 729
SWIDTH 555 0
DWIDTH 7 0
BBX 2 2 2 7
BITMAP
70
70
ENDCHAR
STARTCHAR ring
ENCODING 730
SWIDTH 555 0
DWIDTH 7 0
BBX 3 2 2 7
BITMAP
B8
F8
ENDCHAR
STARTCHAR ogonek
ENCODING 731
SWIDTH 555 0
DWIDTH 7 0
BBX 3 3 2 -2
BITMAP
10
A0
78
ENDCHAR
STARTCHAR tilde
ENCODING 732
SWIDTH 555 0
DWIDTH 7 0
BBX 5 3 1 7
BITMAP
0140
7A40
D500
ENDCHAR
STARTCHAR hungarumlaut
ENCODING 733
SWIDTH 555 0
DWIDTH 7 0
BBX 4 2 2 7
BITMAP
67
9D
ENDCHAR
STARTCHAR uni02DE
ENCODING 734
SWIDTH 189 0
DWIDTH 2 0
BBX 5 3 -2 3
BITMAP
0800
7D00
0740
ENDCHAR
STARTCHAR uni02E0
ENCODING 736
SWIDTH 353 0
DWIDTH 4 0
BBX 4 6 0 3
BITMAP
97
66
39
2C
39
2D
ENDCHAR
STARTCHAR l.sups
ENCODING 737
SWIDTH 194 0
DWIDTH 2 0
BBX 3 6 0 4
BITMAP
A0
A0
A0
A0
60
74
ENDCHAR
STARTCHAR s.sups
ENCODING 738
SWIDTH 297 0
DWIDTH 4 0
BBX 4 5 0 4
BITMAP
7C
A0
7C
0D
78
ENDCHAR
STARTCHAR x.sups
ENCODING 739
SWIDTH 348 0
DWIDTH 4 0
BBX 4 4 0 5
BITMAP
A6
3D
3C
AA
ENDCHAR
STARTCHAR uni0300
ENCODING 768
SWIDTH 0 0
DWIDTH 0 0
BBX 3 3 -2 7
BITMAP
90
B4
24
ENDCHAR
STARTCHAR uni0301
ENCODING 769
SWIDTH 0 0
DWIDTH 0 0
BBX 3 3 -1 7
BITMAP
18
78
60
ENDCHAR
STARTCHAR uni0302
ENCODING 770
SWIDTH 0 0
DWIDTH 0 0
BBX 4 2 -2 7
BITMAP
7D
96
ENDCHAR
STARTCHAR uni0303
ENCODING 771
SWIDTH 0 0
DWIDTH 0 0
BBX 5 3 -3 7
BITMAP
0040
2EC0
7140
ENDCHAR
STARTCHAR uni0304
ENCODING 772
SWIDTH 0 0
DWIDTH 0 0
BBX 4 1 -2 7
BITMAP
BE
ENDCHAR
STARTCHAR uni0305
ENCODING 773
SWIDTH 0 0
DWIDTH 0 0
BBX 4 1 -2 7
BITMAP
BE
ENDCHAR
STARTCHAR uni0306
ENCODING 774
SWIDTH 0 0
DWIDTH 0 0
BBX 4 2 -2 7
BITMAP
D7
7D
ENDCHAR
STARTCHAR uni0307
ENCODING 775
SWIDTH 0 0
DWIDTH 0 0
BBX 2 2 -1 7
BITMAP
A0
A0
ENDCHAR
STARTCHAR uni0308
ENCODING 776
SWIDTH 0 0
DWIDTH 0 0
BBX 4 2 -2 7
BITMAP
D7
D7
ENDCHAR
STARTCHAR uni0309
ENCODING 777
SWIDTH 0 0
DWIDTH 0 0
BBX 2 3 -1 6
BITMAP
E0
70
50
ENDCHAR
STARTCHAR uni030A
ENCODING 778
SWIDTH 0 0
DWIDTH 0 0
BBX 4 2 -2 7
BITMAP
7D
7D
ENDCHAR
STARTCHAR uni030B
ENCODING 779
SWIDTH 0 0
DWIDTH 0 0
BBX 5 2 -2 7
BITMAP
2680
6700
ENDCHAR
STARTCHAR uni030C
ENCODING 780
SWIDTH 0 0
DWIDTH 0 0
BBX 4 2 -2 7
BITMAP
96
7D
ENDCHAR
STARTCHAR uni030F
ENCODING 783
SWIDTH 0 0
DWIDTH 0 0
BBX 5 3 -3 7
BITMAP
6600
7700
2640
ENDCHAR
STARTCHAR uni0311
ENCODING 785
SWIDTH 0 0
DWIDTH 0 0
BBX 4 2 -2 7
BITMAP
7D
D7
ENDCHAR
STARTCHAR uni0312
ENCODING 786
SWIDTH 0 0
DWIDTH 0 0
BBX 2 2 -1 7
BITMAP
90
90
ENDCHAR
STARTCHAR uni0313
ENCODING 787
SWIDTH 0 0
DWIDTH 0 0
BBX 2 2 -1 7
BITMAP
60
50
ENDCHAR
STARTCHAR uni0318
ENCODING 792
SWIDTH 0 0
DWIDTH 0 0
BBX 3 3 -1 -3
BITMAP
20
F4
20
ENDCHAR
STARTCHAR uni0319
ENCODING 793
SWIDTH 0 0
DWIDTH 0 0
BBX 3 3 -2 -3
BITMAP
20
7C
20
ENDCHAR
STARTCHAR uni031A
ENCODING 794
SWIDTH 0 0
DWIDTH 0 0
BBX 3 2 -1 7
BITMAP
F4
24
ENDCHAR
STARTCHAR uni031B
ENCODING 795
SWIDTH 0 0
DWIDTH 0 0
BBX 2 3 0 5
BITMAP
70
B0
D0
ENDCHAR
STARTCHAR uni031C
ENCODING 796
SWIDTH 0 0
DWIDTH 0 0
BBX 2 3 -1 -3
BITMAP
A0
C0
A0
ENDCHAR
STARTCHAR uni031D
ENCODING 797
SWIDTH 0 0
DWIDTH 0 0
BBX 4 2 -2 -3
BITMAP
14
7D
ENDCHAR
STARTCHAR uni031E
ENCODING 798
SWIDTH 0 0
DWIDTH 0 0
BBX 4 2 -2 -3
BITMAP
7D
14
ENDCHAR
STARTCHAR uni031F
ENCODING 799
SWIDTH 0 0
DWIDTH 0 0
BBX 4 3 -2 -3
BITMAP
14
7D
14
ENDCHAR
STARTCHAR uni0320
ENCODING 800
SWIDTH 0 0
DWIDTH 0 0
BBX 4 1 -2 -2
BITMAP
7D
ENDCHAR
STARTCHAR uni0323
ENCODING 803
SWIDTH 0 0
DWIDTH 0 0
BBX 2 2 -1 -3
BITMAP
A0
A0
ENDCHAR
STARTCHAR uni0324
ENCODING 804
SWIDTH 0 0
DWIDTH 0 0
BBX 4 2 -2 -2
BITMAP
D7
D7
ENDCHAR
STARTCHAR uni0325
ENCODING 805
SWIDTH 0 0
DWIDTH 0 0
BBX 4 2 -2 -3
BITMAP
7D
7D
ENDCHAR
STARTCHAR uni0326
ENCODING 806
SWIDTH 0 0
DWIDTH 0 0
BBX 3 3 -2 -3
BITMAP
28
1C
74
ENDCHAR
STARTCHAR uni0327
ENCODING 807
SWIDTH 0 0
DWIDTH 0 0
BBX 3 4 -2 -3
BITMAP
14
38
1C
74
ENDCHAR
STARTCHAR uni0328
ENCODING 808
SWIDTH 0 0
DWIDTH 0 0
BBX 3 3 -1 -2
BITMAP
50
D0
B4
ENDCHAR
STARTCHAR uni0329
ENCODING 809
SWIDTH 0 0
DWIDTH 0 0
BBX 2 2 -1 -3
BITMAP
A0
A0
ENDCHAR
STARTCHAR uni032A
ENCODING 810
SWIDTH 0 0
DWIDTH 0 0
BBX 4 2 -2 -3
BITMAP
BE
55
ENDCHAR
STARTCHAR uni032C
ENCODING 812
SWIDTH 0 0
DWIDTH 0 0
BBX 4 2 -2 -3
BITMAP
96
7D
ENDCHAR
STARTCHAR uni032E
ENCODING 814
SWIDTH 0 0
DWIDTH 0 0
BBX 4 2 -2 -3
BITMAP
D7
7D
ENDCHAR
STARTCHAR uni032F
ENCODING 815
SWIDTH 0 0
DWIDTH 0 0
BBX 4 2 -2 -3
BITMAP
7D
D7
ENDCHAR
STARTCHAR uni0330
ENCODING 816
SWIDTH 0 0
DWIDTH 0 0
BBX 5 3 -3 -3
BITMAP
0040
2EC0
7140
ENDCHAR
STARTCHAR uni0331
ENCODING 817
SWIDTH 0 0
DWIDTH 0 0
BBX 4 1 -2 -2
BITMAP
BE
ENDCHAR
STARTCHAR uni0334
ENCODING 820
SWIDTH 0 0
DWIDTH 0 0
BBX 5 3 -3 2
BITMAP
0040
2EC0
7140
ENDCHAR
STARTCHAR uni0339
ENCODING 825
SWIDTH 0 0
DWIDTH 0 0
BBX 2 3 -1 -3
BITMAP
A0
30
A0
ENDCHAR
STARTCHAR uni033A
ENCODING 826
SWIDTH 0 0
DWIDTH 0 0
BBX 4 2 -2 -2
BITMAP
55
BE
ENDCHAR
STARTCHAR uni033B
ENCODING 827
SWIDTH 0 0
DWIDTH 0 0
BBX 4 2 -2 -3
BITMAP
BE
BE
ENDCHAR
STARTCHAR uni033C
ENCODING 828
SWIDTH 0 0
DWIDTH 0 0
BBX 6 2 -3 -3
BITMAP
2A80
6A90
ENDCHAR
STARTCHAR uni033D
ENCODING 829
SWIDTH 0 0
DWIDTH 0 0
BBX 2 2 -1 7
BITMAP
A0
A0
ENDCHAR
STARTCHAR uni0342
ENCODING 834
SWIDTH 0 0
DWIDTH 0 0
BBX 5 3 -3 7
BITMAP
0040
2EC0
7140
ENDCHAR
STARTCHAR uni0345
ENCODING 837
SWIDTH 0 0
DWIDTH 0 0
BBX 3 2 -1 -2
BITMAP
A0
74
ENDCHAR
STARTCHAR uni0361
ENCODING 865
SWIDTH 0 0
DWIDTH 0 0
BBX 12 2 -6 7
BITMAP
06FF90
79006D
ENDCHAR
STARTCHAR uni0374
ENCODING 884
SWIDTH 300 0
DWIDTH 4 0
BBX 2 4 1 4
BITMAP
B0
E0
E0
D0
ENDCHAR
STARTCHAR uni0375
ENCODING 885
SWIDTH 300 0
DWIDTH 4 0
BBX 3 4 0 0
BITMAP
28
38
34
74
ENDCHAR
STARTCHAR uni037A
ENCODING 890
SWIDTH 555 0
DWIDTH 7 0
BBX 3 2 2 -2
BITMAP
70
38
ENDCHAR
STARTCHAR uni037E
ENCODING 894
SWIDTH 300 0
DWIDTH 4 0
BBX 3 8 0 -2
BITMAP
38
38
00
00
38
3C
1C
74
ENDCHAR
STARTCHAR tonos
ENCODING 900
SWIDTH 555 0
DWIDTH 7 0
BBX 3 3 2 7
BITMAP
24
34
70
ENDCHAR
STARTCHAR dieresistonos
ENCODING 901
SWIDTH 555 0
DWIDTH 7 0
BBX 5 3 1 7
BITMAP
0400
0C00
9A40
ENDCHAR
STARTCHAR Alphatonos
ENCODING 902
SWIDTH 622 0
DWIDTH 7 0
BBX 8 8 0 0
BITMAP
A7D0
D7E0
8AB0
0EB0
1D74
2FF8
382C
741D
ENDCHAR
STARTCHAR anoteleia
ENCODING 903
SWIDTH 300 0
DWIDTH 4 0
BBX 2 2 1 4
BITMAP
E0
E0
ENDCHAR
STARTCHAR Epsilontonos
ENCODING 904
SWIDTH 667 0
DWIDTH 8 0
BBX 8 8 0 0
BITMAP
9BFD
DBFD
8B00
0B00
0BF8
0B00
0BFD
0BFD
ENDCHAR
STARTCHAR Etatonos
ENCODING 905
SWIDTH 792 0
DWIDTH 10 0
BBX 9 8 0 0
BITMAP
9B0780
DB0780
8B0780
0BFF80
0BFF80
0B0780
0B0780
0B0780
ENDCHAR
STARTCHAR Iotatonos
ENCODING 906
SWIDTH 420 0
DWIDTH 5 0
BBX 4 8 0 0
BITMAP
9B
DB
8B
0B
0B
0B
0B
0B
ENDCHAR
STARTCHAR Omicrontonos
ENCODING 908
SWIDTH 777 0
DWIDTH 9 0
BBX 9 8 0 0
BITMAP
92F900
DBFF00
9F4B80
1E0380
1E0380
0F4B80
0BFF00
02F800
ENDCHAR
STARTCHAR Upsilontonos
ENCODING 910
SWIDTH 704 0
DWIDTH 8 0
BBX 9 8 0 0
BITMAP
9B0B40
D78F00
82DD00
01FC00
00F400
00B400
00B400
00B400
ENDCHAR
STARTCHAR Omegatonos
ENCODING 911
SWIDTH 803 0
DWIDTH 10 0
BBX 9 8 0 0
BITMAP
D1F900
DBFF40
8F4780
0E03C0
0E0380
074B40
1FCFC0
1FCFC0
ENDCHAR
STARTCHAR iotadieresistonos
ENCODING 912
SWIDTH 301 0
DWIDTH 4 0
BBX 5 10 -1 0
BITMAP
0500
0900
6D80
0000
1E00
1E00
1D00
1D00
1D00
0B40
ENDCHAR
STARTCHAR Alpha
ENCODING 913
SWIDTH 573 0
DWIDTH 7 0
BBX 7 8 0 0
BITMAP
0B80
0FC0
1DD0
2CE0
38F0
7FF4
B074
F038
ENDCHAR
STARTCHAR Beta
ENCODING 914
SWIDTH 605 0
DWIDTH 7 0
BBX 6 8 1 0
BITMAP
FF80
FFD0
E1D0
E1C0
FFD0
E0E0
FFE0
FF80
ENDCHAR
STARTCHAR Gamma
ENCODING 915
SWIDTH 521 0
DWIDTH 6 0
BBX 5 8 1 0
BITMAP
FFC0
FFC0
E000
E000
E000
E000
E000
E000
ENDCHAR
STARTCHAR uni0394
ENCODING 916
SWIDTH 640 0
DWIDTH 8 0
BBX 8 8 0 0
BITMAP
07C0
0BD0
0DA0
1CB0
2874
3438
7FFC
BFFD
ENDCHAR
STARTCHAR Epsilon
ENCODING 917
SWIDTH 548 0
DWIDTH 7 0
BBX 5 8 1 0
BITMAP
FF80
FF80
E000
E000
FF40
E000
FFC0
FFC0
ENDCHAR
STARTCHAR Zeta
ENCODING 918
SWIDTH 541 0
DWIDTH 6 0
BBX 6 8 0 0
BITMAP
7FF0
7FF0
02E0
0780
1F00
7C00
BFF0
BFF0
ENDCHAR
STARTCHAR Eta
ENCODING 919
SWIDTH 674 0
DWIDTH 8 0
BBX 6 8 1 0
BITMAP
E0B0
E0B0
E0B0
FFF0
FFF0
E0B0
E0B0
E0B0
ENDCHAR
STARTCHAR Theta
ENCODING 920
SWIDTH 684 0
DWIDTH 8 0
BBX 8 8 0 0
BITMAP
0BE0
2FFC
7C2D
7BEE
741E
7C2D
2FFC
0BE0
ENDCHAR
STARTCHAR Iota
ENCODING 921
SWIDTH 301 0
DWIDTH 4 0
BBX 2 8 1 0
BITMAP
E0
E0
E0
E0
E0
E0
E0
E0
ENDCHAR
STARTCHAR Kappa
ENCODING 922
SWIDTH 614 0
DWIDTH 7 0
BBX 6 8 1 0
BITMAP
E1E0
E3C0
EB40
FF00
FF40
F3C0
E1E0
E0B0
ENDCHAR
STARTCHAR Lambda
ENCODING 923
SWIDTH 556 0
DWIDTH 7 0
BBX 7 8 0 0
BITMAP
0F80
1FC0
1EC0
29D0
38E0
74B0
B074
F078
ENDCHAR
STARTCHAR Mu
ENCODING 924
SWIDTH 762 0
DWIDTH 9 0
BBX 8 8 1 0
BITMAP
F03D
F47D
F8BD
ECED
EEDD
EB9D
E75D
E11D
ENDCHAR
STARTCHAR Nu
ENCODING 925
SWIDTH 665 0
DWIDTH 8 0
BBX 6 8 1 0
BITMAP
F0B0
F8B0
FCB0
EEB0
EBB0
E3F0
E2F0
E0F0
ENDCHAR
STARTCHAR Xi
ENCODING 926
SWIDTH 571 0
DWIDTH 7 0
BBX 7 8 0 0
BITMAP
7FF0
7FF0
0000
2FD0
0000
0000
7FF4
7FF4
ENDCHAR
STARTCHAR Omicron
ENCODING 927
SWIDTH 684 0
DWIDTH 8 0
BBX 8 8 0 0
BITMAP
0BE0
2FFC
7C2D
741E
741E
7C2D
2FFC
0BE0
ENDCHAR
STARTCHAR Pi
ENCODING 928
SWIDTH 663 0
DWIDTH 8 0
BBX 6 8 1 0
BITMAP
FFF0
FFF0
E0B0
E0B0
E0B0
E0B0
E0B0
E0B0
ENDCHAR
STARTCHAR Rho
ENCODING 929
SWIDTH 596 0
DWIDTH 7 0
BBX 6 8 1 0
BITMAP
FF80
FFD0
E1E0
E1D0
FF80
E000
E000
E000
ENDCHAR
STARTCHAR Sigma
ENCODING 931
SWIDTH 549 0
DWIDTH 7 0
BBX 7 8 0 0
BITMAP
BFF0
7FF0
1D00
0B40
0B40
1D00
7FF4
BFF4
ENDCHAR
STARTCHAR Tau
ENCODING 932
SWIDTH 556 0
DWIDTH 7 0
BBX 7 8 0 0
BITMAP
BFF4
BFF4
0B40
0B40
0B40
0B40
0B40
0B40
ENDCHAR
STARTCHAR Upsilon
ENCODING 933
SWIDTH 525 0
DWIDTH 6 0
BBX 6 8 0 0
BITMAP
F0B0
74E0
39D0
1F80
0F40
0B00
0B00
0B00
ENDCHAR
STARTCHAR Phi
ENCODING 934
SWIDTH 760 0
DWIDTH 9 0
BBX 9 8 0 0
BITMAP
01D000
0BF900
3FFF00
79D740
79D740
3FFF00
0BF900
01D000
ENDCHAR
STARTCHAR Chi
ENCODING 935
SWIDTH 567 0
DWIDTH 7 0
BBX 7 8 0 0
BITMAP
74B4
3CE0
1ED0
0F80
0F80
2ED0
38F0
B4B4
ENDCHAR
STARTCHAR Psi
ENCODING 936
SWIDTH 752 0
DWIDTH 9 0
BBX 9 8 0 0
BITMAP
75D740
75D740
75D740
79DB40
2FFE00
0BF800
01D000
01D000
ENDCHAR
STARTCHAR uni03A9
ENCODING 937
SWIDTH 711 0
DWIDTH 9 0
BBX 8 8 0 0
BITMAP
0BE4
2FFD
3D2E
780E
380E
2D2C
7E7F
7E7F
ENDCHAR
STARTCHAR Iotadieresis
ENCODING 938
SWIDTH 301 0
DWIDTH 4 0
BBX 5 10 -1 0
BITMAP
7280
7280
0E00
0E00
0E00
0E00
0E00
0E00
0E00
0E00
ENDCHAR
STARTCHAR Upsilondieresis
ENCODING 939
SWIDTH 525 0
DWIDTH 6 0
BBX 6 10 0 0
BITMAP
25C0
25C0
F0B0
74E0
39D0
1F80
0F40
0B00
0B00
0B00
ENDCHAR
STARTCHAR alphatonos
ENCODING 940
SWIDTH 595 0
DWIDTH 7 0
BBX 7 10 0 0
BITMAP
0280
0380
0340
0000
1F78
78F4
74B4
B4B0
79F0
2E7C
ENDCHAR
STARTCHAR epsilontonos
ENCODING 941
SWIDTH 471 0
DWIDTH 6 0
BBX 5 10 0 0
BITMAP
0240
0740
0600
0000
2F80
7840
2F00
7400
7440
2F80
ENDCHAR
STARTCHAR etatonos
ENCODING 942
SWIDTH 562 0
DWIDTH 7 0
BBX 6 12 0 -2
BITMAP
0280
0280
0240
0000
76D0
7CB0
78B0
78B0
78B0
78B0
00B0
00B0
ENDCHAR
STARTCHAR iotatonos
ENCODING 943
SWIDTH 301 0
DWIDTH 4 0
BBX 4 10 0 0
BITMAP
28
28
24
00
78
78
74
74
74
2D
ENDCHAR
STARTCHAR upsilondieresistonos
ENCODING 944
SWIDTH 532 0
DWIDTH 6 0
BBX 6 10 0 0
BITMAP
0200
0700
3690
0000
75E0
74E0
74F0
74E0
75E0
1F80
ENDCHAR
STARTCHAR alpha
ENCODING 945
SWIDTH 595 0
DWIDTH 7 0
BBX 7 6 0 0
BITMAP
1F78
78F4
74B4
B4B0
79F0
2E7C
ENDCHAR
STARTCHAR beta
ENCODING 946
SWIDTH 600 0
DWIDTH 7 0
BBX 7 11 0 -2
BITMAP
1B90
38B0
38B0
74E0
76E0
7478
7438
7878
7BE0
7400
7800
ENDCHAR
STARTCHAR gamma
ENCODING 947
SWIDTH 533 0
DWIDTH 6 0
BBX 6 8 0 -2
BITMAP
B0B0
38B0
2CE0
1EC0
0F80
0B00
0B00
0B00
ENDCHAR
STARTCHAR delta
ENCODING 948
SWIDTH 548 0
DWIDTH 7 0
BBX 6 9 0 0
BITMAP
1FE0
3850
2E00
0F80
2EE0
74B0
74B0
78E0
1F80
ENDCHAR
STARTCHAR epsilon
ENCODING 949
SWIDTH 471 0
DWIDTH 6 0
BBX 5 6 0 0
BITMAP
2F80
7840
2F00
7400
7440
2F80
ENDCHAR
STARTCHAR zeta
ENCODING 950
SWIDTH 466 0
DWIDTH 6 0
BBX 6 11 0 -2
BITMAP
3FD0
0780
0E00
2D00
7800
7400
7400
7800
1F80
01D0
01C0
ENDCHAR
STARTCHAR eta
ENCODING 951
SWIDTH 562 0
DWIDTH 7 0
BBX 6 8 0 -2
BITMAP
76D0
7CB0
78B0
78B0
78B0
78B0
00B0
00B0
ENDCHAR
STARTCHAR theta
ENCODING 952
SWIDTH 549 0
DWIDTH 7 0
BBX 6 9 0 0
BITMAP
1B80
39D0
74E0
74B0
7FF0
74B0
74E0
39D0
1B80
ENDCHAR
STARTCHAR iota
ENCODING 953
SWIDTH 301 0
DWIDTH 4 0
BBX 4 6 0 0
BITMAP
78
78
74
74
74
2D
ENDCHAR
STARTCHAR kappa
ENCODING 954
SWIDTH 546 0
DWIDTH 7 0
BBX 7 6 0 0
BITMAP
7460
76E0
7B80
7F80
79D0
74B4
ENDCHAR
STARTCHAR lambda
ENCODING 955
SWIDTH 552 0
DWIDTH 7 0
BBX 7 9 0 0
BITMAP
7D00
0B00
0740
0B80
0FC0
2DD0
3CE0
78B0
B474
ENDCHAR
STARTCHAR uni03BC
ENCODING 956
SWIDTH 594 0
DWIDTH 7 0
BBX 7 8 0 -2
BITMAP
78B0
78B0
78B0
78B0
78F0
7F7C
7400
7800
ENDCHAR
STARTCHAR nu
ENCODING 957
SWIDTH 523 0
DWIDTH 6 0
BBX 6 6 0 0
BITMAP
B0B0
74E0
2CD0
1EC0
0F80
0F00
ENDCHAR
STARTCHAR xi
ENCODING 958
SWIDTH 469 0
DWIDTH 6 0
BBX 6 11 0 -2
BITMAP
BFD0
2D00
3C00
2D00
1F80
3800
7400
7800
2F80
01D0
01C0
ENDCHAR
STARTCHAR omicron
ENCODING 959
SWIDTH 553 0
DWIDTH 7 0
BBX 6 6 0 0
BITMAP
1F80
78E0
74B0
74B0
78E0
1F80
ENDCHAR
STARTCHAR pi
ENCODING 960
SWIDTH 635 0
DWIDTH 8 0
BBX 8 6 0 0
BITMAP
BFFD
2C74
2C74
2CB0
2C74
3C2D
ENDCHAR
STARTCHAR rho
ENCODING 961
SWIDTH 569 0
DWIDTH 7 0
BBX 7 8 0 -2
BITMAP
1B90
38B0
7474
74B4
78B0
7BD0
7400
7400
ENDCHAR
STARTCHAR uni03C2
ENCODING 962
SWIDTH 446 0
DWIDTH 5 0
BBX 5 8 0 -2
BITMAP
1B80
7800
7400
7400
7800
1F40
02C0
0240
ENDCHAR
STARTCHAR sigma
ENCODING 963
SWIDTH 573 0
DWIDTH 7 0
BBX 7 6 0 0
BITMAP
1FF8
78D0
74B0
74B0
78E0
1F80
ENDCHAR
STARTCHAR tau
ENCODING 964
SWIDTH 492 0
DWIDTH 6 0
BBX 6 6 0 0
BITMAP
BFE0
0E00
0E00
0E00
0E00
07C0
ENDCHAR
STARTCHAR upsilon
ENCODING 965
SWIDTH 532 0
DWIDTH 6 0
BBX 6 6 0 0
BITMAP
75E0
74E0
74F0
74E0
75E0
1F80
ENDCHAR
STARTCHAR phi
ENCODING 966
SWIDTH 738 0
DWIDTH 9 0
BBX 9 10 0 -2
BITMAP
01D000
01D000
1BF800
39DB00
75D740
75D740
39DB00
1BF800
01D000
01D000
ENDCHAR
STARTCHAR chi
ENCODING 967
SWIDTH 526 0
DWIDTH 6 0
BBX 6 8 0 -2
BITMAP
B0F0
39D0
1F80
0B40
0F80
2DD0
38B0
B000
ENDCHAR
STARTCHAR psi
ENCODING 968
SWIDTH 752 0
DWIDTH 9 0
BBX 9 10 0 -2
BITMAP
01D000
01D000
75DB00
75D740
75D740
75D740
39DB00
1BF900
01D000
01D000
ENDCHAR
STARTCHAR omega
ENCODING 969
SWIDTH 746 0
DWIDTH 9 0
BBX 9 6 0 0
BITMAP
240A00
780B40
759740
75D740
75DB40
2E6E00
ENDCHAR
STARTCHAR iotadieresis
ENCODING 970
SWIDTH 301 0
DWIDTH 4 0
BBX 5 9 -1 0
BITMAP
7280
7280
0000
1E00
1E00
1D00
1D00
1D00
0B40
ENDCHAR
STARTCHAR upsilondieresis
ENCODING 971
SWIDTH 532 0
DWIDTH 6 0
BBX 6 9 0 0
BITMAP
25C0
25C0
0000
75E0
74E0
74F0
74E0
75E0
1F80
ENDCHAR
STARTCHAR omicrontonos
ENCODING 972
SWIDTH 553 0
DWIDTH 7 0
BBX 6 10 0 0
BITMAP
0240
0340
0700
0000
1F80
78E0
74B0
74B0
78E0
1F80
ENDCHAR
STARTCHAR upsilontonos
ENCODING 973
SWIDTH 532 0
DWIDTH 6 0
BBX 6 10 0 0
BITMAP
0240
0740
0600
0000
75E0
74E0
74F0
74E0
75E0
1F80
ENDCHAR
STARTCHAR omegatonos
ENCODING 974
SWIDTH 746 0
DWIDTH 9 0
BBX 9 10 0 0
BITMAP
00A000
00E000
00D000
000000
240A00
780B40
759740
75D740
75DB40
2E6E00
ENDCHAR
STARTCHAR uni03D0
ENCODING 976
SWIDTH 592 0
DWIDTH 7 0
BBX 7 9 0 0
BITMAP
1B90
38B0
38B0
75E0
7FE0
7874
3878
2FF4
0BE0
ENDCHAR
STARTCHAR uni03D1
ENCODING 977
SWIDTH 549 0
DWIDTH 7 0
BBX 6 9 0 0
BITMAP
1F80
75D0
74E0
38B0
1BF0
00B0
38A0
38E0
2F80
ENDCHAR
STARTCHAR uni03D5
ENCODING 981
SWIDTH 738 0
DWIDTH 9 0
BBX 9 8 0 -2
BITMAP
247D00
78DB00
B5D740
75D740
39DB00
1BF800
01D000
01D000
ENDCHAR
STARTCHAR uni03D7
ENCODING 983
SWIDTH 546 0
DWIDTH 7 0
BBX 7 8 0 -2
BITMAP
7460
76E0
7F80
7F80
79D0
74B4
00B4
02D0
ENDCHAR
STARTCHAR uni03D9
ENCODING 985
SWIDTH 553 0
DWIDTH 7 0
BBX 6 8 0 -2
BITMAP
1F80
38E0
74B0
B4B0
78F0
1F90
0B40
0B40
ENDCHAR
STARTCHAR uni03DB
ENCODING 987
SWIDTH 490 0
DWIDTH 6 0
BBX 6 8 0 -2
BITMAP
1BE0
7800
7400
7400
7800
1F80
01D0
0180
ENDCHAR
STARTCHAR uni03DD
ENCODING 989
SWIDTH 433 0
DWIDTH 5 0
BBX 5 8 0 -2
BITMAP
7FC0
7400
7400
7F80
7400
7400
7800
7800
ENDCHAR
STARTCHAR uni03E1
ENCODING 993
SWIDTH 536 0
DWIDTH 6 0
BBX 7 11 0 -2
BITMAP
1800
2E00
0B40
07C0
6FE0
B8F0
02F0
1FF4
1874
00B4
00B0
ENDCHAR
STARTCHAR uni0400
ENCODING 1024
SWIDTH 548 0
DWIDTH 7 0
BBX 5 11 1 0
BITMAP
2000
7800
1800
FF80
FF80
E000
E000
FF40
E000
FFC0
FFC0
ENDCHAR
STARTCHAR uni0401
ENCODING 1025
SWIDTH 548 0
DWIDTH 7 0
BBX 5 10 1 0
BITMAP
A340
A340
FF80
FF80
E000
E000
FF40
E000
FFC0
FFC0
ENDCHAR
STARTCHAR uni0402
ENCODING 1026
SWIDTH 701 0
DWIDTH 8 0
BBX 8 8 0 0
BITMAP
BFF4
BFF4
0B00
0BF8
0B0E
0B0F
0B3E
0B3D
ENDCHAR
STARTCHAR uni0403
ENCODING 1027
SWIDTH 521 0
DWIDTH 6 0
BBX 5 11 1 0
BITMAP
0200
0B40
0900
FFC0
FFC0
E000
E000
E000
E000
E000
E000
ENDCHAR
STARTCHAR uni0404
ENCODING 1028
SWIDTH 582 0
DWIDTH 7 0
BBX 7 8 0 0
BITMAP
0BE0
2FF4
7D10
7800
7FC0
7810
2FF8
0BE0
ENDCHAR
STARTCHAR uni0405
ENCODING 1029
SWIDTH 556 0
DWIDTH 7 0
BBX 7 8 0 0
BITMAP
1B90
3FE0
7850
2F80
07F0
24B4
7FF0
1F90
ENDCHAR
STARTCHAR uni0406
ENCODING 1030
SWIDTH 301 0
DWIDTH 4 0
BBX 2 8 1 0
BITMAP
E0
E0
E0
E0
E0
E0
E0
E0
ENDCHAR
STARTCHAR uni0407
ENCODING 1031
SWIDTH 301 0
DWIDTH 4 0
BBX 5 10 -1 0
BITMAP
7280
7280
0E00
0E00
0E00
0E00
0E00
0E00
0E00
0E00
ENDCHAR
STARTCHAR uni0408
ENCODING 1032
SWIDTH 509 0
DWIDTH 6 0
BBX 6 8 0 0
BITMAP
02D0
02D0
02D0
02D0
02D0
22D0
BFC0
2F40
ENDCHAR
STARTCHAR uni0409
ENCODING 1033
SWIDTH 920 0
DWIDTH 11 0
BBX 11 8 0 0
BITMAP
0BFC00
0BFC00
0E3C00
0E3FE0
1D3FF4
2D3C78
BC3FF4
F43FD0
ENDCHAR
STARTCHAR uni040A
ENCODING 1034
SWIDTH 933 0
DWIDTH 11 0
BBX 10 8 1 0
BITMAP
E0B000
E0B000
E0B000
E0BF80
FFFFE0
E0B1E0
E0BFD0
E0BF80
ENDCHAR
STARTCHAR uni040B
ENCODING 1035
SWIDTH 718 0
DWIDTH 9 0
BBX 8 8 0 0
BITMAP
BFF4
BFF4
0B00
0BF8
0B1E
0B0F
0B0F
0B0F
ENDCHAR
STARTCHAR uni040C
ENCODING 1036
SWIDTH 622 0
DWIDTH 7 0
BBX 7 11 1 0
BITMAP
0180
0780
0600
E0B4
E2F0
E380
FF00
E780
E2C0
E0E0
E0B4
ENDCHAR
STARTCHAR uni040D
ENCODING 1037
SWIDTH 676 0
DWIDTH 8 0
BBX 7 11 1 0
BITMAP
1400
2E00
0600
E0F4
E1F4
E3F4
E7B4
EEB4
FCB4
F8B4
F0B4
ENDCHAR
STARTCHAR uni040E
ENCODING 1038
SWIDTH 555 0
DWIDTH 7 0
BBX 7 10 0 0
BITMAP
2CD0
0B80
B078
74B0
3CE0
1ED0
0FC0
0B80
3F00
3D00
ENDCHAR
STARTCHAR uni040F
ENCODING 1039
SWIDTH 663 0
DWIDTH 8 0
BBX 6 10 1 -2
BITMAP
E0B0
E0B0
E0B0
E0B0
E0B0
E0B0
FFF0
FFF0
0B00
0A00
ENDCHAR
STARTCHAR uni0410
ENCODING 1040
SWIDTH 573 0
DWIDTH 7 0
BBX 7 8 0 0
BITMAP
0B80
0FC0
1DD0
2CE0
38F0
7FF4
B074
F038
ENDCHAR
STARTCHAR uni0411
ENCODING 1041
SWIDTH 600 0
DWIDTH 7 0
BBX 6 8 1 0
BITMAP
FFD0
FFD0
E000
F940
E6D0
E0E0
FFE0
FF80
ENDCHAR
STARTCHAR uni0412
ENCODING 1042
SWIDTH 605 0
DWIDTH 7 0
BBX 6 8 1 0
BITMAP
FF80
FFD0
E1D0
E1C0
FFD0
E0E0
FFE0
FF80
ENDCHAR
STARTCHAR uni0413
ENCODING 1043
SWIDTH 521 0
DWIDTH 6 0
BBX 5 8 1 0
BITMAP
FFC0
FFC0
E000
E000
E000
E000
E000
E000
ENDCHAR
STARTCHAR uni0414
ENCODING 1044
SWIDTH 670 0
DWIDTH 8 0
BBX 8 10 0 -2
BITMAP
0BFC
0FFC
1E3C
1D3C
2C3C
383C
FFFF
BFFF
B00E
B00E
ENDCHAR
STARTCHAR uni0415
ENCODING 1045
SWIDTH 548 0
DWIDTH 7 0
BBX 5 8 1 0
BITMAP
FF80
FF80
E000
E000
FF40
E000
FFC0
FFC0
ENDCHAR
STARTCHAR uni0416
ENCODING 1046
SWIDTH 868 0
DWIDTH 10 0
BBX 11 8 0 0
BITMAP
B4B0B4
BCB1F0
1DB380
0FFF40
1DB380
2CB2C0
78B0E0
B0B0B0
ENDCHAR
STARTCHAR uni0417
ENCODING 1047
SWIDTH 564 0
DWIDTH 7 0
BBX 7 8 0 0
BITMAP
1F90
3FF0
10E0
0BD0
00B0
20B4
7FF0
2F90
ENDCHAR
STARTCHAR uni0418
ENCODING 1048
SWIDTH 676 0
DWIDTH 8 0
BBX 7 8 1 0
BITMAP
E0F4
E1F4
E3F4
E7B4
EEB4
FCB4
F8B4
F0B4
ENDCHAR
STARTCHAR uni0419
ENCODING 1049
SWIDTH 676 0
DWIDTH 8 0
BBX 7 10 1 0
BITMAP
39C0
1F80
E0F4
E1F4
E3F4
E7B4
EEB4
FCB4
F8B4
F0B4
ENDCHAR
STARTCHAR uni041A
ENCODING 1050
SWIDTH 622 0
DWIDTH 7 0
BBX 7 8 1 0
BITMAP
E0B4
E2F0
E380
FF00
E780
E2C0
E0E0
E0B4
ENDCHAR
STARTCHAR uni041B
ENCODING 1051
SWIDTH 657 0
DWIDTH 8 0
BBX 7 8 0 0
BITMAP
0BFC
0FFC
0E2C
1D2C
2D2C
3C2C
F82C
F02C
ENDCHAR
STARTCHAR uni041C
ENCODING 1052
SWIDTH 762 0
DWIDTH 9 0
BBX 8 8 1 0
BITMAP
F03D
F47D
F8BD
ECED
EEDD
EB9D
E75D
E11D
ENDCHAR
STARTCHAR uni041D
ENCODING 1053
SWIDTH 674 0
DWIDTH 8 0
BBX 6 8 1 0
BITMAP
E0B0
E0B0
E0B0
FFF0
FFF0
E0B0
E0B0
E0B0
ENDCHAR
STARTCHAR uni041E
ENCODING 1054
SWIDTH 684 0
DWIDTH 8 0
BBX 8 8 0 0
BITMAP
0BE0
2FFC
7C2D
741E
741E
7C2D
2FFC
0BE0
ENDCHAR
STARTCHAR uni041F
ENCODING 1055
SWIDTH 663 0
DWIDTH 8 0
BBX 6 8 1 0
BITMAP
FFF0
FFF0
E0B0
E0B0
E0B0
E0B0
E0B0
E0B0
ENDCHAR
STARTCHAR uni0420
ENCODING 1056
SWIDTH 596 0
DWIDTH 7 0
BBX 6 8 1 0
BITMAP
FF80
FFD0
E1E0
E1D0
FF80
E000
E000
E000
ENDCHAR
STARTCHAR uni0421
ENCODING 1057
SWIDTH 582 0
DWIDTH 7 0
BBX 7 8 0 0
BITMAP
07E0
2FF4
7D10
7400
7400
7D10
2FF8
0BE0
ENDCHAR
STARTCHAR uni0422
ENCODING 1058
SWIDTH 556 0
DWIDTH 7 0
BBX 7 8 0 0
BITMAP
BFF4
BFF4
0B40
0B40
0B40
0B40
0B40
0B40
ENDCHAR
STARTCHAR uni0423
ENCODING 1059
SWIDTH 555 0
DWIDTH 7 0
BBX 7 8 0 0
BITMAP
B078
74B0
3CE0
1ED0
0FC0
0B80
3F00
3D00
ENDCHAR
STARTCHAR uni0424
ENCODING 1060
SWIDTH 764 0
DWIDTH 9 0
BBX 9 8 0 0
BITMAP
01D000
1BF900
3FFF40
75D780
79D780
3FFF40
1BF900
01D000
ENDCHAR
STARTCHAR uni0425
ENCODING 1061
SWIDTH 567 0
DWIDTH 7 0
BBX 7 8 0 0
BITMAP
74B4
3CE0
1ED0
0F80
0F80
2ED0
38F0
B4B4
ENDCHAR
STARTCHAR uni0426
ENCODING 1062
SWIDTH 669 0
DWIDTH 8 0
BBX 7 10 1 -2
BITMAP
E0F0
E0F0
E0F0
E0F0
E0F0
E0F0
FFFC
FFFC
0038
0038
ENDCHAR
STARTCHAR uni0427
ENCODING 1063
SWIDTH 630 0
DWIDTH 8 0
BBX 7 8 0 0
BITMAP
7438
7438
7838
3FF8
1BF8
0038
0038
0038
ENDCHAR
STARTCHAR uni0428
ENCODING 1064
SWIDTH 910 0
DWIDTH 11 0
BBX 9 8 1 0
BITMAP
E1D2C0
E1D2C0
E1D2C0
E1D2C0
E1D2C0
E1D2C0
FFFFC0
FFFFC0
ENDCHAR
STARTCHAR uni0429
ENCODING 1065
SWIDTH 926 0
DWIDTH 11 0
BBX 10 10 1 -2
BITMAP
E1D2C0
E1D2C0
E1D2C0
E1D2C0
E1D2C0
E1D2C0
FFFFF0
FFFFF0
0000B0
0000A0
ENDCHAR
STARTCHAR uni042A
ENCODING 1066
SWIDTH 730 0
DWIDTH 9 0
BBX 9 8 0 0
BITMAP
BF4000
BF4000
074000
07F900
07FF00
074B40
07FF00
07F900
ENDCHAR
STARTCHAR uni042B
ENCODING 1067
SWIDTH 853 0
DWIDTH 10 0
BBX 9 8 1 0
BITMAP
E00740
E00740
E00740
FF4740
FFD740
E1D740
FFD740
FF4740
ENDCHAR
STARTCHAR uni042C
ENCODING 1068
SWIDTH 600 0
DWIDTH 7 0
BBX 6 8 1 0
BITMAP
E000
E000
E000
FF80
FFE0
E1E0
FFE0
FF80
ENDCHAR
STARTCHAR uni042D
ENCODING 1069
SWIDTH 582 0
DWIDTH 7 0
BBX 7 8 0 0
BITMAP
2F80
7FE0
11F4
00B4
0FF4
10B4
BFE0
2F80
ENDCHAR
STARTCHAR uni042E
ENCODING 1070
SWIDTH 950 0
DWIDTH 11 0
BBX 10 8 1 0
BITMAP
E07E40
E1FFC0
E2D2E0
FF80E0
E3C0E0
E2D2E0
E1FFC0
E07E40
ENDCHAR
STARTCHAR uni042F
ENCODING 1071
SWIDTH 617 0
DWIDTH 7 0
BBX 7 8 0 0
BITMAP
1FF4
3FF4
7874
3874
1FF4
1E74
3C74
B474
ENDCHAR
STARTCHAR uni0430
ENCODING 1072
SWIDTH 527 0
DWIDTH 6 0
BBX 6 6 0 0
BITMAP
2F80
11D0
1BE0
79E0
75E0
2EE0
ENDCHAR
STARTCHAR uni0431
ENCODING 1073
SWIDTH 561 0
DWIDTH 7 0
BBX 7 10 0 0
BITMAP
0010
06F0
2FE0
3900
7BD0
78F0
74B4
74B0
38E0
1B80
ENDCHAR
STARTCHAR uni0432
ENCODING 1074
SWIDTH 528 0
DWIDTH 6 0
BBX 6 6 0 0
BITMAP
7FD0
79E0
7FD0
78E0
78E0
7F90
ENDCHAR
STARTCHAR uni0433
ENCODING 1075
SWIDTH 432 0
DWIDTH 5 0
BBX 5 6 0 0
BITMAP
7FC0
7800
7800
7800
7800
7800
ENDCHAR
STARTCHAR uni0434
ENCODING 1076
SWIDTH 584 0
DWIDTH 7 0
BBX 7 8 0 -2
BITMAP
2FF0
28F0
28F0
38F0
74F0
FFFC
E028
A028
ENDCHAR
STARTCHAR uni0435
ENCODING 1077
SWIDTH 518 0
DWIDTH 6 0
BBX 6 6 0 0
BITMAP
1F80
74E0
7FE0
7400
7840
1BD0
ENDCHAR
STARTCHAR uni0436
ENCODING 1078
SWIDTH 761 0
DWIDTH 9 0
BBX 9 6 0 0
BITMAP
B5D680
7DDF80
1FFD00
2DDE00
39D740
B5D380
ENDCHAR
STARTCHAR uni0437
ENCODING 1079
SWIDTH 476 0
DWIDTH 6 0
BBX 6 6 0 0
BITMAP
7F40
12C0
1F80
02D0
12C0
7F40
ENDCHAR
STARTCHAR uni0438
ENCODING 1080
SWIDTH 583 0
DWIDTH 7 0
BBX 7 6 0 0
BITMAP
74B4
75F4
77B4
7B74
7D74
7874
ENDCHAR
STARTCHAR uni0439
ENCODING 1081
SWIDTH 583 0
DWIDTH 7 0
BBX 7 9 0 0
BITMAP
1CE0
0B80
0000
74B4
75F4
77B4
7B74
7D74
7874
ENDCHAR
STARTCHAR uni043A
ENCODING 1082
SWIDTH 546 0
DWIDTH 7 0
BBX 7 6 0 0
BITMAP
74B0
7AF0
7F80
7AC0
78E0
78B4
ENDCHAR
STARTCHAR uni043B
ENCODING 1083
SWIDTH 573 0
DWIDTH 7 0
BBX 6 6 0 0
BITMAP
1FF0
1CB0
2CB0
28B0
B8B0
A0B0
ENDCHAR
STARTCHAR uni043C
ENCODING 1084
SWIDTH 660 0
DWIDTH 8 0
BBX 7 6 0 0
BITMAP
7C3C
7D7C
7AAC
7BEC
779C
755C
ENDCHAR
STARTCHAR uni043D
ENCODING 1085
SWIDTH 582 0
DWIDTH 7 0
BBX 7 6 0 0
BITMAP
78B4
78B4
7FF4
7FF4
78B4
78B4
ENDCHAR
STARTCHAR uni043E
ENCODING 1086
SWIDTH 555 0
DWIDTH 7 0
BBX 6 6 0 0
BITMAP
1B80
78E0
74B0
74B0
78E0
1F80
ENDCHAR
STARTCHAR uni043F
ENCODING 1087
SWIDTH 574 0
DWIDTH 7 0
BBX 6 6 0 0
BITMAP
7FF0
78B0
78B0
78B0
78B0
78B0
ENDCHAR
STARTCHAR uni0440
ENCODING 1088
SWIDTH 573 0
DWIDTH 7 0
BBX 7 8 0 -2
BITMAP
7BD0
78B0
7874
7874
78B0
7BD0
7800
7800
ENDCHAR
STARTCHAR uni0441
ENCODING 1089
SWIDTH 467 0
DWIDTH 6 0
BBX 5 6 0 0
BITMAP
1B80
3800
7400
7400
7840
1F80
ENDCHAR
STARTCHAR uni0442
ENCODING 1090
SWIDTH 492 0
DWIDTH 6 0
BBX 6 6 0 0
BITMAP
BFE0
0E00
0E00
0E00
0E00
0E00
ENDCHAR
STARTCHAR uni0443
ENCODING 1091
SWIDTH 521 0
DWIDTH 6 0
BBX 6 8 0 -2
BITMAP
B0B0
74E0
39D0
1EC0
0F80
0B00
0E00
7800
ENDCHAR
STARTCHAR uni0444
ENCODING 1092
SWIDTH 779 0
DWIDTH 9 0
BBX 9 11 0 -2
BITMAP
01E000
01E000
01E000
1FFE00
79E780
74D380
74D380
79E780
2FFE00
01E000
01E000
ENDCHAR
STARTCHAR uni0445
ENCODING 1093
SWIDTH 514 0
DWIDTH 6 0
BBX 6 6 0 0
BITMAP
74E0
2EC0
1F40
1F40
3AC0
B5E0
ENDCHAR
STARTCHAR uni0446
ENCODING 1094
SWIDTH 595 0
DWIDTH 7 0
BBX 7 8 0 -2
BITMAP
78B0
78B0
78B0
78B0
78B0
7FFC
002C
002C
ENDCHAR
STARTCHAR uni0447
ENCODING 1095
SWIDTH 550 0
DWIDTH 7 0
BBX 6 6 0 0
BITMAP
74E0
74E0
78E0
2FE0
00E0
00E0
ENDCHAR
STARTCHAR uni0448
ENCODING 1096
SWIDTH 803 0
DWIDTH 10 0
BBX 9 6 0 0
BITMAP
78E3C0
78E3C0
78E3C0
78E3C0
78E3C0
7FFFC0
ENDCHAR
STARTCHAR uni0449
ENCODING 1097
SWIDTH 829 0
DWIDTH 10 0
BBX 10 8 0 -2
BITMAP
78E3C0
78E3C0
78E3C0
78E3C0
78E3C0
7FFFE0
0000E0
0000E0
ENDCHAR
STARTCHAR uni044A
ENCODING 1098
SWIDTH 623 0
DWIDTH 7 0
BBX 7 6 0 0
BITMAP
BF00
0F00
0FF4
0F2C
0F2C
0FF4
ENDCHAR
STARTCHAR uni044B
ENCODING 1099
SWIDTH 739 0
DWIDTH 9 0
BBX 8 6 0 0
BITMAP
780B
780B
7F8B
79DB
79DB
7F8B
ENDCHAR
STARTCHAR uni044C
ENCODING 1100
SWIDTH 516 0
DWIDTH 6 0
BBX 6 6 0 0
BITMAP
7800
7800
7F80
79E0
78E0
7F80
ENDCHAR
STARTCHAR uni044D
ENCODING 1101
SWIDTH 467 0
DWIDTH 6 0
BBX 5 6 0 0
BITMAP
7E00
0280
2FC0
02C0
0380
7E00
ENDCHAR
STARTCHAR uni044E
ENCODING 1102
SWIDTH 776 0
DWIDTH 9 0
BBX 9 6 0 0
BITMAP
787E00
79D740
7FC380
7FC380
79D780
787E00
ENDCHAR
STARTCHAR uni044F
ENCODING 1103
SWIDTH 544 0
DWIDTH 7 0
BBX 6 6 0 0
BITMAP
2FE0
38E0
78E0
2FE0
2CE0
74E0
ENDCHAR
STARTCHAR uni0450
ENCODING 1104
SWIDTH 518 0
DWIDTH 6 0
BBX 6 10 0 0
BITMAP
1800
2D00
0600
0000
1F80
74E0
7FE0
7400
7840
1BD0
ENDCHAR
STARTCHAR uni0451
ENCODING 1105
SWIDTH 518 0
DWIDTH 6 0
BBX 6 9 0 0
BITMAP
28D0
28D0
0000
1F80
74E0
7FE0
7400
7840
1BD0
ENDCHAR
STARTCHAR uni0452
ENCODING 1106
SWIDTH 572 0
DWIDTH 7 0
BBX 7 11 0 -2
BITMAP
7800
FF80
7800
7AD0
78B0
7874
7874
7874
78B4
00F0
0390
ENDCHAR
STARTCHAR uni0453
ENCODING 1107
SWIDTH 432 0
DWIDTH 5 0
BBX 5 10 0 0
BITMAP
0180
0780
0600
0000
7FC0
7800
7800
7800
7800
7800
ENDCHAR
STARTCHAR uni0454
ENCODING 1108
SWIDTH 467 0
DWIDTH 6 0
BBX 5 6 0 0
BITMAP
1B80
7440
7F00
7400
7840
1F80
ENDCHAR
STARTCHAR uni0455
ENCODING 1109
SWIDTH 443 0
DWIDTH 5 0
BBX 5 6 0 0
BITMAP
2F80
7540
7E00
1B80
12C0
7F40
ENDCHAR
STARTCHAR uni0456
ENCODING 1110
SWIDTH 276 0
DWIDTH 3 0
BBX 3 9 0 0
BITMAP
24
74
00
78
78
78
78
78
78
ENDCHAR
STARTCHAR uni0457
ENCODING 1111
SWIDTH 276 0
DWIDTH 3 0
BBX 5 9 -1 0
BITMAP
7280
7280
0000
1E00
1E00
1E00
1E00
1E00
1E00
ENDCHAR
STARTCHAR uni0458
ENCODING 1112
SWIDTH 278 0
DWIDTH 3 0
BBX 4 11 -1 -2
BITMAP
09
1D
00
1E
1E
1E
1E
1E
1E
1D
78
ENDCHAR
STARTCHAR uni0459
ENCODING 1113
SWIDTH 780 0
DWIDTH 9 0
BBX 9 6 0 0
BITMAP
1FF000
1CF000
2CFE40
2CF380
B8F380
B4FE40
ENDCHAR
STARTCHAR uni045A
ENCODING 1114
SWIDTH 788 0
DWIDTH 9 0
BBX 9 6 0 0
BITMAP
78B000
78B000
7FFF40
7FF2C0
78B2C0
78BF40
ENDCHAR
STARTCHAR uni045B
ENCODING 1115
SWIDTH 571 0
DWIDTH 7 0
BBX 6 9 0 0
BITMAP
7800
FF80
7800
7A90
7DB0
78B0
78B0
78B0
78B0
ENDCHAR
STARTCHAR uni045C
ENCODING 1116
SWIDTH 546 0
DWIDTH 7 0
BBX 7 10 0 0
BITMAP
0090
02D0
0240
0000
74B0
7AF0
7F80
7AC0
78E0
78B4
ENDCHAR
STARTCHAR uni045D
ENCODING 1117
SWIDTH 583 0
DWIDTH 7 0
BBX 7 10 0 0
BITMAP
1800
1E00
0600
0000
74B4
75F4
77B4
7B74
7D74
7874
ENDCHAR
STARTCHAR uni045E
ENCODING 1118
SWIDTH 521 0
DWIDTH 6 0
BBX 6 11 0 -2
BITMAP
29C0
1F80
0000
B0B0
74E0
39D0
1EC0
0F80
0B00
0E00
7800
ENDCHAR
STARTCHAR uni045F
ENCODING 1119
SWIDTH 578 0
DWIDTH 7 0
BBX 7 8 0 -2
BITMAP
78B4
78B4
78B4
78B4
78B4
7FF4
0740
0740
ENDCHAR
STARTCHAR uni0462
ENCODING 1122
SWIDTH 624 0
DWIDTH 7 0
BBX 7 8 0 0
BITMAP
1E00
BFF0
1E00
1FE4
1E3C
1E3C
1FF8
1FE0
ENDCHAR
STARTCHAR uni0463
ENCODING 1123
SWIDTH 600 0
DWIDTH 7 0
BBX 7 7 0 0
BITMAP
0E00
BFE0
0E00
0FE0
0E38
0E38
0FE0
ENDCHAR
STARTCHAR uni0472
ENCODING 1138
SWIDTH 684 0
DWIDTH 8 0
BBX 8 8 0 0
BITMAP
0BE0
2FFC
782D
7FFE
741E
7C2D
2FFC
0BE0
ENDCHAR
STARTCHAR uni0473
ENCODING 1139
SWIDTH 555 0
DWIDTH 7 0
BBX 6 6 0 0
BITMAP
1F80
74A0
7FF0
74B0
78E0
1F80
ENDCHAR
STARTCHAR uni0474
ENCODING 1140
SWIDTH 574 0
DWIDTH 7 0
BBX 8 8 0 0
BITMAP
F02D
B07C
74B0
38E0
2DD0
1ED0
0FC0
0F80
ENDCHAR
STARTCHAR uni0475
ENCODING 1141
SWIDTH 533 0
DWIDTH 6 0
BBX 7 6 0 0
BITMAP
B078
74F4
39D0
2EC0
1F80
0F40
ENDCHAR
STARTCHAR uni0490
ENCODING 1168
SWIDTH 521 0
DWIDTH 6 0
BBX 5 10 1 0
BITMAP
02C0
02C0
FFC0
FFC0
E000
E000
E000
E000
E000
E000
ENDCHAR
STARTCHAR uni0491
ENCODING 1169
SWIDTH 433 0
DWIDTH 5 0
BBX 5 8 0 0
BITMAP
02C0
02C0
7FC0
7800
7800
7800
7800
7800
ENDCHAR
STARTCHAR uni0492
ENCODING 1170
SWIDTH 546 0
DWIDTH 7 0
BBX 6 8 0 0
BITMAP
2FF0
2FF0
2C00
2C00
BF40
2C00
2C00
2C00
ENDCHAR
STARTCHAR uni0493
ENCODING 1171
SWIDTH 457 0
DWIDTH 5 0
BBX 6 6 0 0
BITMAP
3FD0
3C00
3C00
BF40
3C00
3C00
ENDCHAR
STARTCHAR uni0496
ENCODING 1174
SWIDTH 905 0
DWIDTH 11 0
BBX 11 10 0 -2
BITMAP
B4B0B4
BCB1F0
1DB380
0FFF40
1DB380
2CB2D0
78B0F8
B0B0B8
000038
000038
ENDCHAR
STARTCHAR uni0497
ENCODING 1175
SWIDTH 803 0
DWIDTH 10 0
BBX 10 8 0 -2
BITMAP
B5D680
7DDF80
1FFD00
2DDE00
39D700
B5D3E0
0000D0
0000D0
ENDCHAR
STARTCHAR uni0498
ENCODING 1176
SWIDTH 564 0
DWIDTH 7 0
BBX 7 10 0 -2
BITMAP
1F90
3FF0
10E0
0BD0
00B0
20B4
7FF0
2FD0
0740
0740
ENDCHAR
STARTCHAR uni0499
ENCODING 1177
SWIDTH 476 0
DWIDTH 6 0
BBX 6 8 0 -2
BITMAP
7F40
12C0
1F80
02C0
12D0
7F80
0E00
0D00
ENDCHAR
STARTCHAR uni049A
ENCODING 1178
SWIDTH 667 0
DWIDTH 8 0
BBX 7 10 1 -2
BITMAP
E0B4
E2F0
E380
FF00
E780
E2D0
E0FC
E0B8
0038
0038
ENDCHAR
STARTCHAR uni049B
ENCODING 1179
SWIDTH 588 0
DWIDTH 7 0
BBX 7 8 0 -2
BITMAP
78B0
7AF0
7F80
7AC0
78D0
78BC
002C
0028
ENDCHAR
STARTCHAR uni04A0
ENCODING 1184
SWIDTH 749 0
DWIDTH 9 0
BBX 9 8 0 0
BITMAP
BF4780
BF4F80
0B6D00
0BF800
0B6D00
0B4E00
0B4740
050140
ENDCHAR
STARTCHAR uni04A1
ENCODING 1185
SWIDTH 656 0
DWIDTH 8 0
BBX 8 6 0 0
BITMAP
BF2D
0F7C
0FF0
0F74
0F2C
0F1D
ENDCHAR
STARTCHAR uni04A2
ENCODING 1186
SWIDTH 689 0
DWIDTH 8 0
BBX 7 10 1 -2
BITMAP
E0B0
E0B0
E0B0
E0B0
FFF0
E0B0
E0BC
E0BC
002C
002C
ENDCHAR
STARTCHAR uni04A3
ENCODING 1187
SWIDTH 608 0
DWIDTH 7 0
BBX 7 8 0 -2
BITMAP
78B4
78B4
7FF4
7FF4
78B4
78BC
002C
002C
ENDCHAR
STARTCHAR uni04AA
ENCODING 1194
SWIDTH 582 0
DWIDTH 7 0
BBX 7 10 0 -2
BITMAP
0BE0
2FF4
7D10
7400
7400
7D10
2FF8
0BE0
02C0
02C0
ENDCHAR
STARTCHAR uni04AB
ENCODING 1195
SWIDTH 467 0
DWIDTH 6 0
BBX 5 8 0 -2
BITMAP
1B80
3800
7400
B400
7840
1FC0
0B40
0700
ENDCHAR
STARTCHAR uni04AE
ENCODING 1198
SWIDTH 525 0
DWIDTH 6 0
BBX 6 8 0 0
BITMAP
F0B0
74E0
39D0
1F80
0F40
0B00
0B00
0B00
ENDCHAR
STARTCHAR uni04AF
ENCODING 1199
SWIDTH 523 0
DWIDTH 6 0
BBX 6 8 0 -2
BITMAP
B0B0
74E0
39D0
2EC0
1F80
0F40
0B00
0B00
ENDCHAR
STARTCHAR uni04B0
ENCODING 1200
SWIDTH 525 0
DWIDTH 6 0
BBX 6 8 0 0
BITMAP
B0B0
74E0
29C0
1F80
7FE0
0B00
0B00
0B00
ENDCHAR
STARTCHAR uni04B1
ENCODING 1201
SWIDTH 523 0
DWIDTH 6 0
BBX 6 8 0 -2
BITMAP
B0B0
74E0
39D0
2EC0
1F80
7FE0
0B00
0B00
ENDCHAR
STARTCHAR uni04B2
ENCODING 1202
SWIDTH 605 0
DWIDTH 7 0
BBX 7 10 0 -2
BITMAP
74B4
3CE0
1ED0
0F80
0F80
2EE0
38FC
B4BC
002C
002C
ENDCHAR
STARTCHAR uni04B3
ENCODING 1203
SWIDTH 548 0
DWIDTH 7 0
BBX 7 8 0 -2
BITMAP
74E0
2EC0
1F40
1F40
3AC0
B5F4
0074
0074
ENDCHAR
STARTCHAR uni04B6
ENCODING 1206
SWIDTH 645 0
DWIDTH 8 0
BBX 8 10 0 -2
BITMAP
7438
7438
7838
3FF8
1BF8
0038
003E
003E
000E
000D
ENDCHAR
STARTCHAR uni04B7
ENCODING 1207
SWIDTH 575 0
DWIDTH 7 0
BBX 7 8 0 -2
BITMAP
74E0
74E0
78E0
2FE0
00E0
00F8
0038
0038
ENDCHAR
STARTCHAR uni04BA
ENCODING 1210
SWIDTH 630 0
DWIDTH 8 0
BBX 6 8 1 0
BITMAP
E000
E000
E000
FF80
FFE0
E1E0
E0E0
E0E0
ENDCHAR
STARTCHAR uni04BB
ENCODING 1211
SWIDTH 571 0
DWIDTH 7 0
BBX 6 9 0 0
BITMAP
7800
7800
7800
7AD0
78B0
78B0
78B0
78B0
78B0
ENDCHAR
STARTCHAR uni04C0
ENCODING 1216
SWIDTH 301 0
DWIDTH 4 0
BBX 2 8 1 0
BITMAP
E0
E0
E0
E0
E0
E0
E0
E0
ENDCHAR
STARTCHAR uni04C1
ENCODING 1217
SWIDTH 868 0
DWIDTH 10 0
BBX 11 10 0 0
BITMAP
039D00
01F800
B4B0B4
BCB1F0
1DB380
0FFF40
1DB380
2CB2C0
78B0E0
B0B0B0
ENDCHAR
STARTCHAR uni04C2
ENCODING 1218
SWIDTH 761 0
DWIDTH 9 0
BBX 9 9 0 0
BITMAP
073800
02E000
000000
B5D680
7DDF80
1FFD00
2DDE00
39D740
B5D380
ENDCHAR
STARTCHAR uni04CF
ENCODING 1231
SWIDTH 286 0
DWIDTH 3 0
BBX 4 9 0 0
BITMAP
78
78
78
78
78
78
78
38
2D
ENDCHAR
STARTCHAR uni04D0
ENCODING 1232
SWIDTH 573 0
DWIDTH 7 0
BBX 7 10 0 0
BITMAP
2CD0
0B80
0B80
0FC0
1DD0
2CE0
38F0
7FF4
B074
F038
ENDCHAR
STARTCHAR uni04D1
ENCODING 1233
SWIDTH 527 0
DWIDTH 6 0
BBX 6 9 0 0
BITMAP
29D0
1F80
0000
2F80
11D0
1BE0
79E0
75E0
2EE0
ENDCHAR
STARTCHAR uni04D4
ENCODING 1236
SWIDTH 845 0
DWIDTH 10 0
BBX 10 8 0 0
BITMAP
02FFD0
03FFD0
0BB400
0E7400
2D7FC0
3FF400
747FE0
F07FE0
ENDCHAR
STARTCHAR uni04D5
ENCODING 1237
SWIDTH 786 0
DWIDTH 9 0
BBX 9 6 0 0
BITMAP
2F6E40
11E280
1BFFC0
79E000
75F000
2E6F40
ENDCHAR
STARTCHAR uni04D6
ENCODING 1238
SWIDTH 548 0
DWIDTH 7 0
BBX 5 10 1 0
BITMAP
B340
2E00
FF80
FF80
E000
E000
FF40
E000
FFC0
FFC0
ENDCHAR
STARTCHAR uni04D7
ENCODING 1239
SWIDTH 518 0
DWIDTH 6 0
BBX 6 9 0 0
BITMAP
29D0
1F80
0000
1F80
74E0
7FE0
7400
7840
1BD0
ENDCHAR
STARTCHAR uni04D8
ENCODING 1240
SWIDTH 675 0
DWIDTH 8 0
BBX 8 8 0 0
BITMAP
0BE0
1FFC
042D
001D
7FFD
782D
2FFC
0BE0
ENDCHAR
STARTCHAR uni04D9
ENCODING 1241
SWIDTH 518 0
DWIDTH 6 0
BBX 6 6 0 0
BITMAP
2F80
11D0
BFE0
70E0
75D0
1F40
ENDCHAR
STARTCHAR uni04E2
ENCODING 1250
SWIDTH 676 0
DWIDTH 8 0
BBX 7 10 1 0
BITMAP
2FC0
0000
E0F4
E1F4
E3F4
E7B4
EEB4
FCB4
F8B4
F0B4
ENDCHAR
STARTCHAR uni04E3
ENCODING 1251
SWIDTH 583 0
DWIDTH 7 0
BBX 7 8 0 0
BITMAP
1FD0
0000
74B4
75F4
77B4
7B74
7D74
7874
ENDCHAR
STARTCHAR uni04E6
ENCODING 1254
SWIDTH 684 0
DWIDTH 8 0
BBX 8 10 0 0
BITMAP
0D70
0D70
0BE0
2FFC
7C2D
741E
741E
7C2D
2FFC
0BE0
ENDCHAR
STARTCHAR uni04E7
ENCODING 1255
SWIDTH 555 0
DWIDTH 7 0
BBX 6 9 0 0
BITMAP
28D0
28D0
0000
1B80
78E0
74B0
74B0
78E0
1F80
ENDCHAR
STARTCHAR uni04E8
ENCODING 1256
SWIDTH 684 0
DWIDTH 8 0
BBX 8 8 0 0
BITMAP
0BE0
2FFC
782D
7FFE
741E
7C2D
2FFC
0BE0
ENDCHAR
STARTCHAR uni04E9
ENCODING 1257
SWIDTH 555 0
DWIDTH 7 0
BBX 6 6 0 0
BITMAP
1F80
74A0
7FF0
74B0
78E0
1F80
ENDCHAR
STARTCHAR uni04EE
ENCODING 1262
SWIDTH 555 0
DWIDTH 7 0
BBX 7 10 0 0
BITMAP
1FD0
0000
B078
74B0
3CE0
1ED0
0FC0
0B80
3F00
3D00
ENDCHAR
STARTCHAR uni04EF
ENCODING 1263
SWIDTH 521 0
DWIDTH 6 0
BBX 6 10 0 -2
BITMAP
2FC0
0000
B0B0
74E0
39D0
1EC0
0F80
0B00
0E00
7800
ENDCHAR
STARTCHAR uni04F2
ENCODING 1266
SWIDTH 555 0
DWIDTH 7 0
BBX 7 10 0 0
BITMAP
0620
0990
B078
74B0
3CE0
1ED0
0FC0
0B80
3F00
3D00
ENDCHAR
STARTCHAR uni04F3
ENCODING 1267
SWIDTH 521 0
DWIDTH 6 0
BBX 6 11 0 -2
BITMAP
0AA0
08D0
0000
B0B0
74E0
39D0
1EC0
0F80
0B00
0E00
7800
ENDCHAR
STARTCHAR a.sups
ENCODING 7491
SWIDTH 359 0
DWIDTH 4 0
BBX 4 5 0 4
BITMAP
7D
0A
2F
AB
7A
ENDCHAR
STARTCHAR b.sups
ENCODING 7495
SWIDTH 385 0
DWIDTH 5 0
BBX 5 6 0 4
BITMAP
A000
BE00
B340
A340
A700
AE00
ENDCHAR
STARTCHAR d.sups
ENCODING 7496
SWIDTH 385 0
DWIDTH 5 0
BBX 4 6 0 4
BITMAP
03
2F
A7
A3
A7
3B
ENDCHAR
STARTCHAR e.sups
ENCODING 7497
SWIDTH 346 0
DWIDTH 4 0
BBX 4 5 0 4
BITMAP
2D
A6
BF
A0
2D
ENDCHAR
STARTCHAR g.sups
ENCODING 7501
SWIDTH 361 0
DWIDTH 4 0
BBX 4 6 0 3
BITMAP
7F
AA
7D
60
7F
BE
ENDCHAR
STARTCHAR k.sups
ENCODING 7503
SWIDTH 371 0
DWIDTH 4 0
BBX 4 5 0 5
BITMAP
A0
A0
AA
BD
A7
ENDCHAR
STARTCHAR m.sups
ENCODING 7504
SWIDTH 577 0
DWIDTH 7 0
BBX 7 4 0 5
BITMAP
6EB4
A774
A324
A324
ENDCHAR
STARTCHAR o.sups
ENCODING 7506
SWIDTH 373 0
DWIDTH 4 0
BBX 4 5 0 4
BITMAP
2D
A7
A3
A7
2D
ENDCHAR
STARTCHAR p.sups
ENCODING 7510
SWIDTH 385 0
DWIDTH 5 0
BBX 5 6 0 3
BITMAP
AE00
B340
A340
A700
BE00
A000
ENDCHAR
STARTCHAR t.sups
ENCODING 7511
SWIDTH 259 0
DWIDTH 3 0
BBX 3 6 0 4
BITMAP
70
FC
70
70
70
2C
ENDCHAR
STARTCHAR u.sups
ENCODING 7512
SWIDTH 383 0
DWIDTH 5 0
BBX 4 5 0 4
BITMAP
A3
A3
A3
67
7B
ENDCHAR
STARTCHAR v.sups
ENCODING 7515
SWIDTH 355 0
DWIDTH 4 0
BBX 4 4 0 5
BITMAP
93
66
39
2C
ENDCHAR
STARTCHAR c.sups
ENCODING 7580
SWIDTH 313 0
DWIDTH 4 0
BBX 4 5 0 4
BITMAP
2D
A0
A0
A0
2D
ENDCHAR
STARTCHAR f.sups
ENCODING 7584
SWIDTH 232 0
DWIDTH 3 0
BBX 3 5 0 5
BITMAP
2C
70
B8
70
70
ENDCHAR
STARTCHAR z.sups
ENCODING 7611
SWIDTH 312 0
DWIDTH 4 0
BBX 4 3 0 5
BITMAP
BD
28
BE
ENDCHAR
STARTCHAR uni1E06
ENCODING 7686
SWIDTH 605 0
DWIDTH 7 0
BBX 6 10 1 -2
BITMAP
FF80
FFD0
E1D0
E1C0
FFD0
E0E0
FFE0
FF80
0000
3F80
ENDCHAR
STARTCHAR uni1E07
ENCODING 7687
SWIDTH 573 0
DWIDTH 7 0
BBX 7 11 0 -2
BITMAP
7800
7800
7800
7BD0
78B0
7874
7874
78B0
7BD0
0000
1FD0
ENDCHAR
STARTCHAR uni1E0C
ENCODING 7692
SWIDTH 635 0
DWIDTH 8 0
BBX 6 11 1 -3
BITMAP
FE40
FFD0
E1F0
E0F0
E0F0
E1F0
FFD0
FE40
0000
0E00
0E00
ENDCHAR
STARTCHAR uni1E0D
ENCODING 7693
SWIDTH 573 0
DWIDTH 7 0
BBX 6 12 0 -3
BITMAP
00B0
00B0
00B0
1FB0
78B0
74B0
74B0
78F0
1FB0
0000
0380
0380
ENDCHAR
STARTCHAR uni1E0E
ENCODING 7694
SWIDTH 635 0
DWIDTH 8 0
BBX 6 10 1 -2
BITMAP
FE40
FFD0
E1F0
E0F0
E0F0
E1F0
FFD0
FE40
0000
3F80
ENDCHAR
STARTCHAR uni1E0F
ENCODING 7695
SWIDTH 573 0
DWIDTH 7 0
BBX 6 11 0 -2
BITMAP
00B0
00B0
00B0
1FB0
78B0
74B0
74B0
78F0
1FB0
0000
0FE0
ENDCHAR
STARTCHAR uni1E16
ENCODING 7702
SWIDTH 548 0
DWIDTH 7 0
BBX 5 13 1 0
BITMAP
0600
1900
0000
7F40
0000
FF80
FF80
E000
E000
FF40
E000
FFC0
FFC0
ENDCHAR
STARTCHAR uni1E17
ENCODING 7703
SWIDTH 518 0
DWIDTH 6 0
BBX 6 11 0 0
BITMAP
0240
0600
0000
2FC0
0000
1F80
74E0
7FE0
7400
7840
1BD0
ENDCHAR
STARTCHAR uni1E20
ENCODING 7712
SWIDTH 638 0
DWIDTH 8 0
BBX 7 10 0 0
BITMAP
07F4
0000
07E0
2FF8
7D10
7400
74FC
7D2C
2FFC
0BE4
ENDCHAR
STARTCHAR uni1E21
ENCODING 7713
SWIDTH 534 0
DWIDTH 6 0
BBX 6 10 0 -2
BITMAP
1FC0
0000
2FF0
75D0
75D0
3F80
7400
3FE0
70B0
6F90
ENDCHAR
STARTCHAR uni1E24
ENCODING 7716
SWIDTH 674 0
DWIDTH 8 0
BBX 6 11 1 -3
BITMAP
E0B0
E0B0
E0B0
FFF0
FFF0
E0B0
E0B0
E0B0
0000
0A00
0A00
ENDCHAR
STARTCHAR uni1E25
ENCODING 7717
SWIDTH 571 0
DWIDTH 7 0
BBX 6 12 0 -3
BITMAP
7800
7800
7800
7AD0
78B0
78B0
78B0
78B0
78B0
0000
0740
0740
ENDCHAR
STARTCHAR uni1E2A
ENCODING 7722
SWIDTH 674 0
DWIDTH 8 0
BBX 6 11 1 -3
BITMAP
E0B0
E0B0
E0B0
FFF0
FFF0
E0B0
E0B0
E0B0
0000
35C0
1F40
ENDCHAR
STARTCHAR uni1E2B
ENCODING 7723
SWIDTH 571 0
DWIDTH 7 0
BBX 6 12 0 -3
BITMAP
7800
7800
7800
7AD0
78B0
78B0
78B0
78B0
78B0
0000
1890
0B80
ENDCHAR
STARTCHAR uni1E32
ENCODING 7730
SWIDTH 614 0
DWIDTH 7 0
BBX 6 11 1 -3
BITMAP
E1E0
E3C0
EB40
FF00
FF40
F3C0
E1E0
E0B0
0000
0A00
0A00
ENDCHAR
STARTCHAR uni1E33
ENCODING 7731
SWIDTH 548 0
DWIDTH 7 0
BBX 7 12 0 -3
BITMAP
7800
7800
7800
78F0
7AC0
7F40
7FC0
79E0
78B4
0000
0740
0740
ENDCHAR
STARTCHAR uni1E34
ENCODING 7732
SWIDTH 614 0
DWIDTH 7 0
BBX 6 10 1 -2
BITMAP
E1E0
E3C0
EB40
FF00
FF40
F3C0
E1E0
E0B0
0000
2F80
ENDCHAR
STARTCHAR uni1E35
ENCODING 7733
SWIDTH 548 0
DWIDTH 7 0
BBX 7 11 0 -2
BITMAP
7800
7800
7800
78F0
7AC0
7F40
7FC0
79E0
78B4
0000
1FD0
ENDCHAR
STARTCHAR uni1E36
ENCODING 7734
SWIDTH 518 0
DWIDTH 6 0
BBX 5 11 1 -3
BITMAP
E000
E000
E000
E000
E000
E000
FF80
FF80
0000
1D00
1D00
ENDCHAR
STARTCHAR uni1E37
ENCODING 7735
SWIDTH 286 0
DWIDTH 3 0
BBX 4 12 0 -3
BITMAP
78
78
78
78
78
78
78
38
2D
00
2C
2C
ENDCHAR
STARTCHAR uni1E38
ENCODING 7736
SWIDTH 518 0
DWIDTH 6 0
BBX 6 13 0 -3
BITMAP
FE00
0000
3800
3800
3800
3800
3800
3800
3FE0
3FE0
0000
0740
0740
ENDCHAR
STARTCHAR uni1E39
ENCODING 7737
SWIDTH 286 0
DWIDTH 3 0
BBX 4 14 0 -3
BITMAP
FD
00
78
78
78
78
78
78
78
38
2D
00
2C
2C
ENDCHAR
STARTCHAR uni1E3A
ENCODING 7738
SWIDTH 518 0
DWIDTH 6 0
BBX 5 10 1 -2
BITMAP
E000
E000
E000
E000
E000
E000
FF80
FF80
0000
7F40
ENDCHAR
STARTCHAR uni1E3B
ENCODING 7739
SWIDTH 286 0
DWIDTH 3 0
BBX 4 11 0 -2
BITMAP
78
78
78
78
78
78
78
38
2D
00
BF
ENDCHAR
STARTCHAR uni1E3E
ENCODING 7742
SWIDTH 762 0
DWIDTH 9 0
BBX 8 11 1 0
BITMAP
0080
02D0
0240
F03D
F47D
F8BD
ECED
EEDD
EB9D
E75D
E11D
ENDCHAR
STARTCHAR uni1E3F
ENCODING 7743
SWIDTH 857 0
DWIDTH 10 0
BBX 10 10 0 0
BITMAP
000800
003D00
006000
000000
7BDB80
78F5D0
78B1E0
78B1E0
78B1E0
78B1E0
ENDCHAR
STARTCHAR uni1E40
ENCODING 7744
SWIDTH 762 0
DWIDTH 9 0
BBX 8 10 1 0
BITMAP
0740
0740
F03D
F47D
F8BD
ECED
EEDD
EB9D
E75D
E11D
ENDCHAR
STARTCHAR uni1E41
ENCODING 7745
SWIDTH 857 0
DWIDTH 10 0
BBX 10 9 0 0
BITMAP
00B000
00B000
000000
7BDB80
78F5D0
78B1E0
78B1E0
78B1E0
78B1E0
ENDCHAR
STARTCHAR uni1E42
ENCODING 7746
SWIDTH 762 0
DWIDTH 9 0
BBX 8 11 1 -3
BITMAP
F03D
F47D
F8BD
ECED
EEDD
EB9D
E75D
E11D
0000
0740
0740
ENDCHAR
STARTCHAR uni1E43
ENCODING 7747
SWIDTH 857 0
DWIDTH 10 0
BBX 10 9 0 -3
BITMAP
7BDB80
78F5D0
78B1E0
78B1E0
78B1E0
78B1E0
000000
007000
00B000
ENDCHAR
STARTCHAR uni1E44
ENCODING 7748
SWIDTH 665 0
DWIDTH 8 0
BBX 6 10 1 0
BITMAP
0A00
0A00
F0B0
F8B0
FCB0
EEB0
EBB0
E3F0
E2F0
E0F0
ENDCHAR
STARTCHAR uni1E45
ENCODING 7749
SWIDTH 572 0
DWIDTH 7 0
BBX 6 9 0 0
BITMAP
0340
0340
0000
7AD0
78B0
78B0
78B0
78B0
78B0
ENDCHAR
STARTCHAR uni1E46
ENCODING 7750
SWIDTH 665 0
DWIDTH 8 0
BBX 6 11 1 -3
BITMAP
F0B0
F8B0
FCB0
EEB0
EBB0
E3F0
E2F0
E0F0
0000
0B00
0B00
ENDCHAR
STARTCHAR uni1E47
ENCODING 7751
SWIDTH 572 0
DWIDTH 7 0
BBX 6 9 0 -3
BITMAP
7AD0
78B0
78B0
78B0
78B0
78B0
0000
0740
0740
ENDCHAR
STARTCHAR uni1E48
ENCODING 7752
SWIDTH 665 0
DWIDTH 8 0
BBX 6 10 1 -2
BITMAP
F0B0
F8B0
FCB0
EEB0
EBB0
E3F0
E2F0
E0F0
0000
2FC0
ENDCHAR
STARTCHAR uni1E49
ENCODING 7753
SWIDTH 572 0
DWIDTH 7 0
BBX 6 8 0 -2
BITMAP
7AD0
78B0
78B0
78B0
78B0
78B0
0000
1FD0
ENDCHAR
STARTCHAR uni1E52
ENCODING 7762
SWIDTH 684 0
DWIDTH 8 0
BBX 8 13 0 0
BITMAP
0090
0280
0000
0BF0
0000
0BE0
2FFC
7C2D
741E
741E
7C2D
2FFC
0BE0
ENDCHAR
STARTCHAR uni1E53
ENCODING 7763
SWIDTH 555 0
DWIDTH 7 0
BBX 6 11 0 0
BITMAP
0280
0600
0000
1FC0
0000
1B80
78E0
74B0
74B0
78E0
1F80
ENDCHAR
STARTCHAR uni1E58
ENCODING 7768
SWIDTH 613 0
DWIDTH 7 0
BBX 6 10 1 0
BITMAP
0D00
0D00
FF80
FFE0
E1E0
E1E0
FF80
E380
E2D0
E0F0
ENDCHAR
STARTCHAR uni1E59
ENCODING 7769
SWIDTH 398 0
DWIDTH 5 0
BBX 5 9 0 0
BITMAP
0A00
0A00
0000
7780
7F80
7800
7800
7800
7800
ENDCHAR
STARTCHAR uni1E5A
ENCODING 7770
SWIDTH 613 0
DWIDTH 7 0
BBX 6 11 1 -3
BITMAP
FF80
FFE0
E1E0
E1E0
FF80
E380
E2D0
E0F0
0000
0E00
0E00
ENDCHAR
STARTCHAR uni1E5B
ENCODING 7771
SWIDTH 398 0
DWIDTH 5 0
BBX 5 9 0 -3
BITMAP
7780
7F80
7800
7800
7800
7800
0000
3400
3400
ENDCHAR
STARTCHAR uni1E5C
ENCODING 7772
SWIDTH 613 0
DWIDTH 7 0
BBX 6 13 1 -3
BITMAP
3F80
0000
FF80
FFE0
E1E0
E1E0
FF80
E380
E2D0
E0F0
0000
0E00
0E00
ENDCHAR
STARTCHAR uni1E5D
ENCODING 7773
SWIDTH 398 0
DWIDTH 5 0
BBX 5 11 0 -3
BITMAP
2F80
0000
7780
7F80
7800
7800
7800
7800
0000
3400
3400
ENDCHAR
STARTCHAR uni1E5E
ENCODING 7774
SWIDTH 613 0
DWIDTH 7 0
BBX 6 10 1 -2
BITMAP
FF80
FFE0
E1E0
E1E0
FF80
E380
E2D0
E0F0
0000
3F80
ENDCHAR
STARTCHAR uni1E5F
ENCODING 7775
SWIDTH 398 0
DWIDTH 5 0
BBX 5 8 0 -2
BITMAP
7780
7F80
7800
7800
7800
7800
0000
FD00
ENDCHAR
STARTCHAR uni1E60
ENCODING 7776
SWIDTH 556 0
DWIDTH 7 0
BBX 7 10 0 0
BITMAP
0740
0740
1B90
3FE0
7850
2F80
07F0
24B4
7FF0
1F90
ENDCHAR
STARTCHAR uni1E61
ENCODING 7777
SWIDTH 443 0
DWIDTH 5 0
BBX 5 9 0 0
BITMAP
0E00
0E00
0000
2F80
7540
7E00
1B80
12C0
7F40
ENDCHAR
STARTCHAR uni1E62
ENCODING 7778
SWIDTH 556 0
DWIDTH 7 0
BBX 7 11 0 -3
BITMAP
1B90
3FE0
7850
2F80
07F0
24B4
7FF0
1F90
0000
0740
0740
ENDCHAR
STARTCHAR uni1E63
ENCODING 7779
SWIDTH 443 0
DWIDTH 5 0
BBX 5 9 0 -3
BITMAP
2F80
7540
7E00
1B80
12C0
7F40
0000
0E00
0E00
ENDCHAR
STARTCHAR uni1E6C
ENCODING 7788
SWIDTH 556 0
DWIDTH 7 0
BBX 7 11 0 -3
BITMAP
BFF4
BFF4
0B40
0B40
0B40
0B40
0B40
0B40
0000
0700
0700
ENDCHAR
STARTCHAR uni1E6D
ENCODING 7789
SWIDTH 383 0
DWIDTH 5 0
BBX 5 11 0 -3
BITMAP
2800
3800
BF40
3800
3800
3800
3C00
1F40
0000
0E00
0E00
ENDCHAR
STARTCHAR uni1E6E
ENCODING 7790
SWIDTH 556 0
DWIDTH 7 0
BBX 7 10 0 -2
BITMAP
BFF4
BFF4
0B40
0B40
0B40
0B40
0B40
0B40
0000
1FC0
ENDCHAR
STARTCHAR uni1E6F
ENCODING 7791
SWIDTH 383 0
DWIDTH 5 0
BBX 5 10 0 -2
BITMAP
2800
3800
BF40
3800
3800
3800
3C00
1F40
0000
3F80
ENDCHAR
STARTCHAR Wgrave
ENCODING 7808
SWIDTH 813 0
DWIDTH 10 0
BBX 10 11 0 0
BITMAP
024000
02D000
009000
B0E0E0
B4F1D0
75F5C0
76B6C0
3AAA80
2B6F80
2F1F40
1F0F40
ENDCHAR
STARTCHAR wgrave
ENCODING 7809
SWIDTH 776 0
DWIDTH 9 0
BBX 9 10 0 0
BITMAP
020000
078000
008000
000000
B1E2C0
75E380
3AB740
3B7B40
2F2F00
1F2E00
ENDCHAR
STARTCHAR Wacute
ENCODING 7810
SWIDTH 813 0
DWIDTH 10 0
BBX 10 11 0 0
BITMAP
002400
00B800
009000
B0E0E0
B4F1D0
75F5C0
76B6C0
3AAA80
2B6F80
2F1F40
1F0F40
ENDCHAR
STARTCHAR wacute
ENCODING 7811
SWIDTH 776 0
DWIDTH 9 0
BBX 9 10 0 0
BITMAP
002400
00B800
009000
000000
B1E2C0
75E380
3AB740
3B7B40
2F2F00
1F2E00
ENDCHAR
STARTCHAR Wdieresis
ENCODING 7812
SWIDTH 813 0
DWIDTH 10 0
BBX 10 10 0 0
BITMAP
035800
035800
B0E0E0
B4F1D0
75F5C0
76B6C0
3AAA80
2B6F80
2F1F40
1F0F40
ENDCHAR
STARTCHAR wdieresis
ENCODING 7813
SWIDTH 776 0
DWIDTH 9 0
BBX 9 9 0 0
BITMAP
072800
072800
000000
B1E2C0
75E380
3AB740
3B7B40
2F2F00
1F2E00
ENDCHAR
STARTCHAR uni1E8E
ENCODING 7822
SWIDTH 525 0
DWIDTH 6 0
BBX 6 10 0 0
BITMAP
0B00
0B00
F0B0
74E0
39D0
1F80
0F40
0B00
0B00
0B00
ENDCHAR
STARTCHAR uni1E8F
ENCODING 7823
SWIDTH 521 0
DWIDTH 6 0
BBX 6 11 0 -2
BITMAP
0B00
0B00
0000
B0B0
74E0
39D0
1EC0
0F80
0B00
0E00
7800
ENDCHAR
STARTCHAR uni1E92
ENCODING 7826
SWIDTH 541 0
DWIDTH 6 0
BBX 6 11 0 -3
BITMAP
7FF0
7FF0
02E0
0780
1F00
7C00
BFF0
BFF0
0000
0740
0740
ENDCHAR
STARTCHAR uni1E93
ENCODING 7827
SWIDTH 460 0
DWIDTH 6 0
BBX 6 9 0 -3
BITMAP
7FC0
0780
0F40
2E00
7C00
BFD0
0000
0A00
0A00
ENDCHAR
STARTCHAR uni1E94
ENCODING 7828
SWIDTH 541 0
DWIDTH 6 0
BBX 6 10 0 -2
BITMAP
7FF0
7FF0
02E0
0780
1F00
7C00
BFF0
BFF0
0000
1FC0
ENDCHAR
STARTCHAR uni1E95
ENCODING 7829
SWIDTH 460 0
DWIDTH 6 0
BBX 6 8 0 -2
BITMAP
7FC0
0780
0F40
2E00
7C00
BFD0
0000
3F80
ENDCHAR
STARTCHAR uni1E96
ENCODING 7830
SWIDTH 571 0
DWIDTH 7 0
BBX 6 11 0 -2
BITMAP
7800
7800
7800
7AD0
78B0
78B0
78B0
78B0
78B0
0000
1FD0
ENDCHAR
STARTCHAR uni1E97
ENCODING 7831
SWIDTH 383 0
DWIDTH 5 0
BBX 5 11 0 0
BITMAP
D700
D700
0000
2800
3800
BF40
3800
3800
3800
3C00
1F40
ENDCHAR
STARTCHAR uni1E9E
ENCODING 7838
SWIDTH 705 0
DWIDTH 8 0
BBX 7 8 1 0
BITMAP
2F90
BFF0
F4B0
E1D0
E1F4
E13C
E7F8
E2E4
ENDCHAR
STARTCHAR uni1EA0
ENCODING 7840
SWIDTH 573 0
DWIDTH 7 0
BBX 7 11 0 -3
BITMAP
0B80
0FC0
1DD0
2CE0
38F0
7FF4
B074
F038
0000
0740
0740
ENDCHAR
STARTCHAR uni1EA1
ENCODING 7841
SWIDTH 527 0
DWIDTH 6 0
BBX 6 9 0 -3
BITMAP
2F80
11D0
1BE0
79E0
75E0
2EE0
0000
0B00
0B00
ENDCHAR
STARTCHAR uni1EA2
ENCODING 7842
SWIDTH 573 0
DWIDTH 7 0
BBX 7 11 0 0
BITMAP
0B40
0340
0100
0B80
0FC0
1DD0
2CE0
38F0
7FF4
B074
F038
ENDCHAR
STARTCHAR uni1EA3
ENCODING 7843
SWIDTH 527 0
DWIDTH 6 0
BBX 6 9 0 0
BITMAP
0A00
0340
0500
2F80
11D0
1BE0
79E0
75E0
2EE0
ENDCHAR
STARTCHAR uni1EA4
ENCODING 7844
SWIDTH 573 0
DWIDTH 7 0
BBX 7 11 0 0
BITMAP
0024
0BA0
1DC0
0FC0
0FC0
1DD0
2CE0
38F0
7FF4
B074
F038
ENDCHAR
STARTCHAR uni1EA5
ENCODING 7845
SWIDTH 527 0
DWIDTH 6 0
BBX 7 10 0 0
BITMAP
0024
0B60
1D80
0440
2F80
11D0
1BE0
79E0
75E0
2EE0
ENDCHAR
STARTCHAR uni1EA6
ENCODING 7846
SWIDTH 573 0
DWIDTH 7 0
BBX 7 11 0 0
BITMAP
5000
2B40
1DC0
0FC0
0FC0
1DD0
2CE0
38F0
7FF4
B074
F038
ENDCHAR
STARTCHAR uni1EA7
ENCODING 7847
SWIDTH 527 0
DWIDTH 6 0
BBX 6 10 0 0
BITMAP
9000
6B40
1D80
0440
2F80
11D0
1BE0
79E0
75E0
2EE0
ENDCHAR
STARTCHAR uni1EA8
ENCODING 7848
SWIDTH 573 0
DWIDTH 7 0
BBX 7 12 0 0
BITMAP
0060
0034
0B70
1DC0
0FC0
0FC0
1DD0
2CE0
38F0
7FF4
B074
F038
ENDCHAR
STARTCHAR uni1EA9
ENCODING 7849
SWIDTH 527 0
DWIDTH 6 0
BBX 7 11 0 0
BITMAP
0060
0034
0B60
1D80
0440
2F80
11D0
1BE0
79E0
75E0
2EE0
ENDCHAR
STARTCHAR uni1EAA
ENCODING 7850
SWIDTH 573 0
DWIDTH 7 0
BBX 7 13 0 0
BITMAP
0580
1A80
0400
0B40
1DC0
0FC0
0FC0
1DD0
2CE0
38F0
7FF4
B074
F038
ENDCHAR
STARTCHAR uni1EAB
ENCODING 7851
SWIDTH 527 0
DWIDTH 6 0
BBX 6 11 0 0
BITMAP
0580
1B80
1000
0B40
1D80
3FC0
11D0
1BE0
79E0
75E0
2EE0
ENDCHAR
STARTCHAR uni1EAC
ENCODING 7852
SWIDTH 573 0
DWIDTH 7 0
BBX 7 13 0 -3
BITMAP
0F80
1890
0B80
0FC0
1DD0
2CE0
38F0
7FF4
B074
F038
0000
0740
0740
ENDCHAR
STARTCHAR uni1EAD
ENCODING 7853
SWIDTH 527 0
DWIDTH 6 0
BBX 6 12 0 -3
BITMAP
0F80
2990
0000
2F80
11D0
1BE0
79E0
75E0
2EE0
0000
0B00
0B00
ENDCHAR
STARTCHAR uni1EAE
ENCODING 7854
SWIDTH 573 0
DWIDTH 7 0
BBX 7 12 0 0
BITMAP
0280
0240
1890
0B80
0B80
0FC0
1DD0
2CE0
38F0
7FF4
B074
F038
ENDCHAR
STARTCHAR uni1EAF
ENCODING 7855
SWIDTH 527 0
DWIDTH 6 0
BBX 6 11 0 0
BITMAP
0240
0240
24D0
0B80
0000
2F80
11D0
1BE0
79E0
75E0
2EE0
ENDCHAR
STARTCHAR uni1EB0
ENCODING 7856
SWIDTH 573 0
DWIDTH 7 0
BBX 7 12 0 0
BITMAP
0900
0600
1890
0B80
0B80
0FC0
1DD0
2CE0
38F0
7FF4
B074
F038
ENDCHAR
STARTCHAR uni1EB1
ENCODING 7857
SWIDTH 527 0
DWIDTH 6 0
BBX 6 11 0 0
BITMAP
0900
0600
24D0
0B80
0000
2F80
11D0
1BE0
79E0
75E0
2EE0
ENDCHAR
STARTCHAR uni1EB2
ENCODING 7858
SWIDTH 573 0
DWIDTH 7 0
BBX 7 13 0 0
BITMAP
0600
0340
0300
1890
0B80
0B80
0FC0
1DD0
2CE0
38F0
7FF4
B074
F038
ENDCHAR
STARTCHAR uni1EB3
ENCODING 7859
SWIDTH 527 0
DWIDTH 6 0
BBX 6 12 0 0
BITMAP
0A00
0340
0600
24D0
0B80
0000
2F80
11D0
1BE0
79E0
75E0
2EE0
ENDCHAR
STARTCHAR uni1EB4
ENCODING 7860
SWIDTH 573 0
DWIDTH 7 0
BBX 7 13 0 0
BITMAP
0580
1A80
0400
18D0
0B80
0B80
0FC0
1DD0
2CE0
38F0
7FF4
B074
F038
ENDCHAR
STARTCHAR uni1EB5
ENCODING 7861
SWIDTH 527 0
DWIDTH 6 0
BBX 6 12 0 0
BITMAP
0580
1B80
1400
18C0
0B40
0000
2F80
11D0
1BE0
79E0
75E0
2EE0
ENDCHAR
STARTCHAR uni1EB6
ENCODING 7862
SWIDTH 573 0
DWIDTH 7 0
BBX 7 13 0 -3
BITMAP
1890
0B80
0B80
0FC0
1DD0
2CE0
38F0
7FF4
B074
F038
0000
0740
0740
ENDCHAR
STARTCHAR uni1EB7
ENCODING 7863
SWIDTH 527 0
DWIDTH 6 0
BBX 6 12 0 -3
BITMAP
28D0
0B80
0000
2F80
11D0
1BE0
79E0
75E0
2EE0
0000
0B00
0B00
ENDCHAR
STARTCHAR uni1EB8
ENCODING 7864
SWIDTH 548 0
DWIDTH 7 0
BBX 5 11 1 -3
BITMAP
FF80
FF80
E000
E000
FF40
E000
FFC0
FFC0
0000
1D00
1D00
ENDCHAR
STARTCHAR uni1EB9
ENCODING 7865
SWIDTH 518 0
DWIDTH 6 0
BBX 6 9 0 -3
BITMAP
1F80
74E0
7FE0
7400
7840
1BD0
0000
0B00
0B00
ENDCHAR
STARTCHAR uni1EBA
ENCODING 7866
SWIDTH 548 0
DWIDTH 7 0
BBX 5 11 1 0
BITMAP
2D00
0D00
0400
FF80
FF80
E000
E000
FF40
E000
FFC0
FFC0
ENDCHAR
STARTCHAR uni1EBB
ENCODING 7867
SWIDTH 518 0
DWIDTH 6 0
BBX 6 9 0 0
BITMAP
0A00
0340
0500
1F80
74E0
7FE0
7400
7840
1BD0
ENDCHAR
STARTCHAR uni1EBC
ENCODING 7868
SWIDTH 548 0
DWIDTH 7 0
BBX 5 11 1 0
BITMAP
0140
7A80
9500
FF80
FF80
E000
E000
FF40
E000
FFC0
FFC0
ENDCHAR
STARTCHAR uni1EBD
ENCODING 7869
SWIDTH 518 0
DWIDTH 6 0
BBX 6 10 0 0
BITMAP
0050
2ED0
3540
0000
1F80
74E0
7FE0
7400
7840
1BD0
ENDCHAR
STARTCHAR uni1EBE
ENCODING 7870
SWIDTH 548 0
DWIDTH 7 0
BBX 6 11 1 0
BITMAP
0090
2E80
3700
FFC0
FF80
E000
E000
FF40
E000
FFC0
FFC0
ENDCHAR
STARTCHAR uni1EBF
ENCODING 7871
SWIDTH 518 0
DWIDTH 6 0
BBX 7 10 0 0
BITMAP
0024
0B60
1980
1040
1F80
74E0
7FE0
7400
7840
1BD0
ENDCHAR
STARTCHAR uni1EC0
ENCODING 7872
SWIDTH 548 0
DWIDTH 7 0
BBX 6 11 0 0
BITMAP
5000
2B40
0DC0
3FF0
3FE0
3800
3800
3FD0
3800
3FF0
3FF0
ENDCHAR
STARTCHAR uni1EC1
ENCODING 7873
SWIDTH 518 0
DWIDTH 6 0
BBX 6 10 0 0
BITMAP
8000
6B40
1980
1040
1F80
74E0
7FE0
7400
7840
1BD0
ENDCHAR
STARTCHAR uni1EC2
ENCODING 7874
SWIDTH 548 0
DWIDTH 7 0
BBX 6 12 1 0
BITMAP
01C0
0090
2D80
3700
FFC0
FF80
E000
E000
FF40
E000
FFC0
FFC0
ENDCHAR
STARTCHAR uni1EC3
ENCODING 7875
SWIDTH 518 0
DWIDTH 6 0
BBX 7 11 0 0
BITMAP
00A0
0034
0B60
1980
1040
1F80
74E0
7FE0
7400
7840
1BD0
ENDCHAR
STARTCHAR uni1EC4
ENCODING 7876
SWIDTH 548 0
DWIDTH 7 0
BBX 5 13 1 0
BITMAP
1640
6B00
1000
2D00
3700
FFC0
FF80
E000
E000
FF40
E000
FFC0
FFC0
ENDCHAR
STARTCHAR uni1EC5
ENCODING 7877
SWIDTH 518 0
DWIDTH 6 0
BBX 6 11 0 0
BITMAP
0580
1B80
1000
0B40
1980
1FC0
74E0
7FE0
7400
7840
1BD0
ENDCHAR
STARTCHAR uni1EC6
ENCODING 7878
SWIDTH 548 0
DWIDTH 7 0
BBX 5 13 1 -3
BITMAP
2E00
6240
FF80
FF80
E000
E000
FF40
E000
FFC0
FFC0
0000
1D00
1D00
ENDCHAR
STARTCHAR uni1EC7
ENCODING 7879
SWIDTH 518 0
DWIDTH 6 0
BBX 6 12 0 -3
BITMAP
1F80
2590
0000
1F80
74E0
7FE0
7400
7840
1BD0
0000
0B00
0B00
ENDCHAR
STARTCHAR uni1EC8
ENCODING 7880
SWIDTH 301 0
DWIDTH 4 0
BBX 3 11 0 0
BITMAP
78
2C
10
38
38
38
38
38
38
38
38
ENDCHAR
STARTCHAR uni1EC9
ENCODING 7881
SWIDTH 276 0
DWIDTH 3 0
BBX 3 9 0 0
BITMAP
74
28
20
78
78
78
78
78
78
ENDCHAR
STARTCHAR uni1ECA
ENCODING 7882
SWIDTH 301 0
DWIDTH 4 0
BBX 2 11 1 -3
BITMAP
E0
E0
E0
E0
E0
E0
E0
E0
00
E0
E0
ENDCHAR
STARTCHAR uni1ECB
ENCODING 7883
SWIDTH 276 0
DWIDTH 3 0
BBX 3 12 0 -3
BITMAP
24
74
00
78
78
78
78
78
78
00
34
34
ENDCHAR
STARTCHAR uni1ECC
ENCODING 7884
SWIDTH 684 0
DWIDTH 8 0
BBX 8 11 0 -3
BITMAP
0BE0
2FFC
7C2D
741E
741E
7C2D
2FFC
0BE0
0000
02C0
02C0
ENDCHAR
STARTCHAR uni1ECD
ENCODING 7885
SWIDTH 555 0
DWIDTH 7 0
BBX 6 9 0 -3
BITMAP
1B80
78E0
74B0
74B0
78E0
1F80
0000
0700
0700
ENDCHAR
STARTCHAR uni1ECE
ENCODING 7886
SWIDTH 684 0
DWIDTH 8 0
BBX 8 11 0 0
BITMAP
0380
01C0
0140
0BE0
2FFC
7C2D
741E
741E
7C2D
2FFC
0BE0
ENDCHAR
STARTCHAR uni1ECF
ENCODING 7887
SWIDTH 555 0
DWIDTH 7 0
BBX 6 9 0 0
BITMAP
0A00
0340
0100
1B80
78E0
74B0
74B0
78E0
1F80
ENDCHAR
STARTCHAR uni1ED0
ENCODING 7888
SWIDTH 684 0
DWIDTH 8 0
BBX 8 11 0 0
BITMAP
0008
03E4
0660
0BF0
2FFC
7C2D
741E
741E
7C2D
2FFC
0BE0
ENDCHAR
STARTCHAR uni1ED1
ENCODING 7889
SWIDTH 555 0
DWIDTH 7 0
BBX 7 10 0 0
BITMAP
0024
0B60
1DC0
0440
1B80
78E0
74B0
74B0
78E0
1F80
ENDCHAR
STARTCHAR uni1ED2
ENCODING 7890
SWIDTH 684 0
DWIDTH 8 0
BBX 8 11 0 0
BITMAP
2400
1BC0
0660
0BF0
2FFC
7C2D
741E
741E
7C2D
2FFC
0BE0
ENDCHAR
STARTCHAR uni1ED3
ENCODING 7891
SWIDTH 555 0
DWIDTH 7 0
BBX 6 10 0 0
BITMAP
9000
6B40
1DC0
0440
1B80
78E0
74B0
74B0
78E0
1F80
ENDCHAR
STARTCHAR uni1ED4
ENCODING 7892
SWIDTH 684 0
DWIDTH 8 0
BBX 8 12 0 0
BITMAP
0028
000C
03D8
0660
0BF0
2FFC
7C2D
741E
741E
7C2D
2FFC
0BE0
ENDCHAR
STARTCHAR uni1ED5
ENCODING 7893
SWIDTH 555 0
DWIDTH 7 0
BBX 7 11 0 0
BITMAP
0060
0034
0B60
1DC0
0440
1B80
78E0
74B0
74B0
78E0
1F80
ENDCHAR
STARTCHAR uni1ED6
ENCODING 7894
SWIDTH 684 0
DWIDTH 8 0
BBX 8 13 0 0
BITMAP
0120
0AE0
0400
03C0
0660
0BF0
2FFC
7C2D
741E
741E
7C2D
2FFC
0BE0
ENDCHAR
STARTCHAR uni1ED7
ENCODING 7895
SWIDTH 555 0
DWIDTH 7 0
BBX 6 11 0 0
BITMAP
0580
1B80
0400
0B40
1DC0
1FC0
78E0
74B0
74B0
78E0
1F80
ENDCHAR
STARTCHAR uni1ED8
ENCODING 7896
SWIDTH 684 0
DWIDTH 8 0
BBX 8 13 0 -3
BITMAP
07D0
0960
0BE0
2FFC
7C2D
741E
741E
7C2D
2FFC
0BE0
0000
02C0
02C0
ENDCHAR
STARTCHAR uni1ED9
ENCODING 7897
SWIDTH 555 0
DWIDTH 7 0
BBX 6 12 0 -3
BITMAP
0F80
2890
0000
1B80
78E0
74B0
74B0
78E0
1F80
0000
0700
0700
ENDCHAR
STARTCHAR uni1EDA
ENCODING 7898
SWIDTH 684 0
DWIDTH 8 0
BBX 8 11 0 0
BITMAP
0060
01E1
018B
0BEA
2FFC
7C2D
741E
741E
7C2D
2FFC
0BE0
ENDCHAR
STARTCHAR uni1EDB
ENCODING 7899
SWIDTH 555 0
DWIDTH 7 0
BBX 7 10 0 0
BITMAP
0080
02D0
0228
0028
1BE0
78F0
74B0
74B0
78E0
1F80
ENDCHAR
STARTCHAR uni1EDC
ENCODING 7900
SWIDTH 684 0
DWIDTH 8 0
BBX 8 11 0 0
BITMAP
0500
0B81
018B
0BEA
2FFC
7C2D
741E
741E
7C2D
2FFC
0BE0
ENDCHAR
STARTCHAR uni1EDD
ENCODING 7901
SWIDTH 555 0
DWIDTH 7 0
BBX 7 10 0 0
BITMAP
1800
2E00
0628
0028
1BE0
78F0
74B0
74B0
78E0
1F80
ENDCHAR
STARTCHAR uni1EDE
ENCODING 7902
SWIDTH 684 0
DWIDTH 8 0
BBX 8 11 0 0
BITMAP
0380
01C1
014B
0BEA
2FFC
7C2D
741E
741E
7C2D
2FFC
0BE0
ENDCHAR
STARTCHAR uni1EDF
ENCODING 7903
SWIDTH 555 0
DWIDTH 7 0
BBX 7 9 0 0
BITMAP
0A00
0368
0128
1BE0
78F0
74B0
74B0
78E0
1F80
ENDCHAR
STARTCHAR uni1EE0
ENCODING 7904
SWIDTH 684 0
DWIDTH 8 0
BBX 8 11 0 0
BITMAP
0010
0FB1
185B
0BEA
2FFC
7C2D
741E
741E
7C2D
2FFC
0BE0
ENDCHAR
STARTCHAR uni1EE1
ENCODING 7905
SWIDTH 555 0
DWIDTH 7 0
BBX 7 10 0 0
BITMAP
0040
2EC0
6168
0028
1BE0
78F0
74B0
74B0
78E0
1F80
ENDCHAR
STARTCHAR uni1EE2
ENCODING 7906
SWIDTH 684 0
DWIDTH 8 0
BBX 8 13 0 -3
BITMAP
0001
000B
0BEA
2FFC
7C2D
741E
741E
7C2D
2FFC
0BE0
0000
02C0
02C0
ENDCHAR
STARTCHAR uni1EE3
ENCODING 7907
SWIDTH 555 0
DWIDTH 7 0
BBX 7 11 0 -3
BITMAP
0028
0028
1BE0
78F0
74B0
74B0
78E0
1F80
0000
0700
0700
ENDCHAR
STARTCHAR uni1EE4
ENCODING 7908
SWIDTH 665 0
DWIDTH 8 0
BBX 6 11 1 -3
BITMAP
E0B0
E0B0
E0B0
E0B0
E0B0
F0F0
BFE0
2F80
0000
0A00
0A00
ENDCHAR
STARTCHAR uni1EE5
ENCODING 7909
SWIDTH 568 0
DWIDTH 7 0
BBX 6 9 0 -3
BITMAP
74B0
74B0
74B0
74B0
38F0
2EB0
0000
0740
0740
ENDCHAR
STARTCHAR uni1EE6
ENCODING 7910
SWIDTH 665 0
DWIDTH 8 0
BBX 6 11 1 0
BITMAP
0E00
0700
0500
E0B0
E0B0
E0B0
E0B0
E0B0
F0F0
BFE0
2F80
ENDCHAR
STARTCHAR uni1EE7
ENCODING 7911
SWIDTH 568 0
DWIDTH 7 0
BBX 6 9 0 0
BITMAP
0A40
0380
0100
74B0
74B0
74B0
74B0
38F0
2EB0
ENDCHAR
STARTCHAR uni1EE8
ENCODING 7912
SWIDTH 683 0
DWIDTH 8 0
BBX 8 11 1 0
BITMAP
0140
078A
0A0E
E0B8
E0B0
E0B0
E0B0
E0B0
F0F0
BFE0
2F80
ENDCHAR
STARTCHAR uni1EE9
ENCODING 7913
SWIDTH 568 0
DWIDTH 7 0
BBX 8 10 0 0
BITMAP
0080
03D0
061D
001C
74B8
74B0
74B0
74B0
38F0
2EB0
ENDCHAR
STARTCHAR uni1EEA
ENCODING 7914
SWIDTH 683 0
DWIDTH 8 0
BBX 8 11 1 0
BITMAP
1400
2D0A
090E
E0B8
E0B0
E0B0
E0B0
E0B0
F0F0
BFE0
2F80
ENDCHAR
STARTCHAR uni1EEB
ENCODING 7915
SWIDTH 568 0
DWIDTH 7 0
BBX 8 10 0 0
BITMAP
1800
2D00
061D
001C
74B8
74B0
74B0
74B0
38F0
2EB0
ENDCHAR
STARTCHAR uni1EEC
ENCODING 7916
SWIDTH 683 0
DWIDTH 8 0
BBX 8 11 1 0
BITMAP
0E00
070A
050E
E0B8
E0B0
E0B0
E0B0
E0B0
F0F0
BFE0
2F80
ENDCHAR
STARTCHAR uni1EED
ENCODING 7917
SWIDTH 568 0
DWIDTH 7 0
BBX 8 9 0 0
BITMAP
0A00
035D
051C
74B8
74B0
74B0
74B0
38F0
2EB0
ENDCHAR
STARTCHAR uni1EEE
ENCODING 7918
SWIDTH 683 0
DWIDTH 8 0
BBX 8 11 1 0
BITMAP
0040
2ECA
614E
E0B8
E0B0
E0B0
E0B0
E0B0
F0F0
BFE0
2F80
ENDCHAR
STARTCHAR uni1EEF
ENCODING 7919
SWIDTH 568 0
DWIDTH 7 0
BBX 8 10 0 0
BITMAP
0050
2ED0
355D
001C
74B8
74B0
74B0
74B0
38F0
2EB0
ENDCHAR
STARTCHAR uni1EF0
ENCODING 7920
SWIDTH 683 0
DWIDTH 8 0
BBX 8 13 1 -3
BITMAP
000A
000E
E0B8
E0B0
E0B0
E0B0
E0B0
F0F0
BFE0
2F80
0000
0A00
0A00
ENDCHAR
STARTCHAR uni1EF1
ENCODING 7921
SWIDTH 568 0
DWIDTH 7 0
BBX 8 11 0 -3
BITMAP
001D
001C
74B8
74B0
74B0
74B0
38F0
2EB0
0000
0740
0740
ENDCHAR
STARTCHAR Ygrave
ENCODING 7922
SWIDTH 525 0
DWIDTH 6 0
BBX 6 11 0 0
BITMAP
1800
2E00
0600
F0B0
74E0
39D0
1F80
0F40
0B00
0B00
0B00
ENDCHAR
STARTCHAR ygrave
ENCODING 7923
SWIDTH 521 0
DWIDTH 6 0
BBX 6 12 0 -2
BITMAP
1800
2D00
0A00
0000
B0B0
74E0
39D0
1EC0
0F80
0B00
0E00
7800
ENDCHAR
STARTCHAR uni1EF4
ENCODING 7924
SWIDTH 525 0
DWIDTH 6 0
BBX 6 11 0 -3
BITMAP
F0B0
74E0
39D0
1F80
0F40
0B00
0B00
0B00
0000
0B00
0B00
ENDCHAR
STARTCHAR uni1EF5
ENCODING 7925
SWIDTH 521 0
DWIDTH 6 0
BBX 7 8 0 -2
BITMAP
B0B0
74E0
39D0
1EC0
0F80
0B00
0E74
7874
ENDCHAR
STARTCHAR uni1EF6
ENCODING 7926
SWIDTH 525 0
DWIDTH 6 0
BBX 6 11 0 0
BITMAP
0A00
0740
0500
F0B0
74E0
39D0
1F80
0F40
0B00
0B00
0B00
ENDCHAR
STARTCHAR uni1EF7
ENCODING 7927
SWIDTH 521 0
DWIDTH 6 0
BBX 6 11 0 -2
BITMAP
0A00
0740
0500
B0B0
74E0
39D0
1EC0
0F80
0B00
0E00
7800
ENDCHAR
STARTCHAR uni1EF8
ENCODING 7928
SWIDTH 525 0
DWIDTH 6 0
BBX 6 11 0 0
BITMAP
0050
2ED0
3140
F0B0
74E0
39D0
1F80
0F40
0B00
0B00
0B00
ENDCHAR
STARTCHAR uni1EF9
ENCODING 7929
SWIDTH 521 0
DWIDTH 6 0
BBX 6 12 0 -2
BITMAP
0050
2ED0
3540
0000
B0B0
74E0
39D0
1EC0
0F80
0B00
0E00
7800
ENDCHAR
STARTCHAR uni1F00
ENCODING 7936
SWIDTH 595 0
DWIDTH 7 0
BBX 7 9 0 0
BITMAP
0740
0280
0200
1F78
78F4
74B4
B4B0
79F0
2E7C
ENDCHAR
STARTCHAR uni1F01
ENCODING 7937
SWIDTH 595 0
DWIDTH 7 0
BBX 7 9 0 0
BITMAP
0680
0A00
0200
1F78
78F4
74B4
B4B0
79F0
2E7C
ENDCHAR
STARTCHAR uni1F02
ENCODING 7938
SWIDTH 595 0
DWIDTH 7 0
BBX 7 10 0 0
BITMAP
0040
29C0
1CD0
0440
1F78
78F4
74B4
B4B0
79F0
2E7C
ENDCHAR
STARTCHAR uni1F03
ENCODING 7939
SWIDTH 595 0
DWIDTH 7 0
BBX 7 10 0 0
BITMAP
0040
1DC0
28D0
0440
1F78
78F4
74B4
B4B0
79F0
2E7C
ENDCHAR
STARTCHAR uni1F04
ENCODING 7940
SWIDTH 595 0
DWIDTH 7 0
BBX 7 10 0 0
BITMAP
0040
28D0
1DC0
0440
1F78
78F4
74B4
B4B0
79F0
2E7C
ENDCHAR
STARTCHAR uni1F05
ENCODING 7941
SWIDTH 595 0
DWIDTH 7 0
BBX 7 10 0 0
BITMAP
0040
1DD0
29C0
0400
1F78
78F4
74B4
B4B0
79F0
2E7C
ENDCHAR
STARTCHAR uni1F06
ENCODING 7942
SWIDTH 595 0
DWIDTH 7 0
BBX 7 10 0 0
BITMAP
0FC0
0740
0240
0000
1F78
78F4
74B4
B4B0
79F0
2E7C
ENDCHAR
STARTCHAR uni1F07
ENCODING 7943
SWIDTH 595 0
DWIDTH 7 0
BBX 7 10 0 0
BITMAP
0FC0
0740
0700
0000
1F78
78F4
74B4
B4B0
79F0
2E7C
ENDCHAR
STARTCHAR uni1F08
ENCODING 7944
SWIDTH 655 0
DWIDTH 8 0
BBX 8 8 0 0
BITMAP
E2E0
77F0
5774
0B38
0E3C
1FFD
2C1D
3C0E
ENDCHAR
STARTCHAR uni1F09
ENCODING 7945
SWIDTH 639 0
DWIDTH 8 0
BBX 8 8 0 0
BITMAP
B3D0
D7E0
5BB0
0E74
1D38
2FFC
2C1D
381E
ENDCHAR
STARTCHAR uni1F0A
ENCODING 7946
SWIDTH 822 0
DWIDTH 10 0
BBX 10 8 0 0
BITMAP
EA2E00
A73F00
007740
00B380
00E3C0
01FFD0
02C1D0
03C0E0
ENDCHAR
STARTCHAR uni1F0B
ENCODING 7947
SWIDTH 821 0
DWIDTH 10 0
BBX 10 8 0 0
BITMAP
AA2E00
D73F00
507740
00B380
00E3C0
01FFC0
02C1D0
0380E0
ENDCHAR
STARTCHAR uni1F0C
ENCODING 7948
SWIDTH 812 0
DWIDTH 10 0
BBX 10 8 0 0
BITMAP
E63E00
AA7F00
05B700
00A740
00E380
01FFC0
02C1D0
0381E0
ENDCHAR
STARTCHAR uni1F0D
ENCODING 7949
SWIDTH 811 0
DWIDTH 10 0
BBX 10 8 0 0
BITMAP
A63E00
DA7E00
55B700
00E740
00E380
01FFC0
02C1D0
0381E0
ENDCHAR
STARTCHAR uni1F0E
ENCODING 7950
SWIDTH 679 0
DWIDTH 8 0
BBX 8 8 0 0
BITMAP
FAF0
A2F4
3778
077C
0B2C
0FFD
1D0E
2C0B
ENDCHAR
STARTCHAR uni1F0F
ENCODING 7951
SWIDTH 679 0
DWIDTH 8 0
BBX 8 8 0 0
BITMAP
FAF0
76F4
6378
077C
0B2C
0FFD
1D0E
2C0B
ENDCHAR
STARTCHAR uni1F10
ENCODING 7952
SWIDTH 471 0
DWIDTH 6 0
BBX 5 9 0 0
BITMAP
0E00
0740
0500
2F80
7840
2F00
7400
7440
2F80
ENDCHAR
STARTCHAR uni1F11
ENCODING 7953
SWIDTH 471 0
DWIDTH 6 0
BBX 5 9 0 0
BITMAP
0B00
0D00
0500
2F80
7840
2F00
7400
7440
2F80
ENDCHAR
STARTCHAR uni1F12
ENCODING 7954
SWIDTH 471 0
DWIDTH 6 0
BBX 5 10 0 0
BITMAP
0140
3680
29C0
1040
2F80
7840
2F00
7400
7440
2F80
ENDCHAR
STARTCHAR uni1F13
ENCODING 7955
SWIDTH 471 0
DWIDTH 6 0
BBX 5 10 0 0
BITMAP
0140
2A80
3180
1040
2F80
7840
2F00
7400
7440
2F80
ENDCHAR
STARTCHAR uni1F14
ENCODING 7956
SWIDTH 471 0
DWIDTH 6 0
BBX 5 10 0 0
BITMAP
0140
3680
2A40
1000
2F80
7840
2F00
7400
7440
2F80
ENDCHAR
STARTCHAR uni1F15
ENCODING 7957
SWIDTH 471 0
DWIDTH 6 0
BBX 5 10 0 0
BITMAP
0140
2A80
3640
1400
2F80
7840
2F00
7400
7440
2F80
ENDCHAR
STARTCHAR uni1F18
ENCODING 7960
SWIDTH 711 0
DWIDTH 9 0
BBX 8 8 0 0
BITMAP
E3FE
77FE
5380
0380
03FD
0380
03FF
03FF
ENDCHAR
STARTCHAR uni1F19
ENCODING 7961
SWIDTH 711 0
DWIDTH 9 0
BBX 8 8 0 0
BITMAP
B3FE
D3FE
5380
0380
03FD
0380
03FF
03FF
ENDCHAR
STARTCHAR uni1F1A
ENCODING 7962
SWIDTH 874 0
DWIDTH 10 0
BBX 10 8 0 0
BITMAP
EA7FE0
A77FE0
007800
007800
007FD0
007800
007FF0
007FF0
ENDCHAR
STARTCHAR uni1F1B
ENCODING 7963
SWIDTH 873 0
DWIDTH 10 0
BBX 10 8 0 0
BITMAP
AA7FE0
D77FE0
507800
007800
007FD0
007800
007FF0
007FF0
ENDCHAR
STARTCHAR uni1F1C
ENCODING 7964
SWIDTH 864 0
DWIDTH 10 0
BBX 10 8 0 0
BITMAP
E67FE0
AA7FE0
057400
007400
007FC0
007400
007FE0
007FE0
ENDCHAR
STARTCHAR uni1F1D
ENCODING 7965
SWIDTH 863 0
DWIDTH 10 0
BBX 10 8 0 0
BITMAP
A67FE0
DA7FE0
557400
007400
007FC0
007400
007FE0
007FE0
ENDCHAR
STARTCHAR uni1F20
ENCODING 7968
SWIDTH 562 0
DWIDTH 7 0
BBX 6 11 0 -2
BITMAP
0740
0280
0200
76D0
7CB0
78B0
78B0
78B0
78B0
00B0
00B0
ENDCHAR
STARTCHAR uni1F21
ENCODING 7969
SWIDTH 562 0
DWIDTH 7 0
BBX 6 11 0 -2
BITMAP
0280
0700
0100
76D0
7CB0
78B0
78B0
78B0
78B0
00B0
00B0
ENDCHAR
STARTCHAR uni1F22
ENCODING 7970
SWIDTH 562 0
DWIDTH 7 0
BBX 6 12 0 -2
BITMAP
0040
29D0
0D90
0400
76D0
7CB0
78B0
78B0
78B0
78B0
00B0
00B0
ENDCHAR
STARTCHAR uni1F23
ENCODING 7971
SWIDTH 562 0
DWIDTH 7 0
BBX 6 12 0 -2
BITMAP
0040
1DD0
2890
0400
76D0
7CB0
78B0
78B0
78B0
78B0
00B0
00B0
ENDCHAR
STARTCHAR uni1F24
ENCODING 7972
SWIDTH 562 0
DWIDTH 7 0
BBX 6 12 0 -2
BITMAP
0050
28D0
0DC0
0440
76D0
7CB0
78B0
78B0
78B0
78B0
00B0
00B0
ENDCHAR
STARTCHAR uni1F25
ENCODING 7973
SWIDTH 562 0
DWIDTH 7 0
BBX 6 12 0 -2
BITMAP
0040
1DD0
19C0
0440
76D0
7CB0
78B0
78B0
78B0
78B0
00B0
00B0
ENDCHAR
STARTCHAR uni1F26
ENCODING 7974
SWIDTH 562 0
DWIDTH 7 0
BBX 6 12 0 -2
BITMAP
0FD0
0740
0240
0000
76D0
7CB0
78B0
78B0
78B0
78B0
00B0
00B0
ENDCHAR
STARTCHAR uni1F27
ENCODING 7975
SWIDTH 562 0
DWIDTH 7 0
BBX 6 12 0 -2
BITMAP
0FD0
0280
0300
0000
76D0
7CB0
78B0
78B0
78B0
78B0
00B0
00B0
ENDCHAR
STARTCHAR uni1F28
ENCODING 7976
SWIDTH 836 0
DWIDTH 10 0
BBX 9 8 0 0
BITMAP
E382C0
7782C0
5382C0
03FFC0
03FFC0
0382C0
0382C0
0382C0
ENDCHAR
STARTCHAR uni1F29
ENCODING 7977
SWIDTH 836 0
DWIDTH 10 0
BBX 9 8 0 0
BITMAP
B382C0
D382C0
5382C0
03FFC0
03FFC0
0382C0
0382C0
0382C0
ENDCHAR
STARTCHAR uni1F2A
ENCODING 7978
SWIDTH 999 0
DWIDTH 12 0
BBX 11 8 0 0
BITMAP
EA782C
A7782C
00782C
007FFC
007FFC
00782C
00782C
00782C
ENDCHAR
STARTCHAR uni1F2B
ENCODING 7979
SWIDTH 998 0
DWIDTH 12 0
BBX 11 8 0 0
BITMAP
AA782C
D7782C
50782C
007FFC
007FFC
00782C
00782C
00782C
ENDCHAR
STARTCHAR uni1F2C
ENCODING 7980
SWIDTH 990 0
DWIDTH 12 0
BBX 11 8 0 0
BITMAP
E6742C
AA742C
05742C
007FFC
007FFC
00742C
00742C
00742C
ENDCHAR
STARTCHAR uni1F2D
ENCODING 7981
SWIDTH 988 0
DWIDTH 12 0
BBX 11 8 0 0
BITMAP
A6742C
DA742C
55742C
007FFC
007FFC
00742C
00742C
00742C
ENDCHAR
STARTCHAR uni1F2E
ENCODING 7982
SWIDTH 896 0
DWIDTH 11 0
BBX 10 8 0 0
BITMAP
F9D0E0
A1D0E0
31D0E0
01FFE0
01FFE0
01D0E0
01D0E0
01D0E0
ENDCHAR
STARTCHAR uni1F2F
ENCODING 7983
SWIDTH 896 0
DWIDTH 11 0
BBX 10 8 0 0
BITMAP
F9D0E0
75D0E0
61D0E0
01FFE0
01FFE0
01D0E0
01D0E0
01D0E0
ENDCHAR
STARTCHAR uni1F30
ENCODING 7984
SWIDTH 301 0
DWIDTH 4 0
BBX 4 9 0 0
BITMAP
74
28
20
78
78
74
74
74
2D
ENDCHAR
STARTCHAR uni1F31
ENCODING 7985
SWIDTH 301 0
DWIDTH 4 0
BBX 4 9 0 0
BITMAP
28
70
10
78
78
74
74
74
2D
ENDCHAR
STARTCHAR uni1F32
ENCODING 7986
SWIDTH 301 0
DWIDTH 4 0
BBX 5 10 -1 0
BITMAP
0100
A740
3640
1000
1E00
1E00
1D00
1D00
1D00
0B40
ENDCHAR
STARTCHAR uni1F33
ENCODING 7987
SWIDTH 301 0
DWIDTH 4 0
BBX 5 10 -1 0
BITMAP
0100
7740
A240
1000
1E00
1E00
1D00
1D00
1D00
0B40
ENDCHAR
STARTCHAR uni1F34
ENCODING 7988
SWIDTH 301 0
DWIDTH 4 0
BBX 5 10 -1 0
BITMAP
0100
A340
3700
1100
1E00
1E00
1D00
1D00
1D00
0B40
ENDCHAR
STARTCHAR uni1F35
ENCODING 7989
SWIDTH 301 0
DWIDTH 4 0
BBX 5 10 -1 0
BITMAP
0100
7740
6700
1100
1E00
1E00
1D00
1D00
1D00
0B40
ENDCHAR
STARTCHAR uni1F36
ENCODING 7990
SWIDTH 301 0
DWIDTH 4 0
BBX 4 10 0 0
BITMAP
FD
74
24
00
78
78
74
74
74
2D
ENDCHAR
STARTCHAR uni1F37
ENCODING 7991
SWIDTH 301 0
DWIDTH 4 0
BBX 4 10 0 0
BITMAP
FD
28
30
00
78
78
74
74
74
2D
ENDCHAR
STARTCHAR uni1F38
ENCODING 7992
SWIDTH 464 0
DWIDTH 6 0
BBX 5 8 0 0
BITMAP
E380
7780
5380
0380
0380
0380
0380
0380
ENDCHAR
STARTCHAR uni1F39
ENCODING 7993
SWIDTH 464 0
DWIDTH 6 0
BBX 5 8 0 0
BITMAP
B380
D380
5380
0380
0380
0380
0380
0380
ENDCHAR
STARTCHAR uni1F3A
ENCODING 7994
SWIDTH 627 0
DWIDTH 8 0
BBX 7 8 0 0
BITMAP
EA78
A778
0078
0078
0078
0078
0078
0078
ENDCHAR
STARTCHAR uni1F3B
ENCODING 7995
SWIDTH 626 0
DWIDTH 8 0
BBX 7 8 0 0
BITMAP
AA78
D778
5078
0078
0078
0078
0078
0078
ENDCHAR
STARTCHAR uni1F3C
ENCODING 7996
SWIDTH 617 0
DWIDTH 7 0
BBX 7 8 0 0
BITMAP
E674
AA74
0574
0074
0074
0074
0074
0074
ENDCHAR
STARTCHAR uni1F3D
ENCODING 7997
SWIDTH 616 0
DWIDTH 7 0
BBX 7 8 0 0
BITMAP
A674
DA74
5574
0074
0074
0074
0074
0074
ENDCHAR
STARTCHAR uni1F3E
ENCODING 7998
SWIDTH 524 0
DWIDTH 6 0
BBX 6 8 0 0
BITMAP
F9D0
A1D0
31D0
01D0
01D0
01D0
01D0
01D0
ENDCHAR
STARTCHAR uni1F3F
ENCODING 7999
SWIDTH 524 0
DWIDTH 6 0
BBX 6 8 0 0
BITMAP
F9D0
75D0
61D0
01D0
01D0
01D0
01D0
01D0
ENDCHAR
STARTCHAR uni1F40
ENCODING 8000
SWIDTH 553 0
DWIDTH 7 0
BBX 6 9 0 0
BITMAP
0A00
0340
0100
1F80
78E0
74B0
74B0
78E0
1F80
ENDCHAR
STARTCHAR uni1F41
ENCODING 8001
SWIDTH 553 0
DWIDTH 7 0
BBX 6 9 0 0
BITMAP
0740
0A00
0200
1F80
78E0
74B0
74B0
78E0
1F80
ENDCHAR
STARTCHAR uni1F42
ENCODING 8002
SWIDTH 553 0
DWIDTH 7 0
BBX 6 10 0 0
BITMAP
0140
39C0
1CC0
1040
1F80
78E0
74B0
74B0
78E0
1F80
ENDCHAR
STARTCHAR uni1F43
ENCODING 8003
SWIDTH 553 0
DWIDTH 7 0
BBX 6 10 0 0
BITMAP
0140
2DC0
34C0
0440
1F80
78E0
74B0
74B0
78E0
1F80
ENDCHAR
STARTCHAR uni1F44
ENCODING 8004
SWIDTH 553 0
DWIDTH 7 0
BBX 6 10 0 0
BITMAP
0040
39C0
1D80
1000
1F80
78E0
74B0
74B0
78E0
1F80
ENDCHAR
STARTCHAR uni1F45
ENCODING 8005
SWIDTH 553 0
DWIDTH 7 0
BBX 6 10 0 0
BITMAP
0040
1DC0
2580
0400
1F80
78E0
74B0
74B0
78E0
1F80
ENDCHAR
STARTCHAR uni1F48
ENCODING 8008
SWIDTH 827 0
DWIDTH 10 0
BBX 10 8 0 0
BITMAP
E1BE00
73FF80
5B87C0
0B02D0
0B02D0
0787C0
03FF80
00BE00
ENDCHAR
STARTCHAR uni1F49
ENCODING 8009
SWIDTH 808 0
DWIDTH 10 0
BBX 9 8 0 0
BITMAP
B1BD00
D7FF40
5B47C0
0F02C0
0F02C0
0B47C0
07FF40
01BD00
ENDCHAR
STARTCHAR uni1F4A
ENCODING 8010
SWIDTH 984 0
DWIDTH 12 0
BBX 12 8 0 0
BITMAP
EA0BE0
A73FF8
00787D
00B41D
00B41D
00787C
003FF8
000BE0
ENDCHAR
STARTCHAR uni1F4B
ENCODING 8011
SWIDTH 996 0
DWIDTH 12 0
BBX 12 8 0 0
BITMAP
AA0BE0
D73FF8
50787D
00B41D
00B41D
00787C
003FF8
000BE0
ENDCHAR
STARTCHAR uni1F4C
ENCODING 8012
SWIDTH 974 0
DWIDTH 12 0
BBX 11 8 0 0
BITMAP
E61FD0
AA7FF4
05B47C
00F02C
00F02C
00B47C
007FF4
001BD0
ENDCHAR
STARTCHAR uni1F4D
ENCODING 8013
SWIDTH 973 0
DWIDTH 12 0
BBX 11 8 0 0
BITMAP
A61FD0
DA7FF4
55B47C
00F02C
00F02C
00B47C
007FF4
001BD0
ENDCHAR
STARTCHAR uni1F50
ENCODING 8016
SWIDTH 532 0
DWIDTH 6 0
BBX 6 9 0 0
BITMAP
0A00
0740
0500
75E0
74E0
74F0
74E0
75E0
1F80
ENDCHAR
STARTCHAR uni1F51
ENCODING 8017
SWIDTH 532 0
DWIDTH 6 0
BBX 6 9 0 0
BITMAP
0B40
0E00
0500
75E0
74E0
74F0
74E0
75E0
1F80
ENDCHAR
STARTCHAR uni1F52
ENCODING 8018
SWIDTH 532 0
DWIDTH 6 0
BBX 6 10 0 0
BITMAP
0140
3680
29C0
1040
75E0
74E0
74F0
74E0
75E0
1F80
ENDCHAR
STARTCHAR uni1F53
ENCODING 8019
SWIDTH 532 0
DWIDTH 6 0
BBX 6 10 0 0
BITMAP
0140
2A80
35C0
1040
75E0
74E0
74F0
74E0
75E0
1F80
ENDCHAR
STARTCHAR uni1F54
ENCODING 8020
SWIDTH 532 0
DWIDTH 6 0
BBX 6 10 0 0
BITMAP
0140
35C0
2A80
1000
75E0
74E0
74F0
74E0
75E0
1F80
ENDCHAR
STARTCHAR uni1F55
ENCODING 8021
SWIDTH 532 0
DWIDTH 6 0
BBX 6 10 0 0
BITMAP
0140
2E80
3640
1400
75E0
74E0
74F0
74E0
75E0
1F80
ENDCHAR
STARTCHAR uni1F56
ENCODING 8022
SWIDTH 532 0
DWIDTH 6 0
BBX 6 10 0 0
BITMAP
1F80
0A00
0600
0000
75E0
74E0
74F0
74E0
75E0
1F80
ENDCHAR
STARTCHAR uni1F57
ENCODING 8023
SWIDTH 532 0
DWIDTH 6 0
BBX 6 10 0 0
BITMAP
1F80
0700
0A00
0000
75E0
74E0
74F0
74E0
75E0
1F80
ENDCHAR
STARTCHAR uni1F59
ENCODING 8025
SWIDTH 731 0
DWIDTH 9 0
BBX 9 8 0 0
BITMAP
B74780
D3CB40
51DE00
00FD00
00B800
007800
007800
007800
ENDCHAR
STARTCHAR uni1F5B
ENCODING 8027
SWIDTH 910 0
DWIDTH 11 0
BBX 11 8 0 0
BITMAP
AA7838
D72C74
501DB0
000FD0
0007C0
000380
000380
000380
ENDCHAR
STARTCHAR uni1F5D
ENCODING 8029
SWIDTH 900 0
DWIDTH 11 0
BBX 11 8 0 0
BITMAP
A67438
DA3CB4
551DE0
000FD0
000B80
000780
000780
000780
ENDCHAR
STARTCHAR uni1F5F
ENCODING 8031
SWIDTH 794 0
DWIDTH 10 0
BBX 10 8 0 0
BITMAP
FAD1D0
75E2C0
60B740
007F00
002E00
002D00
002D00
002D00
ENDCHAR
STARTCHAR uni1F60
ENCODING 8032
SWIDTH 746 0
DWIDTH 9 0
BBX 9 9 0 0
BITMAP
02D000
00E000
008000
240A00
780B40
759740
75D740
75DB40
2E6E00
ENDCHAR
STARTCHAR uni1F61
ENCODING 8033
SWIDTH 746 0
DWIDTH 9 0
BBX 9 9 0 0
BITMAP
01D000
028000
008000
240A00
780B40
759740
75D740
75DB40
2E6E00
ENDCHAR
STARTCHAR uni1F62
ENCODING 8034
SWIDTH 746 0
DWIDTH 9 0
BBX 9 10 0 0
BITMAP
001000
0A7000
073400
011000
240A00
780B40
759740
75D740
75DB40
2E6E00
ENDCHAR
STARTCHAR uni1F63
ENCODING 8035
SWIDTH 746 0
DWIDTH 9 0
BBX 9 10 0 0
BITMAP
001000
077000
093000
011000
240A00
780B40
759740
75D740
75DB40
2E6E00
ENDCHAR
STARTCHAR uni1F64
ENCODING 8036
SWIDTH 746 0
DWIDTH 9 0
BBX 9 10 0 0
BITMAP
001000
0A7000
076000
010000
240A00
780B40
759740
75D740
75DB40
2E6E00
ENDCHAR
STARTCHAR uni1F65
ENCODING 8037
SWIDTH 746 0
DWIDTH 9 0
BBX 9 10 0 0
BITMAP
001000
077000
0A6000
010000
240A00
780B40
759740
75D740
75DB40
2E6E00
ENDCHAR
STARTCHAR uni1F66
ENCODING 8038
SWIDTH 746 0
DWIDTH 9 0
BBX 9 10 0 0
BITMAP
07F000
01D000
00D000
000000
240A00
780B40
759740
75D740
75DB40
2E6E00
ENDCHAR
STARTCHAR uni1F67
ENCODING 8039
SWIDTH 746 0
DWIDTH 9 0
BBX 9 10 0 0
BITMAP
07F000
01D000
018000
000000
240A00
780B40
759740
75D740
75DB40
2E6E00
ENDCHAR
STARTCHAR uni1F68
ENCODING 8040
SWIDTH 853 0
DWIDTH 10 0
BBX 10 8 0 0
BITMAP
E0BE00
73FFC0
5782D0
0B41D0
0741D0
02C380
0BDBE0
0BDBE0
ENDCHAR
STARTCHAR uni1F69
ENCODING 8041
SWIDTH 835 0
DWIDTH 10 0
BBX 10 8 0 0
BITMAP
B1BE00
D7FF80
5B87D0
0B02D0
0B02C0
038780
0FDBD0
0FDBD0
ENDCHAR
STARTCHAR uni1F6A
ENCODING 8042
SWIDTH 1018 0
DWIDTH 12 0
BBX 12 8 0 0
BITMAP
EA0BE0
A73FFC
00782D
00B41D
00741D
002C38
00BDBE
00BDBE
ENDCHAR
STARTCHAR uni1F6B
ENCODING 8043
SWIDTH 1017 0
DWIDTH 12 0
BBX 12 8 0 0
BITMAP
AA0BE0
D73FFC
50782D
00B41D
00741D
002838
00BDBE
00BDBE
ENDCHAR
STARTCHAR uni1F6C
ENCODING 8044
SWIDTH 1008 0
DWIDTH 12 0
BBX 12 8 0 0
BITMAP
E61BE0
AA3FF8
05B87D
00B01D
00742D
003878
00FDBE
00FDBE
ENDCHAR
STARTCHAR uni1F6D
ENCODING 8045
SWIDTH 1007 0
DWIDTH 12 0
BBX 12 8 0 0
BITMAP
A61BE0
DA3FF8
55B87D
00B01D
00B42C
003878
00FDBE
00FDBE
ENDCHAR
STARTCHAR uni1F6E
ENCODING 8046
SWIDTH 877 0
DWIDTH 11 0
BBX 10 8 0 0
BITMAP
F8BE40
A2FFD0
37D2E0
0780E0
0380E0
02D2C0
07E7F0
07E7F0
ENDCHAR
STARTCHAR uni1F6F
ENCODING 8047
SWIDTH 877 0
DWIDTH 11 0
BBX 10 8 0 0
BITMAP
F8BE40
76FFD0
63D2E0
0780E0
0380E0
02D2C0
07E7F0
07E7F0
ENDCHAR
STARTCHAR uni1F70
ENCODING 8048
SWIDTH 595 0
DWIDTH 7 0
BBX 7 10 0 0
BITMAP
1800
1E00
0600
0000
1F78
78F4
74B4
B4B0
79F0
2E7C
ENDCHAR
STARTCHAR uni1F71
ENCODING 8049
SWIDTH 595 0
DWIDTH 7 0
BBX 7 10 0 0
BITMAP
0090
02D0
0240
0000
1F78
78F4
74B4
B4B0
79F0
2E7C
ENDCHAR
STARTCHAR uni1F72
ENCODING 8050
SWIDTH 471 0
DWIDTH 6 0
BBX 5 10 0 0
BITMAP
2400
2D00
0900
0000
2F80
7840
2F00
7400
7440
2F80
ENDCHAR
STARTCHAR uni1F73
ENCODING 8051
SWIDTH 471 0
DWIDTH 6 0
BBX 5 10 0 0
BITMAP
0180
03C0
0600
0000
2F80
7840
2F00
7400
7440
2F80
ENDCHAR
STARTCHAR uni1F74
ENCODING 8052
SWIDTH 562 0
DWIDTH 7 0
BBX 6 12 0 -2
BITMAP
0800
1E00
0200
0000
76D0
7CB0
78B0
78B0
78B0
78B0
00B0
00B0
ENDCHAR
STARTCHAR uni1F75
ENCODING 8053
SWIDTH 562 0
DWIDTH 7 0
BBX 6 12 0 -2
BITMAP
0090
02E0
0240
0000
76D0
7CB0
78B0
78B0
78B0
78B0
00B0
00B0
ENDCHAR
STARTCHAR uni1F76
ENCODING 8054
SWIDTH 301 0
DWIDTH 4 0
BBX 5 10 -1 0
BITMAP
2000
7800
1800
0000
1E00
1E00
1D00
1D00
1D00
0B40
ENDCHAR
STARTCHAR uni1F77
ENCODING 8055
SWIDTH 301 0
DWIDTH 4 0
BBX 4 10 0 0
BITMAP
09
2E
24
00
78
78
74
74
74
2D
ENDCHAR
STARTCHAR uni1F78
ENCODING 8056
SWIDTH 553 0
DWIDTH 7 0
BBX 6 10 0 0
BITMAP
1800
2E00
0600
0000
1F80
78E0
74B0
74B0
78E0
1F80
ENDCHAR
STARTCHAR uni1F79
ENCODING 8057
SWIDTH 553 0
DWIDTH 7 0
BBX 6 10 0 0
BITMAP
0080
02D0
0240
0000
1F80
78E0
74B0
74B0
78E0
1F80
ENDCHAR
STARTCHAR uni1F7A
ENCODING 8058
SWIDTH 532 0
DWIDTH 6 0
BBX 6 10 0 0
BITMAP
1400
2D00
0A00
0000
75E0
74E0
74F0
74E0
75E0
1F80
ENDCHAR
STARTCHAR uni1F7B
ENCODING 8059
SWIDTH 532 0
DWIDTH 6 0
BBX 6 10 0 0
BITMAP
0180
03C0
0600
0000
75E0
74E0
74F0
74E0
75E0
1F80
ENDCHAR
STARTCHAR uni1F7C
ENCODING 8060
SWIDTH 746 0
DWIDTH 9 0
BBX 9 10 0 0
BITMAP
060000
078000
018000
000000
240A00
780B40
759740
75D740
75DB40
2E6E00
ENDCHAR
STARTCHAR uni1F7D
ENCODING 8061
SWIDTH 746 0
DWIDTH 9 0
BBX 9 10 0 0
BITMAP
002400
00B400
009000
000000
240A00
780B40
759740
75D740
75DB40
2E6E00
ENDCHAR
STARTCHAR uni1F80
ENCODING 8064
SWIDTH 595 0
DWIDTH 7 0
BBX 7 11 0 -2
BITMAP
0740
0280
0200
1F78
78F4
74B4
B4B0
79F0
2E7C
0340
02C0
ENDCHAR
STARTCHAR uni1F81
ENCODING 8065
SWIDTH 595 0
DWIDTH 7 0
BBX 7 11 0 -2
BITMAP
0680
0A00
0200
1F78
78F4
74B4
B4B0
79F0
2E7C
0340
02C0
ENDCHAR
STARTCHAR uni1F82
ENCODING 8066
SWIDTH 595 0
DWIDTH 7 0
BBX 7 12 0 -2
BITMAP
0040
29C0
1CD0
0440
1F78
78F4
74B4
B4B0
79F0
2E7C
0340
02C0
ENDCHAR
STARTCHAR uni1F83
ENCODING 8067
SWIDTH 595 0
DWIDTH 7 0
BBX 7 12 0 -2
BITMAP
0040
1DC0
28D0
0440
1F78
78F4
74B4
B4B0
79F0
2E7C
0340
02C0
ENDCHAR
STARTCHAR uni1F84
ENCODING 8068
SWIDTH 595 0
DWIDTH 7 0
BBX 7 12 0 -2
BITMAP
0040
28D0
1DC0
0440
1F78
78F4
74B4
B4B0
79F0
2E7C
0340
02C0
ENDCHAR
STARTCHAR uni1F85
ENCODING 8069
SWIDTH 595 0
DWIDTH 7 0
BBX 7 12 0 -2
BITMAP
0040
1DD0
29C0
0400
1F78
78F4
74B4
B4B0
79F0
2E7C
0340
02C0
ENDCHAR
STARTCHAR uni1F86
ENCODING 8070
SWIDTH 595 0
DWIDTH 7 0
BBX 7 12 0 -2
BITMAP
0FC0
0740
0240
0000
1F78
78F4
74B4
B4B0
79F0
2E7C
0340
02C0
ENDCHAR
STARTCHAR uni1F87
ENCODING 8071
SWIDTH 595 0
DWIDTH 7 0
BBX 7 12 0 -2
BITMAP
0FC0
0740
0700
0000
1F78
78F4
74B4
B4B0
79F0
2E7C
0340
02C0
ENDCHAR
STARTCHAR uni1F88
ENCODING 8072
SWIDTH 949 0
DWIDTH 11 0
BBX 12 8 0 0
BITMAP
E2E000
77F000
577400
0B3874
0E3C74
1FFD74
2C1D74
3C0E2D
ENDCHAR
STARTCHAR uni1F89
ENCODING 8073
SWIDTH 933 0
DWIDTH 11 0
BBX 11 8 0 0
BITMAP
B3D000
D7E000
5BB000
0E74B0
1D38B0
2FFCB0
2C1DB0
381E7C
ENDCHAR
STARTCHAR uni1F8A
ENCODING 8074
SWIDTH 1116 0
DWIDTH 13 0
BBX 14 8 0 0
BITMAP
EA2E0000
A73F0000
00774000
00B38740
00E3C740
01FFD740
02C1D740
03C0E2D0
ENDCHAR
STARTCHAR uni1F8B
ENCODING 8075
SWIDTH 1115 0
DWIDTH 13 0
BBX 14 8 0 0
BITMAP
AA2E0000
D73F0000
50774000
00B38740
00E3C740
01FFC740
02C1D740
0380E2D0
ENDCHAR
STARTCHAR uni1F8C
ENCODING 8076
SWIDTH 1106 0
DWIDTH 13 0
BBX 13 8 0 0
BITMAP
E63E0000
AA7F0000
05B70000
00A74B40
00E38B40
01FFCB00
02C1D740
0381E3C0
ENDCHAR
STARTCHAR uni1F8D
ENCODING 8077
SWIDTH 1105 0
DWIDTH 13 0
BBX 13 8 0 0
BITMAP
A63E0000
DA7E0000
55B70000
00E74B40
00E38B40
01FFCB00
02C1D740
0381E3C0
ENDCHAR
STARTCHAR uni1F8E
ENCODING 8078
SWIDTH 973 0
DWIDTH 12 0
BBX 12 8 0 0
BITMAP
FAF000
A2F400
377800
077C38
0B2C38
0FFD38
1D0E38
2C0B2E
ENDCHAR
STARTCHAR uni1F8F
ENCODING 8079
SWIDTH 973 0
DWIDTH 12 0
BBX 12 8 0 0
BITMAP
FAF000
76F400
637800
077C38
0B2C38
0FFD38
1D0E38
2C0B2E
ENDCHAR
STARTCHAR uni1F90
ENCODING 8080
SWIDTH 562 0
DWIDTH 7 0
BBX 6 11 0 -2
BITMAP
0740
0280
0200
76D0
7CB0
78B0
78B0
78B0
78B0
34B0
2CB0
ENDCHAR
STARTCHAR uni1F91
ENCODING 8081
SWIDTH 562 0
DWIDTH 7 0
BBX 6 11 0 -2
BITMAP
0280
0700
0100
76D0
7CB0
78B0
78B0
78B0
78B0
34B0
2CB0
ENDCHAR
STARTCHAR uni1F92
ENCODING 8082
SWIDTH 562 0
DWIDTH 7 0
BBX 6 12 0 -2
BITMAP
0040
29D0
0D90
0400
76D0
7CB0
78B0
78B0
78B0
78B0
34B0
2CB0
ENDCHAR
STARTCHAR uni1F93
ENCODING 8083
SWIDTH 562 0
DWIDTH 7 0
BBX 6 12 0 -2
BITMAP
0040
1DD0
2890
0400
76D0
7CB0
78B0
78B0
78B0
78B0
34B0
2CB0
ENDCHAR
STARTCHAR uni1F94
ENCODING 8084
SWIDTH 562 0
DWIDTH 7 0
BBX 6 12 0 -2
BITMAP
0050
28D0
0DC0
0440
76D0
7CB0
78B0
78B0
78B0
78B0
34B0
2CB0
ENDCHAR
STARTCHAR uni1F95
ENCODING 8085
SWIDTH 562 0
DWIDTH 7 0
BBX 6 12 0 -2
BITMAP
0040
1DD0
19C0
0440
76D0
7CB0
78B0
78B0
78B0
78B0
34B0
2CB0
ENDCHAR
STARTCHAR uni1F96
ENCODING 8086
SWIDTH 562 0
DWIDTH 7 0
BBX 6 12 0 -2
BITMAP
0FD0
0740
0240
0000
76D0
7CB0
78B0
78B0
78B0
78B0
34B0
2CB0
ENDCHAR
STARTCHAR uni1F97
ENCODING 8087
SWIDTH 562 0
DWIDTH 7 0
BBX 6 12 0 -2
BITMAP
0FD0
0280
0300
0000
76D0
7CB0
78B0
78B0
78B0
78B0
34B0
2CB0
ENDCHAR
STARTCHAR uni1F98
ENCODING 8088
SWIDTH 1131 0
DWIDTH 14 0
BBX 14 8 0 0
BITMAP
E382C000
7782C000
5382C000
03FFC780
03FFC740
0382C740
0382C740
0382C2D0
ENDCHAR
STARTCHAR uni1F99
ENCODING 8089
SWIDTH 1131 0
DWIDTH 14 0
BBX 14 8 0 0
BITMAP
B382C000
D382C000
5382C000
03FFC780
03FFC740
0382C740
0382C740
0382C2D0
ENDCHAR
STARTCHAR uni1F9A
ENCODING 8090
SWIDTH 1294 0
DWIDTH 16 0
BBX 16 8 0 0
BITMAP
EA782C00
A7782C00
00782C00
007FFC74
007FFC74
00782C74
00782C74
00782C2D
ENDCHAR
STARTCHAR uni1F9B
ENCODING 8091
SWIDTH 1293 0
DWIDTH 16 0
BBX 16 8 0 0
BITMAP
AA782C00
D7782C00
50782C00
007FFC74
007FFC74
00782C74
00782C74
00782C2D
ENDCHAR
STARTCHAR uni1F9C
ENCODING 8092
SWIDTH 1284 0
DWIDTH 15 0
BBX 16 8 0 0
BITMAP
E6742C00
AA742C00
05742C00
007FFC74
007FFC74
00742C74
00742C74
00742C2D
ENDCHAR
STARTCHAR uni1F9D
ENCODING 8093
SWIDTH 1283 0
DWIDTH 15 0
BBX 16 8 0 0
BITMAP
A6742C00
DA742C00
55742C00
007FFC74
007FFC74
00742C74
00742C74
00742C2D
ENDCHAR
STARTCHAR uni1F9E
ENCODING 8094
SWIDTH 1190 0
DWIDTH 14 0
BBX 14 8 0 0
BITMAP
F9D0E000
A1D0E000
31D0E000
01FFE2D0
01FFE2D0
01D0E2C0
01D0E1D0
01D0E0F0
ENDCHAR
STARTCHAR uni1F9F
ENCODING 8095
SWIDTH 1190 0
DWIDTH 14 0
BBX 14 8 0 0
BITMAP
F9D0E000
75D0E000
61D0E000
01FFE2D0
01FFE2D0
01D0E2C0
01D0E1D0
01D0E0F0
ENDCHAR
STARTCHAR uni1FA0
ENCODING 8096
SWIDTH 746 0
DWIDTH 9 0
BBX 9 11 0 -2
BITMAP
02D000
00E000
008000
240A00
780B40
759740
75D740
75DB40
2E6E00
01C000
00A000
ENDCHAR
STARTCHAR uni1FA1
ENCODING 8097
SWIDTH 746 0
DWIDTH 9 0
BBX 9 11 0 -2
BITMAP
01D000
028000
008000
240A00
780B40
759740
75D740
75DB40
2E6E00
01C000
00A000
ENDCHAR
STARTCHAR uni1FA2
ENCODING 8098
SWIDTH 746 0
DWIDTH 9 0
BBX 9 12 0 -2
BITMAP
001000
0A7000
073400
011000
240A00
780B40
759740
75D740
75DB40
2E6E00
01C000
00A000
ENDCHAR
STARTCHAR uni1FA3
ENCODING 8099
SWIDTH 746 0
DWIDTH 9 0
BBX 9 12 0 -2
BITMAP
001000
077000
093000
011000
240A00
780B40
759740
75D740
75DB40
2E6E00
01C000
00A000
ENDCHAR
STARTCHAR uni1FA4
ENCODING 8100
SWIDTH 746 0
DWIDTH 9 0
BBX 9 12 0 -2
BITMAP
001000
0A7000
076000
010000
240A00
780B40
759740
75D740
75DB40
2E6E00
01C000
00A000
ENDCHAR
STARTCHAR uni1FA5
ENCODING 8101
SWIDTH 746 0
DWIDTH 9 0
BBX 9 12 0 -2
BITMAP
001000
077000
0A6000
010000
240A00
780B40
759740
75D740
75DB40
2E6E00
01C000
00A000
ENDCHAR
STARTCHAR uni1FA6
ENCODING 8102
SWIDTH 746 0
DWIDTH 9 0
BBX 9 12 0 -2
BITMAP
07F000
01D000
00D000
000000
240A00
780B40
759740
75D740
75DB40
2E6E00
01C000
00A000
ENDCHAR
STARTCHAR uni1FA7
ENCODING 8103
SWIDTH 746 0
DWIDTH 9 0
BBX 9 12 0 -2
BITMAP
07F000
01D000
018000
000000
240A00
780B40
759740
75D740
75DB40
2E6E00
01C000
00A000
ENDCHAR
STARTCHAR uni1FA8
ENCODING 8104
SWIDTH 1147 0
DWIDTH 14 0
BBX 14 8 0 0
BITMAP
E0BE0000
73FFC000
5782D000
0B41D380
0741D380
02C38380
0BDBE380
0BDBE2E0
ENDCHAR
STARTCHAR uni1FA9
ENCODING 8105
SWIDTH 1129 0
DWIDTH 14 0
BBX 14 8 0 0
BITMAP
B1BE0000
D7FF8000
5B87D000
0B02D780
0B02C740
03878740
0FDBD740
0FDBD2D0
ENDCHAR
STARTCHAR uni1FAA
ENCODING 8106
SWIDTH 1313 0
DWIDTH 16 0
BBX 16 8 0 0
BITMAP
EA0BE000
A73FFC00
00782D00
00B41D38
00741D38
002C3838
00BDBE38
00BDBE2E
ENDCHAR
STARTCHAR uni1FAB
ENCODING 8107
SWIDTH 1311 0
DWIDTH 16 0
BBX 16 8 0 0
BITMAP
AA0BE000
D73FFC00
50782D00
00B41D38
00741D38
00283838
00BDBE38
00BDBE2E
ENDCHAR
STARTCHAR uni1FAC
ENCODING 8108
SWIDTH 1303 0
DWIDTH 16 0
BBX 16 8 0 0
BITMAP
E61BE000
AA3FF800
05B87D00
00B01D78
00742D78
00387874
00FDBE38
00FDBE2D
ENDCHAR
STARTCHAR uni1FAD
ENCODING 8109
SWIDTH 1302 0
DWIDTH 16 0
BBX 16 8 0 0
BITMAP
A61BE000
DA3FF800
55B87D00
00B01D78
00B42C78
00387874
00FDBE38
00FDBE2D
ENDCHAR
STARTCHAR uni1FAE
ENCODING 8110
SWIDTH 1172 0
DWIDTH 14 0
BBX 14 8 0 0
BITMAP
F8BE4000
A2FFD000
37D2E000
0780E2C0
0380E2C0
02D2C2C0
07E7F2C0
07E7F1F0
ENDCHAR
STARTCHAR uni1FAF
ENCODING 8111
SWIDTH 1172 0
DWIDTH 14 0
BBX 14 8 0 0
BITMAP
F8BE4000
76FFD000
63D2E000
0780E2C0
0380E2C0
02D2C2C0
07E7F2C0
07E7F1F0
ENDCHAR
STARTCHAR uni1FB0
ENCODING 8112
SWIDTH 595 0
DWIDTH 7 0
BBX 7 9 0 0
BITMAP
1890
0B80
0000
1F78
78F4
74B4
B4B0
79F0
2E7C
ENDCHAR
STARTCHAR uni1FB1
ENCODING 8113
SWIDTH 595 0
DWIDTH 7 0
BBX 7 8 0 0
BITMAP
1FD0
0000
1F78
78F4
74B4
B4B0
79F0
2E7C
ENDCHAR
STARTCHAR uni1FB2
ENCODING 8114
SWIDTH 595 0
DWIDTH 7 0
BBX 7 12 0 -2
BITMAP
1800
1E00
0600
0000
1F78
78F4
74B4
B4B0
79F0
2E7C
0340
02C0
ENDCHAR
STARTCHAR uni1FB3
ENCODING 8115
SWIDTH 595 0
DWIDTH 7 0
BBX 7 8 0 -2
BITMAP
1F78
78F4
74B4
B4B0
79F0
2E7C
0340
02C0
ENDCHAR
STARTCHAR uni1FB4
ENCODING 8116
SWIDTH 595 0
DWIDTH 7 0
BBX 7 12 0 -2
BITMAP
0090
02D0
0240
0000
1F78
78F4
74B4
B4B0
79F0
2E7C
0340
02C0
ENDCHAR
STARTCHAR uni1FB6
ENCODING 8118
SWIDTH 595 0
DWIDTH 7 0
BBX 7 10 0 0
BITMAP
0010
1EA0
2540
0000
1F78
78F4
74B4
B4B0
79F0
2E7C
ENDCHAR
STARTCHAR uni1FB7
ENCODING 8119
SWIDTH 595 0
DWIDTH 7 0
BBX 7 12 0 -2
BITMAP
0010
1EA0
2540
0000
1F78
78F4
74B4
B4B0
79F0
2E7C
0340
02C0
ENDCHAR
STARTCHAR uni1FB8
ENCODING 8120
SWIDTH 573 0
DWIDTH 7 0
BBX 7 10 0 0
BITMAP
1890
0B80
0B80
0FC0
1DD0
2CE0
38F0
7FF4
B074
F038
ENDCHAR
STARTCHAR uni1FB9
ENCODING 8121
SWIDTH 573 0
DWIDTH 7 0
BBX 7 10 0 0
BITMAP
1FD0
0000
0B80
0FC0
1DD0
2CE0
38F0
7FF4
B074
F038
ENDCHAR
STARTCHAR uni1FBA
ENCODING 8122
SWIDTH 622 0
DWIDTH 7 0
BBX 8 8 0 0
BITMAP
D7D0
A7E0
0AB0
0EB0
1D74
2FF8
382C
741D
ENDCHAR
STARTCHAR uni1FBB
ENCODING 8123
SWIDTH 622 0
DWIDTH 7 0
BBX 8 8 0 0
BITMAP
A7D0
D7E0
8AB0
0EB0
1D74
2FF8
382C
741D
ENDCHAR
STARTCHAR uni1FBC
ENCODING 8124
SWIDTH 867 0
DWIDTH 10 0
BBX 11 8 0 0
BITMAP
0B8000
0FC000
1DD000
2CE1D0
38F1D0
7FF5D0
B075D0
F038B4
ENDCHAR
STARTCHAR uni1FBD
ENCODING 8125
SWIDTH 555 0
DWIDTH 7 0
BBX 3 3 2 6
BITMAP
A0
34
10
ENDCHAR
STARTCHAR uni1FBE
ENCODING 8126
SWIDTH 301 0
DWIDTH 4 0
BBX 4 5 0 0
BITMAP
78
74
74
78
2D
ENDCHAR
STARTCHAR uni1FBF
ENCODING 8127
SWIDTH 555 0
DWIDTH 7 0
BBX 3 3 2 6
BITMAP
A0
34
10
ENDCHAR
STARTCHAR uni1FC0
ENCODING 8128
SWIDTH 555 0
DWIDTH 7 0
BBX 5 3 1 7
BITMAP
0140
7A40
D500
ENDCHAR
STARTCHAR uni1FC1
ENCODING 8129
SWIDTH 555 0
DWIDTH 7 0
BBX 5 3 1 7
BITMAP
7640
9A00
A240
ENDCHAR
STARTCHAR uni1FC2
ENCODING 8130
SWIDTH 562 0
DWIDTH 7 0
BBX 6 12 0 -2
BITMAP
0800
1E00
0200
0000
76D0
7CB0
78B0
78B0
78B0
78B0
34B0
2CB0
ENDCHAR
STARTCHAR uni1FC3
ENCODING 8131
SWIDTH 562 0
DWIDTH 7 0
BBX 6 8 0 -2
BITMAP
76D0
7CB0
78B0
78B0
78B0
78B0
34B0
2CB0
ENDCHAR
STARTCHAR uni1FC4
ENCODING 8132
SWIDTH 562 0
DWIDTH 7 0
BBX 6 12 0 -2
BITMAP
0090
02E0
0240
0000
76D0
7CB0
78B0
78B0
78B0
78B0
34B0
2CB0
ENDCHAR
STARTCHAR uni1FC6
ENCODING 8134
SWIDTH 562 0
DWIDTH 7 0
BBX 6 12 0 -2
BITMAP
0010
1EA0
2980
0000
76D0
7CB0
78B0
78B0
78B0
78B0
00B0
00B0
ENDCHAR
STARTCHAR uni1FC7
ENCODING 8135
SWIDTH 562 0
DWIDTH 7 0
BBX 6 12 0 -2
BITMAP
0010
1EA0
2980
0000
76D0
7CB0
78B0
78B0
78B0
78B0
34B0
2CB0
ENDCHAR
STARTCHAR uni1FC8
ENCODING 8136
SWIDTH 667 0
DWIDTH 8 0
BBX 8 8 0 0
BITMAP
DBFD
9BFD
0B00
0B00
0BF8
0B00
0BFD
0BFD
ENDCHAR
STARTCHAR uni1FC9
ENCODING 8137
SWIDTH 667 0
DWIDTH 8 0
BBX 8 8 0 0
BITMAP
9BFD
DBFD
8B00
0B00
0BF8
0B00
0BFD
0BFD
ENDCHAR
STARTCHAR uni1FCA
ENCODING 8138
SWIDTH 792 0
DWIDTH 10 0
BBX 9 8 0 0
BITMAP
DB0780
9B0780
0B0780
0BFF80
0BFF80
0B0780
0B0780
0B0780
ENDCHAR
STARTCHAR uni1FCB
ENCODING 8139
SWIDTH 792 0
DWIDTH 10 0
BBX 9 8 0 0
BITMAP
9B0780
DB0780
8B0780
0BFF80
0BFF80
0B0780
0B0780
0B0780
ENDCHAR
STARTCHAR uni1FCC
ENCODING 8140
SWIDTH 968 0
DWIDTH 12 0
BBX 11 8 1 0
BITMAP
E0B000
E0B000
E0B000
FFF1E0
FFF1E0
E0B1D0
E0B0E0
E0B0B4
ENDCHAR
STARTCHAR uni1FCD
ENCODING 8141
SWIDTH 555 0
DWIDTH 7 0
BBX 4 4 1 6
BITMAP
05
E7
73
41
ENDCHAR
STARTCHAR uni1FCE
ENCODING 8142
SWIDTH 555 0
DWIDTH 7 0
BBX 4 4 1 6
BITMAP
01
E7
76
40
ENDCHAR
STARTCHAR uni1FCF
ENCODING 8143
SWIDTH 555 0
DWIDTH 7 0
BBX 4 3 1 7
BITMAP
7F
28
0C
ENDCHAR
STARTCHAR uni1FD0
ENCODING 8144
SWIDTH 301 0
DWIDTH 4 0
BBX 5 9 -1 0
BITMAP
7280
2E00
0000
1E00
1E00
1D00
1D00
1D00
0B40
ENDCHAR
STARTCHAR uni1FD1
ENCODING 8145
SWIDTH 301 0
DWIDTH 4 0
BBX 4 8 0 0
BITMAP
FD
00
78
78
74
74
74
2D
ENDCHAR
STARTCHAR uni1FD2
ENCODING 8146
SWIDTH 301 0
DWIDTH 4 0
BBX 5 10 -1 0
BITMAP
0400
0C00
6980
0000
1E00
1E00
1D00
1D00
1D00
0B40
ENDCHAR
STARTCHAR uni1FD3
ENCODING 8147
SWIDTH 301 0
DWIDTH 4 0
BBX 5 10 -1 0
BITMAP
0500
0900
6D80
0000
1E00
1E00
1D00
1D00
1D00
0B40
ENDCHAR
STARTCHAR uni1FD6
ENCODING 8150
SWIDTH 301 0
DWIDTH 4 0
BBX 5 10 -1 0
BITMAP
0040
7A80
A600
0000
1E00
1E00
1D00
1D00
1D00
0B40
ENDCHAR
STARTCHAR uni1FD7
ENCODING 8151
SWIDTH 301 0
DWIDTH 4 0
BBX 5 10 -1 0
BITMAP
2940
6740
7240
0000
1E00
1E00
1D00
1D00
1D00
0B40
ENDCHAR
STARTCHAR uni1FD8
ENCODING 8152
SWIDTH 301 0
DWIDTH 4 0
BBX 4 10 0 0
BITMAP
C6
BD
38
38
38
38
38
38
38
38
ENDCHAR
STARTCHAR uni1FD9
ENCODING 8153
SWIDTH 301 0
DWIDTH 4 0
BBX 4 10 0 0
BITMAP
FE
00
38
38
38
38
38
38
38
38
ENDCHAR
STARTCHAR uni1FDA
ENCODING 8154
SWIDTH 420 0
DWIDTH 5 0
BBX 4 8 0 0
BITMAP
DB
9B
0B
0B
0B
0B
0B
0B
ENDCHAR
STARTCHAR uni1FDB
ENCODING 8155
SWIDTH 420 0
DWIDTH 5 0
BBX 4 8 0 0
BITMAP
9B
DB
8B
0B
0B
0B
0B
0B
ENDCHAR
STARTCHAR uni1FDD
ENCODING 8157
SWIDTH 555 0
DWIDTH 7 0
BBX 4 4 1 6
BITMAP
05
B7
D3
11
ENDCHAR
STARTCHAR uni1FDE
ENCODING 8158
SWIDTH 555 0
DWIDTH 7 0
BBX 4 4 1 6
BITMAP
01
77
96
10
ENDCHAR
STARTCHAR uni1FDF
ENCODING 8159
SWIDTH 555 0
DWIDTH 7 0
BBX 4 3 1 7
BITMAP
7F
1D
18
ENDCHAR
STARTCHAR uni1FE0
ENCODING 8160
SWIDTH 532 0
DWIDTH 6 0
BBX 6 9 0 0
BITMAP
24C0
1F40
0000
75E0
74E0
74F0
74E0
75E0
1F80
ENDCHAR
STARTCHAR uni1FE1
ENCODING 8161
SWIDTH 532 0
DWIDTH 6 0
BBX 6 8 0 0
BITMAP
2FC0
0000
75E0
74E0
74F0
74E0
75E0
1F80
ENDCHAR
STARTCHAR uni1FE2
ENCODING 8162
SWIDTH 532 0
DWIDTH 6 0
BBX 6 10 0 0
BITMAP
0500
0A00
3690
0000
75E0
74E0
74F0
74E0
75E0
1F80
ENDCHAR
STARTCHAR uni1FE3
ENCODING 8163
SWIDTH 532 0
DWIDTH 6 0
BBX 6 10 0 0
BITMAP
0200
0700
3690
0000
75E0
74E0
74F0
74E0
75E0
1F80
ENDCHAR
STARTCHAR uni1FE4
ENCODING 8164
SWIDTH 569 0
DWIDTH 7 0
BBX 7 11 0 -2
BITMAP
0740
0280
0200
1B90
38B0
7474
74B4
78B0
7BD0
7400
7400
ENDCHAR
STARTCHAR uni1FE5
ENCODING 8165
SWIDTH 569 0
DWIDTH 7 0
BBX 7 11 0 -2
BITMAP
0680
0700
0100
1B90
38B0
7474
74B4
78B0
7BD0
7400
7400
ENDCHAR
STARTCHAR uni1FE6
ENCODING 8166
SWIDTH 532 0
DWIDTH 6 0
BBX 6 10 0 0
BITMAP
0040
2ED0
3140
0000
75E0
74E0
74F0
74E0
75E0
1F80
ENDCHAR
STARTCHAR uni1FE7
ENCODING 8167
SWIDTH 532 0
DWIDTH 6 0
BBX 6 10 0 0
BITMAP
1D80
2680
24C0
0000
75E0
74E0
74F0
74E0
75E0
1F80
ENDCHAR
STARTCHAR uni1FE8
ENCODING 8168
SWIDTH 525 0
DWIDTH 6 0
BBX 6 10 0 0
BITMAP
24C0
1F40
F0B0
74E0
39D0
1F80
0F40
0B00
0B00
0B00
ENDCHAR
STARTCHAR uni1FE9
ENCODING 8169
SWIDTH 525 0
DWIDTH 6 0
BBX 6 10 0 0
BITMAP
2FC0
0000
F0B0
74E0
39D0
1F80
0F40
0B00
0B00
0B00
ENDCHAR
STARTCHAR uni1FEA
ENCODING 8170
SWIDTH 704 0
DWIDTH 8 0
BBX 9 8 0 0
BITMAP
DB0B40
978F00
02DD00
01FC00
00F400
00B400
00B400
00B400
ENDCHAR
STARTCHAR uni1FEB
ENCODING 8171
SWIDTH 704 0
DWIDTH 8 0
BBX 9 8 0 0
BITMAP
9B0B40
D78F00
82DD00
01FC00
00F400
00B400
00B400
00B400
ENDCHAR
STARTCHAR uni1FEC
ENCODING 8172
SWIDTH 759 0
DWIDTH 9 0
BBX 9 8 0 0
BITMAP
B3FE00
D3FF40
538780
038740
03FD00
038000
038000
038000
ENDCHAR
STARTCHAR uni1FED
ENCODING 8173
SWIDTH 555 0
DWIDTH 7 0
BBX 5 3 1 7
BITMAP
1400
1800
9E40
ENDCHAR
STARTCHAR uni1FEE
ENCODING 8174
SWIDTH 555 0
DWIDTH 7 0
BBX 5 3 1 7
BITMAP
0400
0C00
9A40
ENDCHAR
STARTCHAR uni1FEF
ENCODING 8175
SWIDTH 555 0
DWIDTH 7 0
BBX 2 3 2 7
BITMAP
A0
A0
60
ENDCHAR
STARTCHAR uni1FF2
ENCODING 8178
SWIDTH 746 0
DWIDTH 9 0
BBX 9 12 0 -2
BITMAP
060000
078000
018000
000000
240A00
780B40
759740
75D740
75DB40
2E6E00
01C000
00A000
ENDCHAR
STARTCHAR uni1FF3
ENCODING 8179
SWIDTH 746 0
DWIDTH 9 0
BBX 9 8 0 -2
BITMAP
240A00
780B40
759740
75D740
75DB40
2E6E00
01C000
00A000
ENDCHAR
STARTCHAR uni1FF4
ENCODING 8180
SWIDTH 746 0
DWIDTH 9 0
BBX 9 12 0 -2
BITMAP
002400
00B400
009000
000000
240A00
780B40
759740
75D740
75DB40
2E6E00
01C000
00A000
ENDCHAR
STARTCHAR uni1FF6
ENCODING 8182
SWIDTH 746 0
DWIDTH 9 0
BBX 9 10 0 0
BITMAP
001400
07A800
095000
000000
240A00
780B40
759740
75D740
75DB40
2E6E00
ENDCHAR
STARTCHAR uni1FF7
ENCODING 8183
SWIDTH 746 0
DWIDTH 9 0
BBX 9 12 0 -2
BITMAP
001400
07A800
095000
000000
240A00
780B40
759740
75D740
75DB40
2E6E00
01C000
00A000
ENDCHAR
STARTCHAR uni1FF8
ENCODING 8184
SWIDTH 790 0
DWIDTH 9 0
BBX 9 8 0 0
BITMAP
D1F900
97FF40
0F4780
0E03C0
0E03C0
0F4B80
07FF40
01F900
ENDCHAR
STARTCHAR uni1FF9
ENCODING 8185
SWIDTH 777 0
DWIDTH 9 0
BBX 9 8 0 0
BITMAP
92F900
DBFF00
9F4B80
1E0380
1E0380
0F4B80
0BFF00
02F800
ENDCHAR
STARTCHAR uni1FFA
ENCODING 8186
SWIDTH 811 0
DWIDTH 10 0
BBX 10 8 0 0
BITMAP
D1B900
97FF40
0F47C0
0E02C0
0F0380
074740
1FCFD0
1FCFD0
ENDCHAR
STARTCHAR uni1FFB
ENCODING 8187
SWIDTH 803 0
DWIDTH 10 0
BBX 9 8 0 0
BITMAP
D1F900
DBFF40
8F4780
0E03C0
0E0380
074B40
1FCFC0
1FCFC0
ENDCHAR
STARTCHAR uni1FFC
ENCODING 8188
SWIDTH 1005 0
DWIDTH 12 0
BBX 12 8 0 0
BITMAP
0BE400
2FFD00
3D2E00
780E2C
380E2C
2D2C2C
7E7F2C
7E7F1F
ENDCHAR
STARTCHAR uni1FFD
ENCODING 8189
SWIDTH 555 0
DWIDTH 7 0
BBX 3 3 2 7
BITMAP
24
34
70
ENDCHAR
STARTCHAR uni1FFE
ENCODING 8190
SWIDTH 555 0
DWIDTH 7 0
BBX 3 3 2 6
BITMAP
74
A0
20
ENDCHAR
STARTCHAR uni2007
ENCODING 8199
SWIDTH 528 0
DWIDTH 6 0
BBX 1 1 0 0
BITMAP
00
ENDCHAR
STARTCHAR figuredash
ENCODING 8210
SWIDTH 528 0
DWIDTH 6 0
BBX 6 1 0 3
BITMAP
7FE0
ENDCHAR
STARTCHAR endash
ENCODING 8211
SWIDTH 480 0
DWIDTH 6 0
BBX 6 1 0 3
BITMAP
7FD0
ENDCHAR
STARTCHAR emdash
ENCODING 8212
SWIDTH 800 0
DWIDTH 10 0
BBX 9 1 0 3
BITMAP
7FFFC0
ENDCHAR
STARTCHAR uni2015
ENCODING 8213
SWIDTH 800 0
DWIDTH 10 0
BBX 9 1 0 3
BITMAP
7FFFC0
ENDCHAR
STARTCHAR uni2016
ENCODING 8214
SWIDTH 452 0
DWIDTH 5 0
BBX 4 12 1 -3
BITMAP
D9
D9
D9
D9
D9
D9
D9
D9
D9
D9
D9
D9
ENDCHAR
STARTCHAR quoteleft
ENCODING 8216
SWIDTH 300 0
DWIDTH 4 0
BBX 3 4 0 4
BITMAP
24
60
78
38
ENDCHAR
STARTCHAR quoteright
ENCODING 8217
SWIDTH 300 0
DWIDTH 4 0
BBX 2 4 1 4
BITMAP
E0
F0
60
90
ENDCHAR
STARTCHAR quotesinglbase
ENCODING 8218
SWIDTH 300 0
DWIDTH 4 0
BBX 2 4 1 -2
BITMAP
E0
F0
60
90
ENDCHAR
STARTCHAR quotedblleft
ENCODING 8220
SWIDTH 536 0
DWIDTH 6 0
BBX 6 4 0 4
BITMAP
2490
6180
79D0
39D0
ENDCHAR
STARTCHAR quotedblright
ENCODING 8221
SWIDTH 536 0
DWIDTH 6 0
BBX 5 4 1 4
BITMAP
E340
F380
6180
9300
ENDCHAR
STARTCHAR quotedblbase
ENCODING 8222
SWIDTH 536 0
DWIDTH 6 0
BBX 5 4 1 -2
BITMAP
E340
F380
6180
9300
ENDCHAR
STARTCHAR dagger
ENCODING 8224
SWIDTH 510 0
DWIDTH 6 0
BBX 6 10 0 -1
BITMAP
0A00
0A00
7FE0
5A50
0A00
0A00
0A00
0A00
0A00
0500
ENDCHAR
STARTCHAR daggerdbl
ENCODING 8225
SWIDTH 510 0
DWIDTH 6 0
BBX 6 10 0 -1
BITMAP
0A00
0A00
7FE0
5A50
0A00
0A00
6FA0
5A50
0A00
0500
ENDCHAR
STARTCHAR bullet
ENCODING 8226
SWIDTH 345 0
DWIDTH 4 0
BBX 4 3 0 2
BITMAP
3D
7E
3D
ENDCHAR
STARTCHAR ellipsis
ENCODING 8230
SWIDTH 977 0
DWIDTH 12 0
BBX 10 2 1 0
BITMAP
A0E0E0
A0E0E0
ENDCHAR
STARTCHAR uni202F
ENCODING 8239
SWIDTH 125 0
DWIDTH 2 0
BBX 1 1 0 0
BITMAP
00
ENDCHAR
STARTCHAR perthousand
ENCODING 8240
SWIDTH 1249 0
DWIDTH 15 0
BBX 15 8 0 0
BITMAP
2D0A0000
A70C0000
A3640000
A777D1E0
2D996364
01CD7728
02496364
0607D1E0
ENDCHAR
STARTCHAR uni2032
ENCODING 8242
SWIDTH 300 0
DWIDTH 4 0
BBX 2 4 1 4
BITMAP
B0
E0
E0
D0
ENDCHAR
STARTCHAR uni2033
ENCODING 8243
SWIDTH 537 0
DWIDTH 6 0
BBX 5 4 1 4
BITMAP
B380
E380
E340
D300
ENDCHAR
STARTCHAR uni2035
ENCODING 8245
SWIDTH 300 0
DWIDTH 4 0
BBX 3 4 0 4
BITMAP
74
34
38
28
ENDCHAR
STARTCHAR guilsinglleft
ENCODING 8249
SWIDTH 292 0
DWIDTH 4 0
BBX 3 5 0 1
BITMAP
18
34
60
34
18
ENDCHAR
STARTCHAR guilsinglright
ENCODING 8250
SWIDTH 292 0
DWIDTH 4 0
BBX 2 5 1 1
BITMAP
80
A0
70
A0
80
ENDCHAR
STARTCHAR uni203C
ENCODING 8252
SWIDTH 614 0
DWIDTH 7 0
BBX 6 9 1 0
BITMAP
5040
B2D0
B1C0
A1C0
A1C0
A1C0
0000
B2D0
B2D0
ENDCHAR
STARTCHAR uni203D
ENCODING 8253
SWIDTH 480 0
DWIDTH 6 0
BBX 5 8 0 0
BITMAP
6F40
52C0
1EC0
0F40
0D00
0000
1D00
1D00
ENDCHAR
STARTCHAR uni203E
ENCODING 8254
SWIDTH 500 0
DWIDTH 6 0
BBX 6 1 0 7
BITMAP
FFF0
ENDCHAR
STARTCHAR uni203F
ENCODING 8255
SWIDTH 0 0
DWIDTH 0 0
BBX 12 2 -6 -3
BITMAP
79006D
06FF90
ENDCHAR
STARTCHAR fraction
ENCODING 8260
SWIDTH 96 0
DWIDTH 1 0
BBX 5 8 -2 0
BITMAP
00C0
0240
0300
0900
1800
2400
6000
9000
ENDCHAR
STARTCHAR uni2047
ENCODING 8263
SWIDTH 873 0
DWIDTH 10 0
BBX 9 8 1 0
BITMAP
BD6F40
4B13C0
0F0380
2D0B00
341D00
000000
741D00
741D00
ENDCHAR
STARTCHAR uni2048
ENCODING 8264
SWIDTH 750 0
DWIDTH 9 0
BBX 7 9 1 0
BITMAP
0014
BD38
4B38
0F28
2D28
3428
0000
7438
7438
ENDCHAR
STARTCHAR uni2049
ENCODING 8265
SWIDTH 750 0
DWIDTH 9 0
BBX 8 9 1 0
BITMAP
5000
B2F8
B15D
A02D
A078
A0B0
0000
B0B0
B0B0
ENDCHAR
STARTCHAR zero.sups
ENCODING 8304
SWIDTH 376 0
DWIDTH 5 0
BBX 5 5 0 5
BITMAP
2D00
A700
A340
A700
2D00
ENDCHAR
STARTCHAR i.sups
ENCODING 8305
SWIDTH 188 0
DWIDTH 2 0
BBX 2 5 0 5
BITMAP
60
00
A0
A0
A0
ENDCHAR
STARTCHAR four.sups
ENCODING 8308
SWIDTH 376 0
DWIDTH 5 0
BBX 5 5 0 5
BITMAP
1E00
2A00
7600
BF40
0600
ENDCHAR
STARTCHAR five.sups
ENCODING 8309
SWIDTH 376 0
DWIDTH 5 0
BBX 4 5 0 5
BITMAP
3F
30
3E
17
6E
ENDCHAR
STARTCHAR six.sups
ENCODING 8310
SWIDTH 376 0
DWIDTH 5 0
BBX 4 5 0 5
BITMAP
2E
70
BE
67
2E
ENDCHAR
STARTCHAR seven.sups
ENCODING 8311
SWIDTH 376 0
DWIDTH 5 0
BBX 4 5 0 5
BITMAP
7F
0A
0D
1C
28
ENDCHAR
STARTCHAR eight.sups
ENCODING 8312
SWIDTH 376 0
DWIDTH 5 0
BBX 4 5 0 5
BITMAP
2D
76
3D
67
7E
ENDCHAR
STARTCHAR nine.sups
ENCODING 8313
SWIDTH 376 0
DWIDTH 5 0
BBX 4 5 0 5
BITMAP
3D
A7
7F
07
7D
ENDCHAR
STARTCHAR parenleft.sups
ENCODING 8317
SWIDTH 268 0
DWIDTH 3 0
BBX 3 7 0 4
BITMAP
18
34
30
70
30
34
18
ENDCHAR
STARTCHAR parenright.sups
ENCODING 8318
SWIDTH 268 0
DWIDTH 3 0
BBX 3 7 0 4
BITMAP
60
30
34
24
34
30
60
ENDCHAR
STARTCHAR n.sups
ENCODING 8319
SWIDTH 384 0
DWIDTH 5 0
BBX 4 4 0 5
BITMAP
6E
A7
A3
A3
ENDCHAR
STARTCHAR zero.subs
ENCODING 8320
SWIDTH 376 0
DWIDTH 5 0
BBX 5 5 0 -2
BITMAP
2D00
A700
A340
A700
2D00
ENDCHAR
STARTCHAR one.subs
ENCODING 8321
SWIDTH 376 0
DWIDTH 5 0
BBX 3 5 1 -2
BITMAP
B4
34
34
34
34
ENDCHAR
STARTCHAR two.subs
ENCODING 8322
SWIDTH 376 0
DWIDTH 5 0
BBX 4 5 0 -2
BITMAP
7D
1A
0A
2C
7F
ENDCHAR
STARTCHAR three.subs
ENCODING 8323
SWIDTH 376 0
DWIDTH 5 0
BBX 4 5 0 -2
BITMAP
2D
1A
1E
17
6E
ENDCHAR
STARTCHAR four.subs
ENCODING 8324
SWIDTH 376 0
DWIDTH 5 0
BBX 5 5 0 -2
BITMAP
1E00
2A00
7600
BF40
0600
ENDCHAR
STARTCHAR five.subs
ENCODING 8325
SWIDTH 376 0
DWIDTH 5 0
BBX 4 5 0 -2
BITMAP
3F
30
3E
17
6E
ENDCHAR
STARTCHAR six.subs
ENCODING 8326
SWIDTH 376 0
DWIDTH 5 0
BBX 4 5 0 -2
BITMAP
2E
70
BE
67
2E
ENDCHAR
STARTCHAR seven.subs
ENCODING 8327
SWIDTH 376 0
DWIDTH 5 0
BBX 4 5 0 -2
BITMAP
7F
0A
0D
1C
28
ENDCHAR
STARTCHAR eight.subs
ENCODING 8328
SWIDTH 376 0
DWIDTH 5 0
BBX 4 5 0 -2
BITMAP
2D
76
3D
67
7E
ENDCHAR
STARTCHAR nine.subs
ENCODING 8329
SWIDTH 376 0
DWIDTH 5 0
BBX 4 5 0 -2
BITMAP
3D
A7
7F
07
7D
ENDCHAR
STARTCHAR parenleft.subs
ENCODING 8333
SWIDTH 268 0
DWIDTH 3 0
BBX 3 7 0 -3
BITMAP
18
34
30
70
30
34
18
ENDCHAR
STARTCHAR parenright.subs
ENCODING 8334
SWIDTH 268 0
DWIDTH 3 0
BBX 3 7 0 -3
BITMAP
60
30
34
24
34
30
60
ENDCHAR
STARTCHAR uni0259.sups
ENCODING 8340
SWIDTH 346 0
DWIDTH 4 0
BBX 4 5 0 4
BITMAP
7D
0A
BE
96
7C
ENDCHAR
STARTCHAR colonmonetary
ENCODING 8353
SWIDTH 528 0
DWIDTH 6 0
BBX 6 10 0 -1
BITMAP
0280
0BE0
2EA0
3A80
7A80
7A80
7E40
2FA0
0BD0
0A00
ENDCHAR
STARTCHAR lira
ENCODING 8356
SWIDTH 528 0
DWIDTH 6 0
BBX 6 8 0 0
BITMAP
0BE0
1D40
2C00
7FC0
1D00
7FC0
7FF0
7FF0
ENDCHAR
STARTCHAR uni20A6
ENCODING 8358
SWIDTH 528 0
DWIDTH 6 0
BBX 7 8 0 0
BITMAP
3890
3C90
3D90
FFF4
3690
FFF4
33D0
31D0
ENDCHAR
STARTCHAR peseta
ENCODING 8359
SWIDTH 528 0
DWIDTH 6 0
BBX 7 8 0 0
BITMAP
7F80
75D0
FFF4
75D0
7F80
7400
7400
7400
ENDCHAR
STARTCHAR uni20A9
ENCODING 8361
SWIDTH 528 0
DWIDTH 6 0
BBX 8 8 -1 0
BITMAP
1404
29DC
2ADC
2A9C
7FFE
1EA8
1E78
0E78
ENDCHAR
STARTCHAR dong
ENCODING 8363
SWIDTH 528 0
DWIDTH 6 0
BBX 7 8 0 0
BITMAP
0090
0FF4
05D0
3AD0
74D0
3AD0
0540
3FE0
ENDCHAR
STARTCHAR Euro
ENCODING 8364
SWIDTH 528 0
DWIDTH 6 0
BBX 6 8 0 0
BITMAP
07E0
1D10
2C00
BFD0
3800
BF80
2D10
0BE0
ENDCHAR
STARTCHAR uni20AE
ENCODING 8366
SWIDTH 528 0
DWIDTH 6 0
BBX 6 8 0 0
BITMAP
BFF0
0B00
0B10
0BD0
2F50
1BD0
2F00
1B00
ENDCHAR
STARTCHAR uni20B1
ENCODING 8369
SWIDTH 528 0
DWIDTH 6 0
BBX 6 8 0 0
BITMAP
7F80
BAE0
BAE0
7AE0
7B80
7900
7400
7400
ENDCHAR
STARTCHAR uni20B2
ENCODING 8370
SWIDTH 528 0
DWIDTH 6 0
BBX 6 10 0 -1
BITMAP
0340
0BD0
3840
7400
7400
75F0
74B0
38B0
0BE0
0340
ENDCHAR
STARTCHAR uni20B4
ENCODING 8372
SWIDTH 528 0
DWIDTH 6 0
BBX 6 8 0 0
BITMAP
2F40
12C0
01D0
BFF0
1F40
BFF0
3850
1FD0
ENDCHAR
STARTCHAR uni20B5
ENCODING 8373
SWIDTH 528 0
DWIDTH 6 0
BBX 6 10 0 -1
BITMAP
0240
0BE0
2E40
3A40
7640
7640
3A40
2E50
0BE0
0240
ENDCHAR
STARTCHAR uni20B8
ENCODING 8376
SWIDTH 528 0
DWIDTH 6 0
BBX 6 8 0 0
BITMAP
BFF0
6A90
5B50
0B00
0B00
0B00
0B00
0B00
ENDCHAR
STARTCHAR uni20B9
ENCODING 8377
SWIDTH 528 0
DWIDTH 6 0
BBX 6 8 0 0
BITMAP
7F90
0780
3FE0
0780
7E00
0E00
0740
03C0
ENDCHAR
STARTCHAR uni20BA
ENCODING 8378
SWIDTH 528 0
DWIDTH 6 0
BBX 6 8 0 0
BITMAP
3C00
3D40
3E40
BD40
7EB0
BDE0
7FD0
3E40
ENDCHAR
STARTCHAR uni20BD
ENCODING 8381
SWIDTH 528 0
DWIDTH 6 0
BBX 6 8 0 0
BITMAP
7F80
75D0
75D0
FF80
7940
B940
7400
7400
ENDCHAR
STARTCHAR uni2113
ENCODING 8467
SWIDTH 470 0
DWIDTH 6 0
BBX 6 9 0 0
BITMAP
0B80
1DD0
2CD0
2DC0
2F40
2D00
BD40
6FE0
0B80
ENDCHAR
STARTCHAR uni2116
ENCODING 8470
SWIDTH 967 0
DWIDTH 12 0
BBX 12 8 0 0
BITMAP
3C2C00
3E38B8
3B3ADD
3B78B8
3AB800
39F8FC
38F800
74B800
ENDCHAR
STARTCHAR uni2117
ENCODING 8471
SWIDTH 750 0
DWIDTH 9 0
BBX 9 8 0 0
BITMAP
07F400
291A00
63F640
536940
53F540
630200
291A00
07F400
ENDCHAR
STARTCHAR uni2120
ENCODING 8480
SWIDTH 682 0
DWIDTH 8 0
BBX 8 4 0 4
BITMAP
79DB
65EB
6DAB
79C3
ENDCHAR
STARTCHAR trademark
ENCODING 8482
SWIDTH 682 0
DWIDTH 8 0
BBX 8 6 0 4
BITMAP
FD00
F80B
B49B
35DB
35D7
11C2
ENDCHAR
STARTCHAR uni2126
ENCODING 8486
SWIDTH 711 0
DWIDTH 9 0
BBX 8 8 0 0
BITMAP
0BE4
2FFD
3D2E
780E
380E
2D2C
7E7F
7E7F
ENDCHAR
STARTCHAR estimated
ENCODING 8494
SWIDTH 800 0
DWIDTH 10 0
BBX 9 8 0 0
BITMAP
06F800
190600
300140
7001C0
7FFFC0
300000
190500
06F800
ENDCHAR
STARTCHAR uni2150
ENCODING 8528
SWIDTH 837 0
DWIDTH 10 0
BBX 10 8 0 0
BITMAP
6C0C00
1C2400
1C3000
1C9FE0
1D80D0
024280
060340
090340
ENDCHAR
STARTCHAR uni2151
ENCODING 8529
SWIDTH 837 0
DWIDTH 10 0
BBX 10 8 0 0
BITMAP
6C0C00
1C1800
1C3000
1C9780
1CCD90
024BE0
0300D0
090B80
ENDCHAR
STARTCHAR uni2152
ENCODING 8530
SWIDTH 1155 0
DWIDTH 14 0
BBX 14 8 0 0
BITMAP
7C0C0000
1C240000
1C300000
1C978B80
04C29CD0
02429CA0
03029CD0
09014B80
ENDCHAR
STARTCHAR onethird
ENCODING 8531
SWIDTH 837 0
DWIDTH 10 0
BBX 10 8 0 0
BITMAP
6C0C00
1C2400
1C3000
1C9B80
1D84D0
0242C0
0604D0
090BD0
ENDCHAR
STARTCHAR twothirds
ENCODING 8532
SWIDTH 849 0
DWIDTH 10 0
BBX 10 8 0 0
BITMAP
7D0600
1A0C00
0A2400
2C37D0
7F90D0
00C2D0
0244A0
0707D0
ENDCHAR
STARTCHAR uni2155
ENCODING 8533
SWIDTH 837 0
DWIDTH 10 0
BBX 10 8 0 0
BITMAP
6C0C00
1C2400
1C3000
1C97D0
1D8A00
024BD0
0604E0
090BC0
ENDCHAR
STARTCHAR uni2156
ENCODING 8534
SWIDTH 849 0
DWIDTH 10 0
BBX 10 8 0 0
BITMAP
7D0600
1A0C00
0A2400
2C37E0
7F9600
00C7D0
0245A0
0707D0
ENDCHAR
STARTCHAR uni2157
ENCODING 8535
SWIDTH 849 0
DWIDTH 10 0
BBX 10 8 0 0
BITMAP
2D0900
1A0C00
1E2400
1777E0
6E9600
0187D0
0245A0
0607D0
ENDCHAR
STARTCHAR uni2158
ENCODING 8536
SWIDTH 892 0
DWIDTH 11 0
BBX 11 8 0 0
BITMAP
1E0300
2A0900
760C00
BF66F0
066340
0093E0
018174
0242E0
ENDCHAR
STARTCHAR uni2159
ENCODING 8537
SWIDTH 837 0
DWIDTH 10 0
BBX 10 8 0 0
BITMAP
6C0C00
1C1800
1C3000
1C97D0
1CCD00
024FD0
030D90
090780
ENDCHAR
STARTCHAR uni215A
ENCODING 8538
SWIDTH 849 0
DWIDTH 10 0
BBX 10 8 0 0
BITMAP
3F0900
300C00
3E2400
1777D0
6E9A00
018FD0
024DA0
0607D0
ENDCHAR
STARTCHAR oneeighth
ENCODING 8539
SWIDTH 837 0
DWIDTH 10 0
BBX 10 8 0 0
BITMAP
6C0C00
1C1800
1C3000
1C97C0
1CC9D0
0247C0
030D90
090BD0
ENDCHAR
STARTCHAR threeeighths
ENCODING 8540
SWIDTH 849 0
DWIDTH 10 0
BBX 10 8 0 0
BITMAP
2D0900
1A0C00
1E2400
1777D0
6E9A90
0187C0
0249A0
0607D0
ENDCHAR
STARTCHAR fiveeighths
ENCODING 8541
SWIDTH 849 0
DWIDTH 10 0
BBX 10 8 0 0
BITMAP
3F0900
300C00
3E2400
1777D0
6E9A90
0187C0
0249A0
0607D0
ENDCHAR
STARTCHAR seveneighths
ENCODING 8542
SWIDTH 829 0
DWIDTH 10 0
BBX 10 8 0 0
BITMAP
BF1800
0A2400
1C6000
289B80
298DD0
024BC0
060DD0
0C0B80
ENDCHAR
STARTCHAR uni2189
ENCODING 8585
SWIDTH 849 0
DWIDTH 10 0
BBX 10 8 0 0
BITMAP
2D0900
A70C00
A36400
A777D0
2D90D0
0182D0
0244A0
0607D0
ENDCHAR
STARTCHAR uni2190
ENCODING 8592
SWIDTH 617 0
DWIDTH 7 0
BBX 7 7 0 0
BITMAP
0100
0B40
2D00
7FFC
2D00
0B40
0100
ENDCHAR
STARTCHAR arrowup
ENCODING 8593
SWIDTH 617 0
DWIDTH 7 0
BBX 7 7 0 -1
BITMAP
0240
0BD0
2FF0
7768
0340
0340
0340
ENDCHAR
STARTCHAR uni2192
ENCODING 8594
SWIDTH 617 0
DWIDTH 7 0
BBX 7 7 0 0
BITMAP
0100
0280
00B0
BFFC
00B0
0280
0100
ENDCHAR
STARTCHAR arrowdown
ENCODING 8595
SWIDTH 617 0
DWIDTH 7 0
BBX 7 7 0 -1
BITMAP
0340
0340
0340
7768
2FF0
0BD0
0240
ENDCHAR
STARTCHAR partialdiff
ENCODING 8706
SWIDTH 577 0
DWIDTH 7 0
BBX 7 8 0 0
BITMAP
1B90
04B0
0074
1FB4
38B4
74B0
74D0
1F80
ENDCHAR
STARTCHAR uni2206
ENCODING 8710
SWIDTH 640 0
DWIDTH 8 0
BBX 8 8 0 0
BITMAP
07C0
0BD0
0DA0
1CB0
2874
3438
7FFC
BFFD
ENDCHAR
STARTCHAR product
ENCODING 8719
SWIDTH 710 0
DWIDTH 9 0
BBX 7 10 1 -2
BITMAP
FFF8
FFF8
E078
E078
E078
E078
E078
E078
E078
9024
ENDCHAR
STARTCHAR summation
ENCODING 8721
SWIDTH 534 0
DWIDTH 6 0
BBX 7 10 0 -2
BITMAP
BFF0
7FF0
2C00
0E00
0B40
0B40
1E00
2800
7FF4
BFF4
ENDCHAR
STARTCHAR minus
ENCODING 8722
SWIDTH 528 0
DWIDTH 6 0
BBX 6 1 0 3
BITMAP
BFF0
ENDCHAR
STARTCHAR uni2215
ENCODING 8725
SWIDTH 96 0
DWIDTH 1 0
BBX 5 8 -2 0
BITMAP
00C0
0240
0300
0900
1800
2400
6000
9000
ENDCHAR
STARTCHAR uni2219
ENCODING 8729
SWIDTH 529 0
DWIDTH 6 0
BBX 2 2 2 3
BITMAP
B0
B0
ENDCHAR
STARTCHAR radical
ENCODING 8730
SWIDTH 588 0
DWIDTH 7 0
BBX 7 11 0 -1
BITMAP
001C
0018
0028
0034
0430
7870
1CA0
0D90
0AC0
07C0
0380
ENDCHAR
STARTCHAR infinity
ENCODING 8734
SWIDTH 814 0
DWIDTH 10 0
BBX 10 5 0 1
BITMAP
2F6F40
7FE1C0
72E1D0
2E7FC0
001F40
ENDCHAR
STARTCHAR integral
ENCODING 8747
SWIDTH 390 0
DWIDTH 5 0
BBX 5 11 0 -2
BITMAP
0B40
1D00
2C00
2C00
2C00
1D00
1D00
1D00
0D00
1D00
7800
ENDCHAR
STARTCHAR approxequal
ENCODING 8776
SWIDTH 528 0
DWIDTH 6 0
BBX 6 4 0 2
BITMAP
2D60
66D0
2D60
66D0
ENDCHAR
STARTCHAR notequal
ENCODING 8800
SWIDTH 528 0
DWIDTH 6 0
BBX 6 8 0 0
BITMAP
0050
00D0
BFF0
0700
0A00
BFF0
2400
1000
ENDCHAR
STARTCHAR lessequal
ENCODING 8804
SWIDTH 528 0
DWIDTH 6 0
BBX 6 7 0 0
BITMAP
0060
1BE0
B900
6F90
01B0
0000
BFF0
ENDCHAR
STARTCHAR greaterequal
ENCODING 8805
SWIDTH 528 0
DWIDTH 6 0
BBX 6 7 0 0
BITMAP
5000
7E40
06F0
6FE0
A900
0000
BFF0
ENDCHAR
STARTCHAR uni231C
ENCODING 8988
SWIDTH 344 0
DWIDTH 4 0
BBX 3 9 1 -1
BITMAP
F8
D0
D0
D0
D0
D0
D0
D0
40
ENDCHAR
STARTCHAR uni231D
ENCODING 8989
SWIDTH 344 0
DWIDTH 4 0
BBX 3 9 0 -1
BITMAP
7C
1C
1C
1C
1C
1C
1C
1C
04
ENDCHAR
STARTCHAR uni231E
ENCODING 8990
SWIDTH 344 0
DWIDTH 4 0
BBX 3 9 1 -1
BITMAP
40
D0
D0
D0
D0
D0
D0
D0
F8
ENDCHAR
STARTCHAR uni231F
ENCODING 8991
SWIDTH 344 0
DWIDTH 4 0
BBX 3 9 0 -1
BITMAP
04
1C
1C
1C
1C
1C
1C
1C
7C
ENDCHAR
STARTCHAR uni25A0
ENCODING 9632
SWIDTH 877 0
DWIDTH 11 0
BBX 10 9 0 -1
BITMAP
7FFFF0
7FFFF0
7FFFF0
7FFFF0
7FFFF0
7FFFF0
7FFFF0
7FFFF0
7FFFF0
ENDCHAR
STARTCHAR triagup
ENCODING 9650
SWIDTH 877 0
DWIDTH 11 0
BBX 10 10 0 -1
BITMAP
001000
007000
00F400
01FC00
03FD00
07FF00
0BFF40
1FFF80
2FFFD0
7FFFE0
ENDCHAR
STARTCHAR uni25B3
ENCODING 9651
SWIDTH 877 0
DWIDTH 11 0
BBX 10 10 0 -1
BITMAP
001000
007000
00B400
01E800
028D00
070A00
0A0340
1D0280
2801D0
7FFFE0
ENDCHAR
STARTCHAR uni25B6
ENCODING 9654
SWIDTH 877 0
DWIDTH 11 0
BBX 10 9 0 0
BITMAP
600000
7E0000
7FE000
7FFE00
7FFFE0
7FFF80
7FF800
7F4000
740000
ENDCHAR
STARTCHAR uni25B7
ENCODING 9655
SWIDTH 877 0
DWIDTH 11 0
BBX 10 9 0 0
BITMAP
600000
7E0000
6BE000
60BE00
6007E0
600780
60B800
6B4000
740000
ENDCHAR
STARTCHAR triagdn
ENCODING 9660
SWIDTH 877 0
DWIDTH 11 0
BBX 10 10 0 -1
BITMAP
7FFFE0
2FFFD0
1FFF80
0BFF40
07FF00
03FD00
01FC00
00F400
007000
001000
ENDCHAR
STARTCHAR uni25BD
ENCODING 9661
SWIDTH 877 0
DWIDTH 11 0
BBX 10 10 0 -1
BITMAP
7FFFE0
2801D0
1D0280
0A0340
070A00
028D00
01E800
00B400
007000
001000
ENDCHAR
STARTCHAR uni25C0
ENCODING 9664
SWIDTH 877 0
DWIDTH 11 0
BBX 10 10 0 -1
BITMAP
000060
0006F0
007FF0
07FFF0
7FFFF0
1BFFF0
01BFF0
001BF0
0001B0
000010
ENDCHAR
STARTCHAR uni25C1
ENCODING 9665
SWIDTH 877 0
DWIDTH 11 0
BBX 10 10 0 -1
BITMAP
000060
0006F0
007EB0
07E470
7E4070
1A4070
01A470
001AB0
0001B0
000010
ENDCHAR
STARTCHAR uni25C6
ENCODING 9670
SWIDTH 877 0
DWIDTH 11 0
BBX 10 10 0 -1
BITMAP
006000
01F800
07FE00
1FFF80
7FFFE0
7FFFE0
1FFF80
07FE00
01F800
006000
ENDCHAR
STARTCHAR uni25C9
ENCODING 9673
SWIDTH 877 0
DWIDTH 11 0
BBX 10 10 0 -1
BITMAP
06F900
1E0680
34A4A0
63FD70
A7FF30
A7FF30
63FD70
34A4E0
1D0680
06FD00
ENDCHAR
STARTCHAR lozenge
ENCODING 9674
SWIDTH 548 0
DWIDTH 7 0
BBX 5 8 1 0
BITMAP
2D00
7E00
B740
D280
D280
B740
7E00
2D00
ENDCHAR
STARTCHAR uni25CC
ENCODING 9676
SWIDTH 577 0
DWIDTH 7 0
BBX 7 6 0 0
BITMAP
1A80
2020
0000
5014
2020
1A80
ENDCHAR
STARTCHAR uni2610
ENCODING 9744
SWIDTH 807 0
DWIDTH 10 0
BBX 8 8 1 0
BITMAP
BFFE
8006
8006
8006
8006
8006
8006
FFFD
ENDCHAR
STARTCHAR uni2611
ENCODING 9745
SWIDTH 807 0
DWIDTH 10 0
BBX 9 10 1 0
BITMAP
000100
000740
BFFE00
802E00
807600
ACA600
8DD600
878600
810600
FFFD00
ENDCHAR
STARTCHAR uni266A
ENCODING 9834
SWIDTH 544 0
DWIDTH 7 0
BBX 7 8 0 0
BITMAP
0380
03E0
0374
0324
0320
0300
7F00
7D00
ENDCHAR
STARTCHAR uni2713
ENCODING 10003
SWIDTH 647 0
DWIDTH 8 0
BBX 8 8 0 0
BITMAP
0009
002D
0074
00E0
A1C0
7280
2B00
1E00
ENDCHAR
STARTCHAR uni2752
ENCODING 10066
SWIDTH 877 0
DWIDTH 11 0
BBX 10 10 0 -1
BITMAP
3FFFF0
500070
500070
500070
500070
500070
500070
500070
500070
7FFFE0
ENDCHAR
STARTCHAR uni27E6
ENCODING 10214
SWIDTH 437 0
DWIDTH 5 0
BBX 4 11 1 -2
BITMAP
FE
D8
D8
D8
D8
D8
D8
D8
D8
D8
FE
ENDCHAR
STARTCHAR uni27E7
ENCODING 10215
SWIDTH 437 0
DWIDTH 5 0
BBX 5 11 0 -2
BITMAP
7F40
1A40
1A40
1A40
1A40
1A40
1A40
1A40
1A40
1A40
7F40
ENDCHAR
STARTCHAR uni2E22
ENCODING 11810
SWIDTH 344 0
DWIDTH 4 0
BBX 3 6 1 3
BITMAP
F8
D0
D0
D0
D0
40
ENDCHAR
STARTCHAR uni2E23
ENCODING 11811
SWIDTH 344 0
DWIDTH 4 0
BBX 3 6 0 3
BITMAP
7C
1C
1C
1C
1C
04
ENDCHAR
STARTCHAR uni2E24
ENCODING 11812
SWIDTH 344 0
DWIDTH 4 0
BBX 3 6 1 -2
BITMAP
40
D0
D0
D0
D0
F8
ENDCHAR
STARTCHAR uni2E25
ENCODING 11813
SWIDTH 344 0
DWIDTH 4 0
BBX 3 6 0 -2
BITMAP
04
1C
1C
1C
1C
7C
ENDCHAR
STARTCHAR uni2E3A
ENCODING 11834
SWIDTH 1500 0
DWIDTH 18 0
BBX 18 1 0 3
BITMAP
7FFFFFFFD0
ENDCHAR
STARTCHAR uni2E3B
ENCODING 11835
SWIDTH 2200 0
DWIDTH 26 0
BBX 26 1 0 3
BITMAP
7FFFFFFFFFFFF0
ENDCHAR
STARTCHAR f_f
ENCODING 64256
SWIDTH 657 0
DWIDTH 8 0
BBX 8 9 0 0
BITMAP
0B5F
2C38
3C38
BFFE
3C38
3C38
3C38
3C38
3C38
ENDCHAR
STARTCHAR fi
ENCODING 64257
SWIDTH 635 0
DWIDTH 8 0
BBX 7 9 0 0
BITMAP
1B68
2C28
3C00
BF3C
3C3C
3C3C
3C3C
3C3C
3C3C
ENDCHAR
STARTCHAR fl
ENCODING 64258
SWIDTH 627 0
DWIDTH 8 0
BBX 8 9 0 0
BITMAP
1B78
2C38
3C38
BF38
3C38
3C38
3C38
3C38
3C2D
ENDCHAR
STARTCHAR f_f_i
ENCODING 64259
SWIDTH 933 0
DWIDTH 11 0
BBX 11 9 0 0
BITMAP
0B5F64
2C3874
3C3800
BFFE74
3C3874
3C3874
3C3874
3C3874
3C3874
ENDCHAR
STARTCHAR f_f_l
ENCODING 64260
SWIDTH 943 0
DWIDTH 11 0
BBX 11 9 0 0
BITMAP
0B5F74
2C3874
3C3874
BFFE74
3C3874
3C3874
3C3874
3C3874
3C382C
ENDCHAR
STARTCHAR uniFEFF
ENCODING 65279
SWIDTH 0 0
DWIDTH 0 0
BBX 1 1 0 0
BITMAP
00
ENDCHAR
STARTCHAR u1F16A
ENCODING 127338
SWIDTH 682 0
DWIDTH 8 0
BBX 8 4 0 4
BITMAP
A35F
AB74
AE74
515F
ENDCHAR
STARTCHAR u1F16B
ENCODING 127339
SWIDTH 719 0
DWIDTH 9 0
BBX 9 4 0 4
BITMAP
A36E00
AA6640
AE6640
926E00
ENDCHAR
STARTCHAR .notdef
ENCODING -1
SWIDTH 690 0
DWIDTH 8 0
BBX 7 8 1 0
BITMAP
FFF4
F5F4
EEB4
CF74
DF74
EAB4
F4F4
FFF4
ENDCHAR
STARTCHAR uni00470303
ENCODING -1
SWIDTH 638 0
DWIDTH 8 0
BBX 7 11 0 0
BITMAP
0014
07A8
0D50
07E0
2FF8
7D10
7400
74FC
7D2C
2FFC
0BE4
ENDCHAR
STARTCHAR uni00670303
ENCODING -1
SWIDTH 534 0
DWIDTH 6 0
BBX 6 12 0 -2
BITMAP
0050
1E90
3540
0000
2FF0
75D0
75D0
3F80
7400
3FE0
70B0
6F90
ENDCHAR
STARTCHAR iogonek.d
ENCODING -1
SWIDTH 276 0
DWIDTH 3 0
BBX 3 8 0 -2
BITMAP
78
78
78
78
78
78
60
78
ENDCHAR
STARTCHAR f_t
ENCODING -1
SWIDTH 688 0
DWIDTH 8 0
BBX 8 9 0 0
BITMAP
1B40
2C34
3C74
BFFF
3C74
3C74
3C74
3C78
3C2F
ENDCHAR
STARTCHAR f_f_t
ENCODING -1
SWIDTH 1004 0
DWIDTH 12 0
BBX 12 9 0 0
BITMAP
1B5F00
2C3820
3C3874
BFFFFE
3C38B4
3C38B4
3C38B4
3C3874
24242E
ENDCHAR
STARTCHAR I.a
ENCODING -1
SWIDTH 396 0
DWIDTH 5 0
BBX 4 8 0 0
BITMAP
7F
2D
2D
2D
2D
2D
2D
7F
ENDCHAR
STARTCHAR Igrave.a
ENCODING -1
SWIDTH 396 0
DWIDTH 5 0
BBX 4 11 0 0
BITMAP
20
78
18
7F
2D
2D
2D
2D
2D
2D
7F
ENDCHAR
STARTCHAR Iacute.a
ENCODING -1
SWIDTH 396 0
DWIDTH 5 0
BBX 5 11 0 0
BITMAP
0200
0F40
1800
7F00
2D00
2D00
2D00
2D00
2D00
2D00
7F00
ENDCHAR
STARTCHAR Icircumflex.a
ENCODING -1
SWIDTH 396 0
DWIDTH 5 0
BBX 5 10 0 0
BITMAP
3E00
6240
7F00
2D00
2D00
2D00
2D00
2D00
2D00
7F00
ENDCHAR
STARTCHAR Itilde.a
ENCODING -1
SWIDTH 396 0
DWIDTH 5 0
BBX 5 11 0 0
BITMAP
0140
7A80
D500
7F00
2D00
2D00
2D00
2D00
2D00
2D00
7F00
ENDCHAR
STARTCHAR Idieresis.a
ENCODING -1
SWIDTH 396 0
DWIDTH 5 0
BBX 5 10 0 0
BITMAP
A340
A340
7F00
2D00
2D00
2D00
2D00
2D00
2D00
7F00
ENDCHAR
STARTCHAR Imacron.a
ENCODING -1
SWIDTH 396 0
DWIDTH 5 0
BBX 5 10 0 0
BITMAP
7F40
0000
7F00
2D00
2D00
2D00
2D00
2D00
2D00
7F00
ENDCHAR
STARTCHAR Idotaccent.a
ENCODING -1
SWIDTH 396 0
DWIDTH 5 0
BBX 4 10 0 0
BITMAP
1D
1D
7F
2D
2D
2D
2D
2D
2D
7F
ENDCHAR
STARTCHAR uni01CF.a
ENCODING -1
SWIDTH 396 0
DWIDTH 5 0
BBX 5 10 0 0
BITMAP
6240
3E00
7F00
2D00
2D00
2D00
2D00
2D00
2D00
7F00
ENDCHAR
STARTCHAR uni1EC8.a
ENCODING -1
SWIDTH 396 0
DWIDTH 5 0
BBX 4 11 0 0
BITMAP
2D
0D
04
7F
2D
2D
2D
2D
2D
2D
7F
ENDCHAR
STARTCHAR uni1ECA.a
ENCODING -1
SWIDTH 396 0
DWIDTH 5 0
BBX 4 11 0 -3
BITMAP
7F
2D
2D
2D
2D
2D
2D
7F
00
1D
1D
ENDCHAR
STARTCHAR Iogonek.a
ENCODING -1
SWIDTH 396 0
DWIDTH 5 0
BBX 4 11 0 -3
BITMAP
7F
2D
2D
2D
2D
2D
2D
7F
18
34
2D
ENDCHAR
STARTCHAR uni012C.a
ENCODING -1
SWIDTH 396 0
DWIDTH 5 0
BBX 5 10 0 0
BITMAP
6240
2E00
7F00
2D00
2D00
2D00
2D00
2D00
2D00
7F00
ENDCHAR
STARTCHAR uni014A.a
ENCODING -1
SWIDTH 665 0
DWIDTH 8 0
BBX 6 10 1 -2
BITMAP
F0B0
F8B0
FCB0
EEB0
EBB0
E3F0
E2F0
E0F0
00B0
03D0
ENDCHAR
STARTCHAR a.a
ENCODING -1
SWIDTH 573 0
DWIDTH 7 0
BBX 6 6 0 0
BITMAP
1FB0
38F0
74B0
74B0
78F0
1FB0
ENDCHAR
STARTCHAR agrave.a
ENCODING -1
SWIDTH 573 0
DWIDTH 7 0
BBX 6 10 0 0
BITMAP
0800
1E00
0600
0000
1FB0
38F0
74B0
74B0
78F0
1FB0
ENDCHAR
STARTCHAR aacute.a
ENCODING -1
SWIDTH 573 0
DWIDTH 7 0
BBX 6 10 0 0
BITMAP
0090
02D0
0240
0000
1FB0
38F0
74B0
74B0
78F0
1FB0
ENDCHAR
STARTCHAR acircumflex.a
ENCODING -1
SWIDTH 573 0
DWIDTH 7 0
BBX 6 9 0 0
BITMAP
0BC0
18A0
0000
1FB0
38F0
74B0
74B0
78F0
1FB0
ENDCHAR
STARTCHAR atilde.a
ENCODING -1
SWIDTH 573 0
DWIDTH 7 0
BBX 6 10 0 0
BITMAP
0010
1EA0
2940
0000
1FB0
38F0
74B0
74B0
78F0
1FB0
ENDCHAR
STARTCHAR adieresis.a
ENCODING -1
SWIDTH 573 0
DWIDTH 7 0
BBX 6 9 0 0
BITMAP
1CA0
1CA0
0000
1FB0
38F0
74B0
74B0
78F0
1FB0
ENDCHAR
STARTCHAR amacron.a
ENCODING -1
SWIDTH 573 0
DWIDTH 7 0
BBX 6 8 0 0
BITMAP
1FD0
0000
1FB0
38F0
74B0
74B0
78F0
1FB0
ENDCHAR
STARTCHAR abreve.a
ENCODING -1
SWIDTH 573 0
DWIDTH 7 0
BBX 6 9 0 0
BITMAP
1CA0
0B80
0000
1FB0
38F0
74B0
74B0
78F0
1FB0
ENDCHAR
STARTCHAR aring.a
ENCODING -1
SWIDTH 573 0
DWIDTH 7 0
BBX 6 9 0 0
BITMAP
0B80
0B80
0000
1FB0
38F0
74B0
74B0
78F0
1FB0
ENDCHAR
STARTCHAR uni01CE.a
ENCODING -1
SWIDTH 573 0
DWIDTH 7 0
BBX 6 9 0 0
BITMAP
18A0
0BC0
0000
1FB0
38F0
74B0
74B0
78F0
1FB0
ENDCHAR
STARTCHAR uni1EA1.a
ENCODING -1
SWIDTH 573 0
DWIDTH 7 0
BBX 6 9 0 -3
BITMAP
1FB0
38F0
74B0
74B0
78F0
1FB0
0000
0740
0740
ENDCHAR
STARTCHAR uni1EA3.a
ENCODING -1
SWIDTH 573 0
DWIDTH 7 0
BBX 6 9 0 0
BITMAP
0740
0280
0200
1FB0
38F0
74B0
74B0
78F0
1FB0
ENDCHAR
STARTCHAR uni1EA5.a
ENCODING -1
SWIDTH 573 0
DWIDTH 7 0
BBX 7 10 0 0
BITMAP
0018
07A4
0DC0
0440
1FB0
38F0
74B0
74B0
78F0
1FB0
ENDCHAR
STARTCHAR uni1EA7.a
ENCODING -1
SWIDTH 573 0
DWIDTH 7 0
BBX 6 10 0 0
BITMAP
5000
2780
0DC0
0440
1FB0
38F0
74B0
74B0
78F0
1FB0
ENDCHAR
STARTCHAR uni1EA9.a
ENCODING -1
SWIDTH 573 0
DWIDTH 7 0
BBX 7 11 0 0
BITMAP
0074
0028
07A4
0DC0
0440
1FB0
38F0
74B0
74B0
78F0
1FB0
ENDCHAR
STARTCHAR uni1EAB.a
ENCODING -1
SWIDTH 573 0
DWIDTH 7 0
BBX 6 11 0 0
BITMAP
0590
0EC0
0400
0780
0DC0
1FF0
38F0
74B0
74B0
78F0
1FB0
ENDCHAR
STARTCHAR uni1EAD.a
ENCODING -1
SWIDTH 573 0
DWIDTH 7 0
BBX 6 12 0 -3
BITMAP
0BC0
18A0
0000
1FB0
38F0
74B0
74B0
78F0
1FB0
0000
0740
0740
ENDCHAR
STARTCHAR uni1EAF.a
ENCODING -1
SWIDTH 573 0
DWIDTH 7 0
BBX 6 11 0 0
BITMAP
0180
0240
18A0
0B80
0000
1FB0
38F0
74B0
74B0
78F0
1FB0
ENDCHAR
STARTCHAR uni1EB1.a
ENCODING -1
SWIDTH 573 0
DWIDTH 7 0
BBX 6 11 0 0
BITMAP
0500
0600
18A0
0B80
0000
1FB0
38F0
74B0
74B0
78F0
1FB0
ENDCHAR
STARTCHAR uni1EB3.a
ENCODING -1
SWIDTH 573 0
DWIDTH 7 0
BBX 6 12 0 0
BITMAP
0740
0280
0240
18A0
0B80
0000
1FB0
38F0
74B0
74B0
78F0
1FB0
ENDCHAR
STARTCHAR uni1EB5.a
ENCODING -1
SWIDTH 573 0
DWIDTH 7 0
BBX 6 12 0 0
BITMAP
0590
0EC0
0400
0C90
0B80
0000
1FB0
38F0
74B0
74B0
78F0
1FB0
ENDCHAR
STARTCHAR uni1EB7.a
ENCODING -1
SWIDTH 573 0
DWIDTH 7 0
BBX 6 12 0 -3
BITMAP
1CA0
0B80
0000
1FB0
38F0
74B0
74B0
78F0
1FB0
0000
0740
0740
ENDCHAR
STARTCHAR aogonek.a
ENCODING -1
SWIDTH 573 0
DWIDTH 7 0
BBX 6 8 0 -2
BITMAP
1FB0
38F0
74B0
74B0
78F0
1FB0
00D0
00B0
ENDCHAR
STARTCHAR g.a
ENCODING -1
SWIDTH 583 0
DWIDTH 7 0
BBX 6 8 0 -2
BITMAP
1FB0
38B0
74B0
74B0
38B0
1FB0
10B0
2F90
ENDCHAR
STARTCHAR uni01F5.a
ENCODING -1
SWIDTH 583 0
DWIDTH 7 0
BBX 6 12 0 -2
BITMAP
0090
02D0
0240
0000
1FB0
38B0
74B0
74B0
38B0
1FB0
10B0
2F90
ENDCHAR
STARTCHAR gcircumflex.a
ENCODING -1
SWIDTH 583 0
DWIDTH 7 0
BBX 6 11 0 -2
BITMAP
0BC0
18A0
0000
1FB0
38B0
74B0
74B0
38B0
1FB0
10B0
2F90
ENDCHAR
STARTCHAR gbreve.a
ENCODING -1
SWIDTH 583 0
DWIDTH 7 0
BBX 6 11 0 -2
BITMAP
1CA0
0B80
0000
1FB0
38B0
74B0
74B0
38B0
1FB0
10B0
2F90
ENDCHAR
STARTCHAR gdotaccent.a
ENCODING -1
SWIDTH 583 0
DWIDTH 7 0
BBX 6 11 0 -2
BITMAP
0740
0740
0000
1FB0
38B0
74B0
74B0
38B0
1FB0
10B0
2F90
ENDCHAR
STARTCHAR uni0123.a
ENCODING -1
SWIDTH 583 0
DWIDTH 7 0
BBX 6 12 0 -2
BITMAP
02C0
0700
0740
0000
1FB0
38B0
74B0
74B0
38B0
1FB0
10B0
2F90
ENDCHAR
STARTCHAR gcaron.a
ENCODING -1
SWIDTH 583 0
DWIDTH 7 0
BBX 6 11 0 -2
BITMAP
18A0
0BC0
0000
1FB0
38B0
74B0
74B0
38B0
1FB0
10B0
2F90
ENDCHAR
STARTCHAR uni1E21.a
ENCODING -1
SWIDTH 583 0
DWIDTH 7 0
BBX 6 10 0 -2
BITMAP
1FD0
0000
1FB0
38B0
74B0
74B0
38B0
1FB0
10B0
2F90
ENDCHAR
STARTCHAR uni00670303.a
ENCODING -1
SWIDTH 583 0
DWIDTH 7 0
BBX 6 12 0 -2
BITMAP
0010
1EA0
2940
0000
1FB0
38B0
74B0
74B0
38B0
1FB0
10B0
2F90
ENDCHAR
STARTCHAR l.a
ENCODING -1
SWIDTH 276 0
DWIDTH 3 0
BBX 3 9 0 0
BITMAP
78
78
78
78
78
78
78
78
78
ENDCHAR
STARTCHAR lacute.a
ENCODING -1
SWIDTH 276 0
DWIDTH 3 0
BBX 4 12 0 0
BITMAP
09
2D
24
78
78
78
78
78
78
78
78
78
ENDCHAR
STARTCHAR lcaron.a
ENCODING -1
SWIDTH 318 0
DWIDTH 4 0
BBX 4 9 0 0
BITMAP
7B
7B
78
78
78
78
78
78
78
ENDCHAR
STARTCHAR ldot.a
ENCODING -1
SWIDTH 453 0
DWIDTH 5 0
BBX 6 9 0 0
BITMAP
7800
7800
7800
7800
79D0
79D0
7800
7800
7800
ENDCHAR
STARTCHAR uni013C.a
ENCODING -1
SWIDTH 276 0
DWIDTH 3 0
BBX 3 12 0 -3
BITMAP
78
78
78
78
78
78
78
78
78
34
28
A4
ENDCHAR
STARTCHAR uni1E37.a
ENCODING -1
SWIDTH 276 0
DWIDTH 3 0
BBX 3 12 0 -3
BITMAP
78
78
78
78
78
78
78
78
78
00
74
74
ENDCHAR
STARTCHAR uni1E39.a
ENCODING -1
SWIDTH 276 0
DWIDTH 3 0
BBX 4 14 0 -3
BITMAP
FD
00
78
78
78
78
78
78
78
78
78
00
74
74
ENDCHAR
STARTCHAR uni1E3B.a
ENCODING -1
SWIDTH 276 0
DWIDTH 3 0
BBX 4 11 0 -2
BITMAP
78
78
78
78
78
78
78
78
78
00
FD
ENDCHAR
STARTCHAR lslash.a
ENCODING -1
SWIDTH 299 0
DWIDTH 4 0
BBX 4 9 0 0
BITMAP
38
38
38
3E
B8
78
38
38
38
ENDCHAR
STARTCHAR fl.a
ENCODING -1
SWIDTH 635 0
DWIDTH 8 0
BBX 7 9 0 0
BITMAP
1B7C
2C3C
3C3C
BF3C
3C3C
3C3C
3C3C
3C3C
3C3C
ENDCHAR
STARTCHAR anoteleia.cap
ENCODING -1
SWIDTH 300 0
DWIDTH 4 0
BBX 2 2 1 6
BITMAP
E0
E0
ENDCHAR
STARTCHAR tonos.cap
ENCODING -1
SWIDTH 119 0
DWIDTH 1 0
BBX 2 3 0 5
BITMAP
90
D0
80
ENDCHAR
STARTCHAR uni1FBD.cap
ENCODING -1
SWIDTH 164 0
DWIDTH 2 0
BBX 2 3 0 5
BITMAP
E0
70
50
ENDCHAR
STARTCHAR uni1FFE.cap
ENCODING -1
SWIDTH 161 0
DWIDTH 2 0
BBX 2 3 0 5
BITMAP
B0
D0
50
ENDCHAR
STARTCHAR uni1FEF.cap
ENCODING -1
SWIDTH 119 0
DWIDTH 1 0
BBX 2 2 0 6
BITMAP
D0
90
ENDCHAR
STARTCHAR uni1FCD.cap
ENCODING -1
SWIDTH 326 0
DWIDTH 4 0
BBX 4 2 0 6
BITMAP
EA
A7
ENDCHAR
STARTCHAR uni1FDD.cap
ENCODING -1
SWIDTH 325 0
DWIDTH 4 0
BBX 4 3 0 5
BITMAP
AA
D7
50
ENDCHAR
STARTCHAR uni1FCE.cap
ENCODING -1
SWIDTH 326 0
DWIDTH 4 0
BBX 4 3 0 5
BITMAP
E6
AA
05
ENDCHAR
STARTCHAR uni1FDE.cap
ENCODING -1
SWIDTH 317 0
DWIDTH 4 0
BBX 4 3 0 5
BITMAP
A6
DA
55
ENDCHAR
STARTCHAR uni1FCF.cap
ENCODING -1
SWIDTH 223 0
DWIDTH 3 0
BBX 3 3 0 5
BITMAP
F8
A0
30
ENDCHAR
STARTCHAR uni1FDF.cap
ENCODING -1
SWIDTH 223 0
DWIDTH 3 0
BBX 3 3 0 5
BITMAP
F8
74
60
ENDCHAR
STARTCHAR uni0407.a
ENCODING -1
SWIDTH 301 0
DWIDTH 4 0
BBX 4 10 0 0
BITMAP
99
99
38
38
38
38
38
38
38
38
ENDCHAR
STARTCHAR uni0457.a
ENCODING -1
SWIDTH 299 0
DWIDTH 4 0
BBX 4 9 0 0
BITMAP
99
99
00
38
38
38
38
38
38
ENDCHAR
STARTCHAR uni0431.srb
ENCODING -1
SWIDTH 546 0
DWIDTH 7 0
BBX 6 9 0 0
BITMAP
1BF0
2FE0
2D00
0F40
2EE0
74B0
70B0
74E0
1F80
ENDCHAR
STARTCHAR zero.0
ENCODING -1
SWIDTH 528 0
DWIDTH 6 0
BBX 6 8 0 0
BITMAP
1F80
39D0
70A0
BBB0
B6A0
70A0
39D0
1F80
ENDCHAR
STARTCHAR zero.0s
ENCODING -1
SWIDTH 528 0
DWIDTH 6 0
BBX 6 8 0 0
BITMAP
1F80
39D0
78A0
B9B0
B3A0
71E0
39D0
1F80
ENDCHAR
STARTCHAR zero.pnum
ENCODING -1
SWIDTH 580 0
DWIDTH 7 0
BBX 7 8 0 0
BITMAP
0B80
28E0
78B0
7474
7474
38B0
28E0
0B80
ENDCHAR
STARTCHAR one.pnum
ENCODING -1
SWIDTH 410 0
DWIDTH 5 0
BBX 4 8 0 0
BITMAP
1E
BE
0E
0E
0E
0E
0E
0E
ENDCHAR
STARTCHAR two.pnum
ENCODING -1
SWIDTH 526 0
DWIDTH 6 0
BBX 6 8 0 0
BITMAP
6F40
21D0
01D0
02D0
07C0
0F40
3E00
7FE0
ENDCHAR
STARTCHAR three.pnum
ENCODING -1
SWIDTH 528 0
DWIDTH 6 0
BBX 6 8 0 0
BITMAP
6F40
12D0
01D0
02D0
0F80
01E0
51E0
6F80
ENDCHAR
STARTCHAR four.pnum
ENCODING -1
SWIDTH 560 0
DWIDTH 7 0
BBX 7 8 0 0
BITMAP
03D0
0BD0
1ED0
2DD0
75D0
BFF4
01D0
01D0
ENDCHAR
STARTCHAR five.pnum
ENCODING -1
SWIDTH 528 0
DWIDTH 6 0
BBX 6 8 0 0
BITMAP
3FD0
3800
3800
3F80
11E0
00E0
51D0
6F80
ENDCHAR
STARTCHAR six.pnum
ENCODING -1
SWIDTH 562 0
DWIDTH 7 0
BBX 6 8 0 0
BITMAP
0BE0
2C50
3800
7BD0
78B0
74B0
28B0
0B90
ENDCHAR
STARTCHAR seven.pnum
ENCODING -1
SWIDTH 516 0
DWIDTH 6 0
BBX 6 8 0 0
BITMAP
7FE0
01D0
0380
0740
0B00
0E00
0E00
1E00
ENDCHAR
STARTCHAR eight.pnum
ENCODING -1
SWIDTH 549 0
DWIDTH 7 0
BBX 6 8 0 0
BITMAP
1F80
38E0
38E0
2EC0
2BD0
74B0
74A0
1F90
ENDCHAR
STARTCHAR nine.pnum
ENCODING -1
SWIDTH 562 0
DWIDTH 7 0
BBX 6 8 0 0
BITMAP
1F80
35D0
74B0
74F0
2FB0
00A0
11D0
2F40
ENDCHAR
STARTCHAR zero.0p
ENCODING -1
SWIDTH 580 0
DWIDTH 7 0
BBX 7 8 0 0
BITMAP
0B80
28A0
7470
7BB4
7674
3470
28A0
0B80
ENDCHAR
STARTCHAR zero.0ps
ENCODING -1
SWIDTH 580 0
DWIDTH 7 0
BBX 7 8 0 0
BITMAP
0B80
28A0
7C70
7A74
76B4
34F0
28A0
0B80
ENDCHAR
STARTCHAR zero.tnum
ENCODING -1
SWIDTH 528 0
DWIDTH 6 0
BBX 6 7 0 0
BITMAP
1F80
39D0
74E0
B0B0
74E0
39D0
1F80
ENDCHAR
STARTCHAR one.tnum
ENCODING -1
SWIDTH 528 0
DWIDTH 6 0
BBX 5 7 1 0
BITMAP
2D00
FD00
2D00
2D00
2D00
2D00
FF80
ENDCHAR
STARTCHAR two.tnum
ENCODING -1
SWIDTH 528 0
DWIDTH 6 0
BBX 6 7 0 0
BITMAP
6F40
22C0
01D0
03C0
0B80
3E00
BFE0
ENDCHAR
STARTCHAR three.tnum
ENCODING -1
SWIDTH 528 0
DWIDTH 6 0
BBX 6 8 0 -1
BITMAP
6F40
12D0
01D0
02D0
0F80
01E0
51E0
6F80
ENDCHAR
STARTCHAR four.tnum
ENCODING -1
SWIDTH 528 0
DWIDTH 6 0
BBX 6 8 0 -1
BITMAP
07D0
0BD0
1ED0
39D0
75D0
BFF0
01D0
01C0
ENDCHAR
STARTCHAR five.tnum
ENCODING -1
SWIDTH 528 0
DWIDTH 6 0
BBX 6 8 0 -1
BITMAP
3FD0
3800
3800
3F80
11E0
00E0
51D0
6F80
ENDCHAR
STARTCHAR six.tnum
ENCODING -1
SWIDTH 528 0
DWIDTH 6 0
BBX 6 8 0 0
BITMAP
0BD0
3840
7400
7B90
78E0
74B0
38E0
1B80
ENDCHAR
STARTCHAR seven.tnum
ENCODING -1
SWIDTH 528 0
DWIDTH 6 0
BBX 6 8 0 -1
BITMAP
7FE0
01D0
0380
0740
0B00
0E00
0E00
0500
ENDCHAR
STARTCHAR eight.tnum
ENCODING -1
SWIDTH 528 0
DWIDTH 6 0
BBX 6 8 0 0
BITMAP
1F80
38D0
34D0
2E80
2BD0
70E0
74E0
2F80
ENDCHAR
STARTCHAR nine.tnum
ENCODING -1
SWIDTH 528 0
DWIDTH 6 0
BBX 6 8 0 -1
BITMAP
2F40
75D0
B0E0
B5F0
2EE0
00E0
12D0
3F40
ENDCHAR
STARTCHAR zero.onum
ENCODING -1
SWIDTH 545 0
DWIDTH 7 0
BBX 6 7 0 0
BITMAP
1B80
38E0
74B0
74B0
74B0
38E0
1B80
ENDCHAR
STARTCHAR one.onum
ENCODING -1
SWIDTH 410 0
DWIDTH 5 0
BBX 4 7 0 0
BITMAP
1E
BE
0E
0E
0E
0E
0E
ENDCHAR
STARTCHAR two.onum
ENCODING -1
SWIDTH 518 0
DWIDTH 6 0
BBX 6 7 0 0
BITMAP
6F40
22C0
01D0
03C0
0B80
2E00
7FE0
ENDCHAR
STARTCHAR three.onum
ENCODING -1
SWIDTH 528 0
DWIDTH 6 0
BBX 6 8 0 -1
BITMAP
6F40
12D0
01D0
02D0
0F80
01E0
51E0
6F80
ENDCHAR
STARTCHAR four.onum
ENCODING -1
SWIDTH 545 0
DWIDTH 7 0
BBX 6 8 0 -1
BITMAP
07D0
0BD0
1ED0
29D0
75D0
BFF0
01D0
01D0
ENDCHAR
STARTCHAR five.onum
ENCODING -1
SWIDTH 528 0
DWIDTH 6 0
BBX 6 8 0 -1
BITMAP
3FD0
3800
3800
3F80
11E0
00E0
51D0
6F80
ENDCHAR
STARTCHAR six.onum
ENCODING -1
SWIDTH 545 0
DWIDTH 7 0
BBX 6 8 0 0
BITMAP
0BD0
2C40
7400
7BD0
78A0
74B0
38E0
0B80
ENDCHAR
STARTCHAR seven.onum
ENCODING -1
SWIDTH 516 0
DWIDTH 6 0
BBX 6 8 0 -1
BITMAP
7FE0
02D0
0340
0B00
0E00
0E00
1E00
0500
ENDCHAR
STARTCHAR eight.onum
ENCODING -1
SWIDTH 547 0
DWIDTH 7 0
BBX 6 8 0 0
BITMAP
1F80
38D0
38E0
2EC0
2BD0
74F0
74E0
1F80
ENDCHAR
STARTCHAR nine.onum
ENCODING -1
SWIDTH 545 0
DWIDTH 7 0
BBX 6 8 0 -1
BITMAP
2F40
75D0
B0A0
75F0
2EB0
00E0
11D0
3F40
ENDCHAR
STARTCHAR at.case
ENCODING -1
SWIDTH 830 0
DWIDTH 10 0
BBX 10 8 0 0
BITMAP
02FE00
1E0680
35ECD0
736890
6369C0
72DF40
290000
0BF400
ENDCHAR
STARTCHAR i.trk
ENCODING -1
SWIDTH 276 0
DWIDTH 3 0
BBX 3 9 0 0
BITMAP
24
74
00
78
78
78
78
78
78
ENDCHAR
STARTCHAR A.sc
ENCODING -1
SWIDTH 503 0
DWIDTH 6 0
BBX 6 6 0 0
BITMAP
1F40
2F80
3AC0
76D0
BFE0
F0F0
ENDCHAR
STARTCHAR B.sc
ENCODING -1
SWIDTH 546 0
DWIDTH 7 0
BBX 5 6 1 0
BITMAP
FF40
E380
FF40
E2C0
E2C0
FF40
ENDCHAR
STARTCHAR C.sc
ENCODING -1
SWIDTH 520 0
DWIDTH 6 0
BBX 6 6 0 0
BITMAP
0BD0
3840
7400
7400
3840
1BE0
ENDCHAR
STARTCHAR D.sc
ENCODING -1
SWIDTH 580 0
DWIDTH 7 0
BBX 6 6 1 0
BITMAP
FE40
E2C0
E1D0
E1D0
E2C0
FE40
ENDCHAR
STARTCHAR E.sc
ENCODING -1
SWIDTH 499 0
DWIDTH 6 0
BBX 5 6 1 0
BITMAP
FF40
E000
E000
FF00
E000
FF40
ENDCHAR
STARTCHAR F.sc
ENCODING -1
SWIDTH 476 0
DWIDTH 6 0
BBX 5 6 1 0
BITMAP
FF40
E000
E000
FF00
E000
E000
ENDCHAR
STARTCHAR G.sc
ENCODING -1
SWIDTH 576 0
DWIDTH 7 0
BBX 7 6 0 0
BITMAP
0BE0
3810
7400
75F4
3874
1BE0
ENDCHAR
STARTCHAR H.sc
ENCODING -1
SWIDTH 621 0
DWIDTH 7 0
BBX 6 6 1 0
BITMAP
E1E0
E1E0
FFE0
E1E0
E1E0
E1E0
ENDCHAR
STARTCHAR I.sc
ENCODING -1
SWIDTH 301 0
DWIDTH 4 0
BBX 2 6 1 0
BITMAP
E0
E0
E0
E0
E0
E0
ENDCHAR
STARTCHAR J.sc
ENCODING -1
SWIDTH 470 0
DWIDTH 6 0
BBX 5 6 0 0
BITMAP
0380
0380
0380
0380
1380
7E00
ENDCHAR
STARTCHAR K.sc
ENCODING -1
SWIDTH 555 0
DWIDTH 7 0
BBX 6 6 1 0
BITMAP
E3C0
EB40
FE00
FF00
E380
E1D0
ENDCHAR
STARTCHAR L.sc
ENCODING -1
SWIDTH 471 0
DWIDTH 6 0
BBX 5 6 1 0
BITMAP
E000
E000
E000
E000
E000
FF40
ENDCHAR
STARTCHAR M.sc
ENCODING -1
SWIDTH 685 0
DWIDTH 8 0
BBX 7 6 1 0
BITMAP
F0B4
F4F4
E9B4
EFB4
EB74
E174
ENDCHAR
STARTCHAR N.sc
ENCODING -1
SWIDTH 606 0
DWIDTH 7 0
BBX 6 6 1 0
BITMAP
F1D0
F9D0
EDD0
EED0
E7D0
E2D0
ENDCHAR
STARTCHAR O.sc
ENCODING -1
SWIDTH 616 0
DWIDTH 7 0
BBX 7 6 0 0
BITMAP
1BD0
3874
7438
7438
3874
1BD0
ENDCHAR
STARTCHAR P.sc
ENCODING -1
SWIDTH 551 0
DWIDTH 7 0
BBX 5 6 1 0
BITMAP
FF40
E2C0
E2C0
FF40
E000
E000
ENDCHAR
STARTCHAR Q.sc
ENCODING -1
SWIDTH 614 0
DWIDTH 7 0
BBX 7 8 0 -2
BITMAP
1BD0
3FF4
7878
7438
3874
1FE0
03C0
00BC
ENDCHAR
STARTCHAR R.sc
ENCODING -1
SWIDTH 561 0
DWIDTH 7 0
BBX 6 6 1 0
BITMAP
FF40
E2C0
E2C0
FF40
E780
E2D0
ENDCHAR
STARTCHAR S.sc
ENCODING -1
SWIDTH 504 0
DWIDTH 6 0
BBX 6 6 0 0
BITMAP
1F90
3840
3E40
07D0
21E0
6F80
ENDCHAR
STARTCHAR T.sc
ENCODING -1
SWIDTH 491 0
DWIDTH 6 0
BBX 6 6 0 0
BITMAP
BFE0
0E00
0E00
0E00
0E00
0E00
ENDCHAR
STARTCHAR U.sc
ENCODING -1
SWIDTH 607 0
DWIDTH 7 0
BBX 6 6 1 0
BITMAP
E1D0
E1D0
E1D0
E1D0
E2C0
6F40
ENDCHAR
STARTCHAR V.sc
ENCODING -1
SWIDTH 491 0
DWIDTH 6 0
BBX 6 6 0 0
BITMAP
F0E0
B1D0
75C0
3A80
2F40
1F00
ENDCHAR
STARTCHAR W.sc
ENCODING -1
SWIDTH 717 0
DWIDTH 9 0
BBX 9 6 0 0
BITMAP
B1D740
B2D700
77EB00
3B7A00
3E7E00
2E3D00
ENDCHAR
STARTCHAR X.sc
ENCODING -1
SWIDTH 509 0
DWIDTH 6 0
BBX 6 6 0 0
BITMAP
75E0
3EC0
1F40
1F40
3AC0
B5E0
ENDCHAR
STARTCHAR Y.sc
ENCODING -1
SWIDTH 467 0
DWIDTH 6 0
BBX 6 6 0 0
BITMAP
B1D0
76C0
2F40
1F00
0E00
0E00
ENDCHAR
STARTCHAR Z.sc
ENCODING -1
SWIDTH 481 0
DWIDTH 6 0
BBX 6 6 0 0
BITMAP
7FD0
07C0
0B40
2E00
7C00
BFD0
ENDCHAR
STARTCHAR Agrave.sc
ENCODING -1
SWIDTH 503 0
DWIDTH 6 0
BBX 6 10 0 0
BITMAP
2400
2D00
0900
0000
1F40
2F80
3AC0
76D0
BFE0
F0F0
ENDCHAR
STARTCHAR Aacute.sc
ENCODING -1
SWIDTH 503 0
DWIDTH 6 0
BBX 6 10 0 0
BITMAP
0140
0780
0A00
0000
1F40
2F80
3AC0
76D0
BFE0
F0F0
ENDCHAR
STARTCHAR Acircumflex.sc
ENCODING -1
SWIDTH 503 0
DWIDTH 6 0
BBX 6 9 0 0
BITMAP
1F40
2580
0000
1F40
2F80
3AC0
76D0
BFE0
F0F0
ENDCHAR
STARTCHAR Atilde.sc
ENCODING -1
SWIDTH 503 0
DWIDTH 6 0
BBX 6 10 0 0
BITMAP
0040
2EC0
6140
0000
1F40
2F80
3AC0
76D0
BFE0
F0F0
ENDCHAR
STARTCHAR Adieresis.sc
ENCODING -1
SWIDTH 503 0
DWIDTH 6 0
BBX 6 9 0 0
BITMAP
35C0
35C0
0000
1F40
2F80
3AC0
76D0
BFE0
F0F0
ENDCHAR
STARTCHAR Amacron.sc
ENCODING -1
SWIDTH 503 0
DWIDTH 6 0
BBX 6 9 0 0
BITMAP
3F80
0000
0000
1F40
2F80
3AC0
76D0
BFE0
F0F0
ENDCHAR
STARTCHAR Abreve.sc
ENCODING -1
SWIDTH 503 0
DWIDTH 6 0
BBX 6 9 0 0
BITMAP
2580
1F40
0000
1F40
2F80
3AC0
76D0
BFE0
F0F0
ENDCHAR
STARTCHAR Aring.sc
ENCODING -1
SWIDTH 503 0
DWIDTH 6 0
BBX 6 10 0 0
BITMAP
0F00
1A40
0F00
0000
1F40
2F80
3AC0
76D0
BFE0
F0F0
ENDCHAR
STARTCHAR uni01CD.sc
ENCODING -1
SWIDTH 503 0
DWIDTH 6 0
BBX 6 9 0 0
BITMAP
2580
1F40
0000
1F40
2F80
3AC0
76D0
BFE0
F0F0
ENDCHAR
STARTCHAR uni1EA0.sc
ENCODING -1
SWIDTH 503 0
DWIDTH 6 0
BBX 6 9 0 -3
BITMAP
1F40
2F80
3AC0
76D0
BFE0
F0F0
0000
0A00
0A00
ENDCHAR
STARTCHAR uni1EA2.sc
ENCODING -1
SWIDTH 503 0
DWIDTH 6 0
BBX 6 10 0 0
BITMAP
0E00
0700
0500
0000
1F40
2F80
3AC0
76D0
BFE0
F0F0
ENDCHAR
STARTCHAR uni1EA4.sc
ENCODING -1
SWIDTH 503 0
DWIDTH 6 0
BBX 6 10 0 0
BITMAP
0020
0F90
2A80
1040
1F40
2F80
3AC0
76D0
BFE0
F0F0
ENDCHAR
STARTCHAR uni1EA6.sc
ENCODING -1
SWIDTH 503 0
DWIDTH 6 0
BBX 6 10 0 0
BITMAP
8000
6F00
2A80
1040
1F40
2F80
3AC0
76D0
BFE0
F0F0
ENDCHAR
STARTCHAR uni1EA8.sc
ENCODING -1
SWIDTH 503 0
DWIDTH 6 0
BBX 6 11 0 0
BITMAP
00A0
0070
0F60
2A80
1040
1F40
2F80
3AC0
76D0
BFE0
F0F0
ENDCHAR
STARTCHAR uni1EAA.sc
ENCODING -1
SWIDTH 503 0
DWIDTH 6 0
BBX 6 12 0 0
BITMAP
1580
2B40
1000
0F00
2A80
1040
1F40
2F80
3AC0
76D0
BFE0
F0F0
ENDCHAR
STARTCHAR uni1EAC.sc
ENCODING -1
SWIDTH 503 0
DWIDTH 6 0
BBX 6 12 0 -3
BITMAP
1F40
2580
0000
1F40
2F80
3AC0
76D0
BFE0
F0F0
0000
0A00
0A00
ENDCHAR
STARTCHAR uni1EAE.sc
ENCODING -1
SWIDTH 503 0
DWIDTH 6 0
BBX 6 11 0 0
BITMAP
0240
0600
3580
1F40
0000
1F40
2F80
3AC0
76D0
BFE0
F0F0
ENDCHAR
STARTCHAR uni1EB0.sc
ENCODING -1
SWIDTH 503 0
DWIDTH 6 0
BBX 6 11 0 0
BITMAP
1800
0900
3580
1F40
0000
1F40
2F80
3AC0
76D0
BFE0
F0F0
ENDCHAR
STARTCHAR uni1EB2.sc
ENCODING -1
SWIDTH 503 0
DWIDTH 6 0
BBX 6 12 0 0
BITMAP
0A00
0700
0600
3580
1F40
0000
1F40
2F80
3AC0
76D0
BFE0
F0F0
ENDCHAR
STARTCHAR uni1EB4.sc
ENCODING -1
SWIDTH 503 0
DWIDTH 6 0
BBX 6 12 0 0
BITMAP
1580
2B40
1000
2580
1F40
0000
1F40
2F80
3AC0
76D0
BFE0
F0F0
ENDCHAR
STARTCHAR uni1EB6.sc
ENCODING -1
SWIDTH 503 0
DWIDTH 6 0
BBX 6 12 0 -3
BITMAP
2580
1F40
0000
1F40
2F80
3AC0
76D0
BFE0
F0F0
0000
0A00
0A00
ENDCHAR
STARTCHAR Aogonek.sc
ENCODING -1
SWIDTH 503 0
DWIDTH 6 0
BBX 6 9 0 -3
BITMAP
1F40
2F80
3AC0
76D0
BFE0
F0F0
0090
01C0
00B0
ENDCHAR
STARTCHAR AE.sc
ENCODING -1
SWIDTH 741 0
DWIDTH 9 0
BBX 9 6 0 0
BITMAP
07FF00
0FE000
1DF500
3DF900
7AE000
F0FF40
ENDCHAR
STARTCHAR uni01FC.sc
ENCODING -1
SWIDTH 741 0
DWIDTH 9 0
BBX 9 10 0 0
BITMAP
000800
003D00
002000
000000
07FF00
0FE000
1DF500
3DF900
7AE000
F0FF40
ENDCHAR
STARTCHAR uni01E2.sc
ENCODING -1
SWIDTH 741 0
DWIDTH 9 0
BBX 9 9 0 0
BITMAP
01FD00
000000
000000
07FF00
0FE000
1DF500
3DF900
7AE000
F0FF40
ENDCHAR
STARTCHAR uni0243.sc
ENCODING -1
SWIDTH 570 0
DWIDTH 7 0
BBX 7 6 0 0
BITMAP
2FE0
2CB0
2FE0
2C74
BFB4
2FE0
ENDCHAR
STARTCHAR uni1E06.sc
ENCODING -1
SWIDTH 546 0
DWIDTH 7 0
BBX 5 8 1 -2
BITMAP
FF40
E380
FF40
E2C0
E2C0
FF40
0000
7F40
ENDCHAR
STARTCHAR Ccedilla.sc
ENCODING -1
SWIDTH 520 0
DWIDTH 6 0
BBX 6 9 0 -3
BITMAP
0BD0
3840
7400
7400
3840
1BE0
0780
0280
0A40
ENDCHAR
STARTCHAR Cacute.sc
ENCODING -1
SWIDTH 520 0
DWIDTH 6 0
BBX 6 10 0 0
BITMAP
0090
02D0
0240
0000
0BD0
3840
7400
7400
3840
1BE0
ENDCHAR
STARTCHAR Ccircumflex.sc
ENCODING -1
SWIDTH 520 0
DWIDTH 6 0
BBX 6 9 0 0
BITMAP
0BC0
0890
0000
0BD0
3840
7400
7400
3840
1BE0
ENDCHAR
STARTCHAR Ccaron.sc
ENCODING -1
SWIDTH 520 0
DWIDTH 6 0
BBX 6 9 0 0
BITMAP
0890
0BC0
0000
0BD0
3840
7400
7400
3840
1BE0
ENDCHAR
STARTCHAR Cdotaccent.sc
ENCODING -1
SWIDTH 520 0
DWIDTH 6 0
BBX 6 9 0 0
BITMAP
0340
0340
0000
0BD0
3840
7400
7400
3840
1BE0
ENDCHAR
STARTCHAR Dcaron.sc
ENCODING -1
SWIDTH 580 0
DWIDTH 7 0
BBX 6 9 1 0
BITMAP
6240
2F00
0000
FE40
E2C0
E1D0
E1D0
E2C0
FE40
ENDCHAR
STARTCHAR uni1E0C.sc
ENCODING -1
SWIDTH 580 0
DWIDTH 7 0
BBX 6 9 1 -3
BITMAP
FE40
E2C0
E1D0
E1D0
E2C0
FE40
0000
1D00
1D00
ENDCHAR
STARTCHAR uni1E0E.sc
ENCODING -1
SWIDTH 580 0
DWIDTH 7 0
BBX 6 8 1 -2
BITMAP
FE40
E2C0
E1D0
E1D0
E2C0
FE40
0000
7F40
ENDCHAR
STARTCHAR Dcroat.sc
ENCODING -1
SWIDTH 604 0
DWIDTH 7 0
BBX 7 6 0 0
BITMAP
2F90
2CB4
BF78
2C78
2CB4
2FD0
ENDCHAR
STARTCHAR Egrave.sc
ENCODING -1
SWIDTH 499 0
DWIDTH 6 0
BBX 5 10 1 0
BITMAP
6000
B800
1800
0000
FF40
E000
E000
FF00
E000
FF40
ENDCHAR
STARTCHAR Eacute.sc
ENCODING -1
SWIDTH 499 0
DWIDTH 6 0
BBX 5 10 1 0
BITMAP
0600
1F00
1800
0000
FF40
E000
E000
FF00
E000
FF40
ENDCHAR
STARTCHAR Ecircumflex.sc
ENCODING -1
SWIDTH 499 0
DWIDTH 6 0
BBX 5 9 1 0
BITMAP
3E00
A200
0000
FF40
E000
E000
FF00
E000
FF40
ENDCHAR
STARTCHAR Ecaron.sc
ENCODING -1
SWIDTH 499 0
DWIDTH 6 0
BBX 5 9 1 0
BITMAP
A200
3E00
0000
FF40
E000
E000
FF00
E000
FF40
ENDCHAR
STARTCHAR Edieresis.sc
ENCODING -1
SWIDTH 499 0
DWIDTH 6 0
BBX 5 9 1 0
BITMAP
A340
A340
0000
FF40
E000
E000
FF00
E000
FF40
ENDCHAR
STARTCHAR Emacron.sc
ENCODING -1
SWIDTH 499 0
DWIDTH 6 0
BBX 5 9 1 0
BITMAP
BF00
0000
0000
FF40
E000
E000
FF00
E000
FF40
ENDCHAR
STARTCHAR Ebreve.sc
ENCODING -1
SWIDTH 499 0
DWIDTH 6 0
BBX 5 9 1 0
BITMAP
A300
7E00
0000
FF40
E000
E000
FF00
E000
FF40
ENDCHAR
STARTCHAR Edotaccent.sc
ENCODING -1
SWIDTH 499 0
DWIDTH 6 0
BBX 5 9 1 0
BITMAP
2C00
2C00
0000
FF40
E000
E000
FF00
E000
FF40
ENDCHAR
STARTCHAR uni1EB8.sc
ENCODING -1
SWIDTH 499 0
DWIDTH 6 0
BBX 5 9 1 -3
BITMAP
FF40
E000
E000
FF00
E000
FF40
0000
2C00
2C00
ENDCHAR
STARTCHAR uni1EBA.sc
ENCODING -1
SWIDTH 499 0
DWIDTH 6 0
BBX 5 10 1 0
BITMAP
2800
1D00
0400
0000
FF40
E000
E000
FF00
E000
FF40
ENDCHAR
STARTCHAR uni1EBC.sc
ENCODING -1
SWIDTH 499 0
DWIDTH 6 0
BBX 5 10 1 0
BITMAP
0140
BB40
C500
0000
FF40
E000
E000
FF00
E000
FF40
ENDCHAR
STARTCHAR uni1EBE.sc
ENCODING -1
SWIDTH 499 0
DWIDTH 6 0
BBX 5 10 1 0
BITMAP
0080
2E80
6600
0100
FF40
E000
E000
FF00
E000
FF40
ENDCHAR
STARTCHAR uni1EC0.sc
ENCODING -1
SWIDTH 499 0
DWIDTH 6 0
BBX 6 10 0 0
BITMAP
9000
6B40
1980
0040
3FD0
3800
3800
3FC0
3800
3FD0
ENDCHAR
STARTCHAR uni1EC2.sc
ENCODING -1
SWIDTH 499 0
DWIDTH 6 0
BBX 6 11 1 0
BITMAP
0280
00D0
2D80
6600
0100
FF40
E000
E000
FF00
E000
FF40
ENDCHAR
STARTCHAR uni1EC4.sc
ENCODING -1
SWIDTH 499 0
DWIDTH 6 0
BBX 5 12 1 0
BITMAP
2600
6E00
4000
2D00
6600
0100
FF40
E000
E000
FF00
E000
FF40
ENDCHAR
STARTCHAR uni1EC6.sc
ENCODING -1
SWIDTH 499 0
DWIDTH 6 0
BBX 5 12 1 -3
BITMAP
3E00
A200
0000
FF40
E000
E000
FF00
E000
FF40
0000
2C00
2C00
ENDCHAR
STARTCHAR Eogonek.sc
ENCODING -1
SWIDTH 499 0
DWIDTH 6 0
BBX 5 9 1 -3
BITMAP
FF40
E000
E000
FF00
E000
FF40
0A00
0D00
0B40
ENDCHAR
STARTCHAR uni1E16.sc
ENCODING -1
SWIDTH 499 0
DWIDTH 6 0
BBX 5 12 1 0
BITMAP
0A00
1800
0000
BF00
0000
0000
FF40
E000
E000
FF00
E000
FF40
ENDCHAR
STARTCHAR uni01F4.sc
ENCODING -1
SWIDTH 576 0
DWIDTH 7 0
BBX 7 10 0 0
BITMAP
0090
02E0
0240
0000
0BE0
3810
7400
75F4
3874
1BE0
ENDCHAR
STARTCHAR Gcircumflex.sc
ENCODING -1
SWIDTH 576 0
DWIDTH 7 0
BBX 7 9 0 0
BITMAP
07D0
0960
0000
0BE0
3810
7400
75F4
3874
1BE0
ENDCHAR
STARTCHAR Gbreve.sc
ENCODING -1
SWIDTH 576 0
DWIDTH 7 0
BBX 7 9 0 0
BITMAP
0C60
07D0
0000
0BE0
3810
7400
75F4
3874
1BE0
ENDCHAR
STARTCHAR Gdotaccent.sc
ENCODING -1
SWIDTH 576 0
DWIDTH 7 0
BBX 7 9 0 0
BITMAP
0380
0380
0000
0BE0
3810
7400
75F4
3874
1BE0
ENDCHAR
STARTCHAR uni0122.sc
ENCODING -1
SWIDTH 576 0
DWIDTH 7 0
BBX 7 9 0 -3
BITMAP
0BE0
3810
7400
75F4
3874
1BE0
0280
02C0
0740
ENDCHAR
STARTCHAR Gcaron.sc
ENCODING -1
SWIDTH 576 0
DWIDTH 7 0
BBX 7 9 0 0
BITMAP
0960
07D0
0000
0BE0
3810
7400
75F4
3874
1BE0
ENDCHAR
STARTCHAR uni1E20.sc
ENCODING -1
SWIDTH 576 0
DWIDTH 7 0
BBX 7 9 0 0
BITMAP
0FE0
0000
0000
0BE0
3810
7400
75F4
3874
1BE0
ENDCHAR
STARTCHAR uni00470303.sc
ENCODING -1
SWIDTH 576 0
DWIDTH 7 0
BBX 7 10 0 0
BITMAP
0010
0FB0
1850
0000
0BE0
3810
7400
75F4
3874
1BE0
ENDCHAR
STARTCHAR uni0193.sc
ENCODING -1
SWIDTH 576 0
DWIDTH 7 0
BBX 7 8 0 0
BITMAP
0078
00B0
0BE0
3800
7400
75F4
3874
1BE0
ENDCHAR
STARTCHAR Hcircumflex.sc
ENCODING -1
SWIDTH 621 0
DWIDTH 7 0
BBX 6 9 1 0
BITMAP
2F00
2240
0000
E1E0
E1E0
FFE0
E1E0
E1E0
E1E0
ENDCHAR
STARTCHAR uni1E24.sc
ENCODING -1
SWIDTH 621 0
DWIDTH 7 0
BBX 6 9 1 -3
BITMAP
E1E0
E1E0
FFE0
E1E0
E1E0
E1E0
0000
0D00
0D00
ENDCHAR
STARTCHAR uni1E2A.sc
ENCODING -1
SWIDTH 621 0
DWIDTH 7 0
BBX 6 9 1 -3
BITMAP
E1E0
E1E0
FFE0
E1E0
E1E0
E1E0
0000
7280
2E40
ENDCHAR
STARTCHAR Hbar.sc
ENCODING -1
SWIDTH 660 0
DWIDTH 8 0
BBX 8 6 0 0
BITMAP
3C38
BFFE
3C38
3FF8
3C38
3C38
ENDCHAR
STARTCHAR Igrave.sc
ENCODING -1
SWIDTH 301 0
DWIDTH 4 0
BBX 3 10 0 0
BITMAP
90
F4
24
00
38
38
38
38
38
38
ENDCHAR
STARTCHAR Iacute.sc
ENCODING -1
SWIDTH 301 0
DWIDTH 4 0
BBX 3 10 1 0
BITMAP
24
B8
90
00
E0
E0
E0
E0
E0
E0
ENDCHAR
STARTCHAR Icircumflex.sc
ENCODING -1
SWIDTH 301 0
DWIDTH 4 0
BBX 4 9 0 0
BITMAP
BC
96
00
38
38
38
38
38
38
ENDCHAR
STARTCHAR Itilde.sc
ENCODING -1
SWIDTH 301 0
DWIDTH 4 0
BBX 5 10 -1 0
BITMAP
0040
3EC0
6540
0000
0E00
0E00
0E00
0E00
0E00
0E00
ENDCHAR
STARTCHAR Idieresis.sc
ENCODING -1
SWIDTH 301 0
DWIDTH 4 0
BBX 5 9 -1 0
BITMAP
7280
7280
0000
0E00
0E00
0E00
0E00
0E00
0E00
ENDCHAR
STARTCHAR Imacron.sc
ENCODING -1
SWIDTH 301 0
DWIDTH 4 0
BBX 4 9 0 0
BITMAP
FE
00
00
38
38
38
38
38
38
ENDCHAR
STARTCHAR Idotaccent.sc
ENCODING -1
SWIDTH 301 0
DWIDTH 4 0
BBX 2 9 1 0
BITMAP
E0
E0
00
E0
E0
E0
E0
E0
E0
ENDCHAR
STARTCHAR uni01CF.sc
ENCODING -1
SWIDTH 301 0
DWIDTH 4 0
BBX 4 9 0 0
BITMAP
96
BC
00
38
38
38
38
38
38
ENDCHAR
STARTCHAR uni1EC8.sc
ENCODING -1
SWIDTH 301 0
DWIDTH 4 0
BBX 3 10 0 0
BITMAP
78
2C
10
00
38
38
38
38
38
38
ENDCHAR
STARTCHAR uni1ECA.sc
ENCODING -1
SWIDTH 301 0
DWIDTH 4 0
BBX 2 9 1 -3
BITMAP
E0
E0
E0
E0
E0
E0
00
E0
E0
ENDCHAR
STARTCHAR Iogonek.sc
ENCODING -1
SWIDTH 301 0
DWIDTH 4 0
BBX 3 9 0 -3
BITMAP
38
38
38
38
38
38
34
70
7C
ENDCHAR
STARTCHAR uni012C.sc
ENCODING -1
SWIDTH 301 0
DWIDTH 4 0
BBX 4 9 0 0
BITMAP
C6
BD
00
38
38
38
38
38
38
ENDCHAR
STARTCHAR Jcircumflex.sc
ENCODING -1
SWIDTH 470 0
DWIDTH 6 0
BBX 6 9 0 0
BITMAP
0BC0
0960
0000
0380
0380
0380
0380
1380
7E00
ENDCHAR
STARTCHAR uni0136.sc
ENCODING -1
SWIDTH 555 0
DWIDTH 7 0
BBX 6 9 1 -3
BITMAP
E3C0
EB40
FE00
FF00
E380
E1D0
0E00
0B00
1D00
ENDCHAR
STARTCHAR uni1E32.sc
ENCODING -1
SWIDTH 555 0
DWIDTH 7 0
BBX 6 9 1 -3
BITMAP
E3C0
EB40
FE00
FF00
E380
E1D0
0000
0E00
0E00
ENDCHAR
STARTCHAR uni1E34.sc
ENCODING -1
SWIDTH 555 0
DWIDTH 7 0
BBX 6 8 1 -2
BITMAP
E3C0
EB40
FE00
FF00
E380
E1D0
0000
3F80
ENDCHAR
STARTCHAR Lacute.sc
ENCODING -1
SWIDTH 471 0
DWIDTH 6 0
BBX 5 10 1 0
BITMAP
2400
B800
9000
0000
E000
E000
E000
E000
E000
FF40
ENDCHAR
STARTCHAR Lcaron.sc
ENCODING -1
SWIDTH 471 0
DWIDTH 6 0
BBX 5 7 1 0
BITMAP
0300
E300
E000
E000
E000
E000
FF40
ENDCHAR
STARTCHAR uni013B.sc
ENCODING -1
SWIDTH 471 0
DWIDTH 6 0
BBX 5 9 1 -3
BITMAP
E000
E000
E000
E000
E000
FF40
2800
1D00
3800
ENDCHAR
STARTCHAR Ldot.sc
ENCODING -1
SWIDTH 471 0
DWIDTH 6 0
BBX 5 6 1 0
BITMAP
E000
E740
E740
E000
E000
FF40
ENDCHAR
STARTCHAR uni1E36.sc
ENCODING -1
SWIDTH 471 0
DWIDTH 6 0
BBX 5 9 1 -3
BITMAP
E000
E000
E000
E000
E000
FF40
0000
2C00
2C00
ENDCHAR
STARTCHAR uni1E38.sc
ENCODING -1
SWIDTH 471 0
DWIDTH 6 0
BBX 6 12 0 -3
BITMAP
FE00
0000
0000
3800
3800
3800
3800
3800
3FD0
0000
0B00
0B00
ENDCHAR
STARTCHAR uni1E3A.sc
ENCODING -1
SWIDTH 471 0
DWIDTH 6 0
BBX 5 8 1 -2
BITMAP
E000
E000
E000
E000
E000
FF40
0000
BF00
ENDCHAR
STARTCHAR Lslash.sc
ENCODING -1
SWIDTH 471 0
DWIDTH 6 0
BBX 6 6 0 0
BITMAP
3800
3980
3F40
BC00
B800
3FD0
ENDCHAR
STARTCHAR uni1E3E.sc
ENCODING -1
SWIDTH 685 0
DWIDTH 8 0
BBX 7 10 1 0
BITMAP
0180
0780
0600
0000
F0B4
F4F4
E9B4
EFB4
EB74
E174
ENDCHAR
STARTCHAR uni1E40.sc
ENCODING -1
SWIDTH 685 0
DWIDTH 8 0
BBX 7 9 1 0
BITMAP
0B00
0B00
0000
F0B4
F4F4
E9B4
EFB4
EB74
E174
ENDCHAR
STARTCHAR uni1E42.sc
ENCODING -1
SWIDTH 685 0
DWIDTH 8 0
BBX 7 9 1 -3
BITMAP
F0B4
F4F4
E9B4
EFB4
EB74
E174
0000
0B00
0B00
ENDCHAR
STARTCHAR Nacute.sc
ENCODING -1
SWIDTH 606 0
DWIDTH 7 0
BBX 6 10 1 0
BITMAP
0240
0B40
0900
0000
F1D0
F9D0
EDD0
EED0
E7D0
E2D0
ENDCHAR
STARTCHAR uni01F8.sc
ENCODING -1
SWIDTH 606 0
DWIDTH 7 0
BBX 6 10 1 0
BITMAP
2400
3D00
0900
0000
F1D0
F9D0
EDD0
EED0
E7D0
E2D0
ENDCHAR
STARTCHAR Ncaron.sc
ENCODING -1
SWIDTH 606 0
DWIDTH 7 0
BBX 6 9 1 0
BITMAP
2280
2F00
0000
F1D0
F9D0
EDD0
EED0
E7D0
E2D0
ENDCHAR
STARTCHAR Ntilde.sc
ENCODING -1
SWIDTH 606 0
DWIDTH 7 0
BBX 6 10 1 0
BITMAP
0040
7EC0
A500
0000
F1D0
F9D0
EDD0
EED0
E7D0
E2D0
ENDCHAR
STARTCHAR uni0145.sc
ENCODING -1
SWIDTH 606 0
DWIDTH 7 0
BBX 6 9 1 -3
BITMAP
F1D0
F9D0
EDD0
EED0
E7D0
E2D0
0D00
0A00
2900
ENDCHAR
STARTCHAR uni1E44.sc
ENCODING -1
SWIDTH 606 0
DWIDTH 7 0
BBX 6 9 1 0
BITMAP
0E00
0E00
0000
F1D0
F9D0
EDD0
EED0
E7D0
E2D0
ENDCHAR
STARTCHAR uni1E46.sc
ENCODING -1
SWIDTH 606 0
DWIDTH 7 0
BBX 6 9 1 -3
BITMAP
F1D0
F9D0
EDD0
EED0
E7D0
E2D0
0000
0D00
0D00
ENDCHAR
STARTCHAR uni1E48.sc
ENCODING -1
SWIDTH 606 0
DWIDTH 7 0
BBX 6 8 1 -2
BITMAP
F1D0
F9D0
EDD0
EED0
E7D0
E2D0
0000
3F40
ENDCHAR
STARTCHAR Ograve.sc
ENCODING -1
SWIDTH 616 0
DWIDTH 7 0
BBX 7 10 0 0
BITMAP
0900
0F40
0240
0000
1BD0
3874
7438
7438
3874
1BD0
ENDCHAR
STARTCHAR Oacute.sc
ENCODING -1
SWIDTH 616 0
DWIDTH 7 0
BBX 7 10 0 0
BITMAP
0090
02D0
0240
0000
1BD0
3874
7438
7438
3874
1BD0
ENDCHAR
STARTCHAR Ocircumflex.sc
ENCODING -1
SWIDTH 616 0
DWIDTH 7 0
BBX 7 9 0 0
BITMAP
0BC0
0890
0000
1BD0
3874
7438
7438
3874
1BD0
ENDCHAR
STARTCHAR Otilde.sc
ENCODING -1
SWIDTH 616 0
DWIDTH 7 0
BBX 7 10 0 0
BITMAP
0010
1FB0
2940
0000
1BD0
3874
7438
7438
3874
1BD0
ENDCHAR
STARTCHAR Odieresis.sc
ENCODING -1
SWIDTH 616 0
DWIDTH 7 0
BBX 7 9 0 0
BITMAP
1CA0
1CA0
0000
1BD0
3874
7438
7438
3874
1BD0
ENDCHAR
STARTCHAR Omacron.sc
ENCODING -1
SWIDTH 616 0
DWIDTH 7 0
BBX 7 9 0 0
BITMAP
0FE0
0000
0000
1BD0
3874
7438
7438
3874
1BD0
ENDCHAR
STARTCHAR Ohungarumlaut.sc
ENCODING -1
SWIDTH 616 0
DWIDTH 7 0
BBX 7 9 0 0
BITMAP
0224
0960
0000
1BD0
3874
7438
7438
3874
1BD0
ENDCHAR
STARTCHAR uni01D1.sc
ENCODING -1
SWIDTH 616 0
DWIDTH 7 0
BBX 7 9 0 0
BITMAP
0890
0BC0
0000
1BD0
3874
7438
7438
3874
1BD0
ENDCHAR
STARTCHAR uni1ECC.sc
ENCODING -1
SWIDTH 616 0
DWIDTH 7 0
BBX 7 9 0 -3
BITMAP
1BD0
3874
7438
7438
3874
1BD0
0000
0340
0340
ENDCHAR
STARTCHAR uni1ECE.sc
ENCODING -1
SWIDTH 616 0
DWIDTH 7 0
BBX 7 10 0 0
BITMAP
0740
0280
0100
0000
1BD0
3874
7438
7438
3874
1BD0
ENDCHAR
STARTCHAR uni1ED0.sc
ENCODING -1
SWIDTH 616 0
DWIDTH 7 0
BBX 7 10 0 0
BITMAP
0014
07A4
0DD0
0400
1BD0
3874
7438
7438
3874
1BD0
ENDCHAR
STARTCHAR uni1ED2.sc
ENCODING -1
SWIDTH 616 0
DWIDTH 7 0
BBX 7 10 0 0
BITMAP
2000
2B80
0DD0
0400
1BD0
3874
7438
7438
3874
1BD0
ENDCHAR
STARTCHAR uni1ED4.sc
ENCODING -1
SWIDTH 616 0
DWIDTH 7 0
BBX 7 11 0 0
BITMAP
0034
0028
07A4
0DD0
0400
1BD0
3874
7438
7438
3874
1BD0
ENDCHAR
STARTCHAR uni1ED6.sc
ENCODING -1
SWIDTH 616 0
DWIDTH 7 0
BBX 7 12 0 0
BITMAP
0550
0ED0
0400
0780
0DD0
0400
1BD0
3874
7438
7438
3874
1BD0
ENDCHAR
STARTCHAR uni1ED8.sc
ENCODING -1
SWIDTH 616 0
DWIDTH 7 0
BBX 7 12 0 -3
BITMAP
0BC0
0890
0000
1BD0
3874
7438
7438
3874
1BD0
0000
0340
0340
ENDCHAR
STARTCHAR Oslash.sc
ENCODING -1
SWIDTH 616 0
DWIDTH 7 0
BBX 7 6 0 0
BITMAP
1BE8
38B4
75B8
7A38
3C74
2BD0
ENDCHAR
STARTCHAR OE.sc
ENCODING -1
SWIDTH 766 0
DWIDTH 9 0
BBX 9 6 0 0
BITMAP
1BFF40
38B000
74B000
74BF00
38B000
1BFF80
ENDCHAR
STARTCHAR Ohorn.sc
ENCODING -1
SWIDTH 616 0
DWIDTH 7 0
BBX 8 8 0 0
BITMAP
0009
001D
1BF4
3874
7438
7438
3874
1BD0
ENDCHAR
STARTCHAR uni1EDA.sc
ENCODING -1
SWIDTH 616 0
DWIDTH 7 0
BBX 8 10 0 0
BITMAP
0090
02D0
0249
001D
1BF4
3874
7438
7438
3874
1BD0
ENDCHAR
STARTCHAR uni1EDC.sc
ENCODING -1
SWIDTH 616 0
DWIDTH 7 0
BBX 8 10 0 0
BITMAP
0900
0F40
0249
001D
1BF4
3874
7438
7438
3874
1BD0
ENDCHAR
STARTCHAR uni1EDE.sc
ENCODING -1
SWIDTH 616 0
DWIDTH 7 0
BBX 8 10 0 0
BITMAP
0740
0280
0109
001D
1BF4
3874
7438
7438
3874
1BD0
ENDCHAR
STARTCHAR uni1EE0.sc
ENCODING -1
SWIDTH 616 0
DWIDTH 7 0
BBX 8 10 0 0
BITMAP
0050
1EA0
3549
001D
1BF4
3874
7438
7438
3874
1BD0
ENDCHAR
STARTCHAR uni1EE2.sc
ENCODING -1
SWIDTH 616 0
DWIDTH 7 0
BBX 8 11 0 -3
BITMAP
0009
001D
1BF4
3874
7438
7438
3874
1BD0
0000
0340
0340
ENDCHAR
STARTCHAR uni01EA.sc
ENCODING -1
SWIDTH 616 0
DWIDTH 7 0
BBX 7 9 0 -3
BITMAP
1BD0
3874
7438
7438
3874
1BE0
0340
0700
03C0
ENDCHAR
STARTCHAR uni014E.sc
ENCODING -1
SWIDTH 616 0
DWIDTH 7 0
BBX 7 9 0 0
BITMAP
0C90
0BC0
0000
1BD0
3874
7438
7438
3874
1BD0
ENDCHAR
STARTCHAR uni1E52.sc
ENCODING -1
SWIDTH 616 0
DWIDTH 7 0
BBX 7 12 0 0
BITMAP
0180
0240
0000
0FE0
0000
0000
1BD0
3874
7438
7438
3874
1BD0
ENDCHAR
STARTCHAR Racute.sc
ENCODING -1
SWIDTH 561 0
DWIDTH 7 0
BBX 6 10 1 0
BITMAP
0200
0B40
0900
0000
FF40
E2C0
E2C0
FF40
E780
E2D0
ENDCHAR
STARTCHAR uni1E58.sc
ENCODING -1
SWIDTH 561 0
DWIDTH 7 0
BBX 6 9 1 0
BITMAP
1D00
1D00
0000
FF40
E2C0
E2C0
FF40
E780
E2D0
ENDCHAR
STARTCHAR Rcaron.sc
ENCODING -1
SWIDTH 561 0
DWIDTH 7 0
BBX 6 9 1 0
BITMAP
6240
2F00
0000
FF40
E2C0
E2C0
FF40
E780
E2D0
ENDCHAR
STARTCHAR uni0156.sc
ENCODING -1
SWIDTH 561 0
DWIDTH 7 0
BBX 6 9 1 -3
BITMAP
FF40
E2C0
E2C0
FF40
E780
E2D0
0D00
0A00
2900
ENDCHAR
STARTCHAR uni1E5A.sc
ENCODING -1
SWIDTH 561 0
DWIDTH 7 0
BBX 6 9 1 -3
BITMAP
FF40
E2C0
E2C0
FF40
E780
E2D0
0000
1D00
1D00
ENDCHAR
STARTCHAR uni1E5C.sc
ENCODING -1
SWIDTH 561 0
DWIDTH 7 0
BBX 6 12 1 -3
BITMAP
7F40
0000
0000
FF40
E2C0
E2C0
FF40
E780
E2D0
0000
1D00
1D00
ENDCHAR
STARTCHAR uni1E5E.sc
ENCODING -1
SWIDTH 561 0
DWIDTH 7 0
BBX 6 8 1 -2
BITMAP
FF40
E2C0
E2C0
FF40
E780
E2D0
0000
3F40
ENDCHAR
STARTCHAR Sacute.sc
ENCODING -1
SWIDTH 504 0
DWIDTH 6 0
BBX 6 10 0 0
BITMAP
0180
07C0
0600
0000
1F90
3840
3E40
07D0
21E0
6F80
ENDCHAR
STARTCHAR Scircumflex.sc
ENCODING -1
SWIDTH 504 0
DWIDTH 6 0
BBX 6 9 0 0
BITMAP
0F80
1880
0000
1F90
3840
3E40
07D0
21E0
6F80
ENDCHAR
STARTCHAR Scaron.sc
ENCODING -1
SWIDTH 504 0
DWIDTH 6 0
BBX 6 9 0 0
BITMAP
1880
0F80
0000
1F90
3840
3E40
07D0
21E0
6F80
ENDCHAR
STARTCHAR uni015E.sc
ENCODING -1
SWIDTH 504 0
DWIDTH 6 0
BBX 6 9 0 -3
BITMAP
1F90
3840
3E40
07D0
21E0
6F80
0B00
0700
1E00
ENDCHAR
STARTCHAR uni0218.sc
ENCODING -1
SWIDTH 504 0
DWIDTH 6 0
BBX 6 9 0 -3
BITMAP
1F90
3840
3E40
07D0
21E0
6F80
0600
0340
0E00
ENDCHAR
STARTCHAR uni1E60.sc
ENCODING -1
SWIDTH 504 0
DWIDTH 6 0
BBX 6 9 0 0
BITMAP
0B00
0B00
0000
1F90
3840
3E40
07D0
21E0
6F80
ENDCHAR
STARTCHAR uni1E62.sc
ENCODING -1
SWIDTH 504 0
DWIDTH 6 0
BBX 6 9 0 -3
BITMAP
1F90
3840
3E40
07D0
21E0
6F80
0000
0B00
0B00
ENDCHAR
STARTCHAR uni1E9E.sc
ENCODING -1
SWIDTH 636 0
DWIDTH 8 0
BBX 6 6 1 0
BITMAP
2F80
F1D0
E3C0
E2F0
E0B0
E7D0
ENDCHAR
STARTCHAR Tcaron.sc
ENCODING -1
SWIDTH 491 0
DWIDTH 6 0
BBX 6 9 0 0
BITMAP
2580
1F40
0000
BFE0
0E00
0E00
0E00
0E00
0E00
ENDCHAR
STARTCHAR uni0162.sc
ENCODING -1
SWIDTH 491 0
DWIDTH 6 0
BBX 6 9 0 -3
BITMAP
BFE0
0E00
0E00
0E00
0E00
0F00
0E00
0700
1D00
ENDCHAR
STARTCHAR uni021A.sc
ENCODING -1
SWIDTH 491 0
DWIDTH 6 0
BBX 6 9 0 -3
BITMAP
BFE0
0E00
0E00
0E00
0E00
0E00
0A00
0700
1D00
ENDCHAR
ENDFONT
